<svg width="56" height="56" viewBox="0 0 56 56" fill="none" xmlns="http://www.w3.org/2000/svg">
<g clip-path="url(#clip0_28_2)">
<path d="M47.0264 37.2701L51.1428 37.2455C51.9274 37.2409 52.5673 37.8731 52.5721 38.6578L52.6208 46.8313C52.6254 47.6159 51.9933 48.2558 51.2085 48.2606L47.0922 48.2852C46.3076 48.2898 45.6677 47.6576 45.6629 46.8729L45.6142 38.6994C45.6094 37.9146 46.2417 37.2749 47.0264 37.2701Z" fill="#2F4859"/>
<path d="M5.13803 37.5194L9.25437 37.4948C10.039 37.4902 10.6789 38.1224 10.6837 38.9071L10.7322 47.0808C10.7369 47.8654 10.1047 48.5053 9.31997 48.5101L5.20363 48.5346C4.41904 48.5393 3.77912 47.9071 3.77435 47.1224L3.72561 38.9488C3.72098 38.1641 4.35331 37.5242 5.13803 37.5194Z" fill="#2F4859"/>
<path d="M51.7056 17.3629C51.3617 17.3953 51.1002 17.6859 51.1039 18.0312C51.1885 18.7051 50.7566 19.3361 50.0979 19.5013L49.0739 19.5076L49.5997 21.0424C49.5997 21.0424 56.1928 21.0028 55.9956 18.8372C55.8428 17.1565 52.9812 17.2405 51.7056 17.3629Z" fill="#2F4859"/>
<path d="M4.29442 17.3629C4.63825 17.3953 4.89978 17.6859 4.89613 18.0312C4.81144 18.7051 5.24334 19.3361 5.90208 19.5013L6.92614 19.5076L6.40027 21.0424C6.40027 21.0424 -0.192863 21.0028 0.00433708 18.8372C0.157153 17.1565 3.0188 17.2405 4.29442 17.3629Z" fill="#2F4859"/>
<path d="M54.5262 30.2227C54.403 28.6121 53.9374 27.0464 53.1603 25.6304L50.3812 20.5336C50.3812 20.5336 45.4464 9.41068 43.3906 8.52552C41.4028 7.66959 28.7153 7.47716 27.8747 7.46536H27.8282C26.9876 7.48755 14.3034 7.83153 12.3262 8.71106C10.2809 9.62052 5.47664 20.7997 5.47664 20.7997L2.76093 25.9297C2.00121 27.3549 1.55428 28.9256 1.44992 30.5373C1.2589 34.0973 1.64248 37.665 2.58578 41.1031C3.03018 42.7245 4.51101 43.8431 6.19227 43.8273L28.0442 43.7008H28.0907L49.9427 43.5709C51.6237 43.5663 53.0907 42.4301 53.5157 40.8037C54.419 37.3539 54.7602 33.781 54.5262 30.2227Z" fill="#FD6930"/>
<path d="M17.372 36.8324L38.6663 36.7053C39.0474 36.7031 39.3581 37.0101 39.3603 37.391L39.382 41.0169C39.3842 41.3979 39.0772 41.7086 38.6963 41.7109L17.4019 41.838C17.0209 41.8402 16.7102 41.5332 16.7079 41.1523L16.6863 37.5264C16.684 37.1454 16.9911 36.8347 17.372 36.8324Z" fill="#3A556A"/>
<path d="M43.7896 10.2034C43.5673 9.71926 43.0878 9.40478 42.555 9.39396L27.9944 9.09521H27.9486L13.3922 9.56771C12.86 9.58512 12.3844 9.90508 12.168 10.3916L7.99109 19.7867L28.0103 19.6672H28.056L48.078 19.5477L43.7896 10.2034Z" fill="#2F4859"/>
<path d="M48.5291 36.0926C47.1256 36.1008 45.9943 37.2451 46.0025 38.6487C46.0106 40.0522 47.1549 41.1835 48.5585 41.1753C49.9621 41.1672 51.0933 40.0229 51.0851 38.6193C51.0851 38.6189 51.0851 38.6185 51.0851 38.618C51.0763 37.215 49.9321 36.0845 48.5291 36.0926Z" fill="#EBF0F3"/>
<path d="M7.72095 36.3365C6.31738 36.3449 5.18643 37.4896 5.19499 38.8932C5.20342 40.2968 6.34814 41.4277 7.75171 41.4191C9.15528 41.4107 10.2861 40.266 10.2777 38.8626C10.2691 37.459 9.12452 36.328 7.72095 36.3365Z" fill="#EBF0F3"/>
<path d="M18.4854 30.3866H37.0199V32.7002H18.4854V30.3866Z" fill="#3A556A"/>
<path d="M52.0953 26.749C52.034 26.2075 51.5454 25.8183 51.004 25.8797C50.9619 25.8845 50.9201 25.8919 50.8788 25.9021L42.4028 27.9746C42.1483 28.0371 41.9291 28.1983 41.7935 28.4226L40.1144 31.2017C39.8332 31.6674 39.9826 32.273 40.4484 32.5543C40.602 32.6471 40.7782 32.6961 40.9577 32.6961H49.2391C49.4328 32.6975 49.6225 32.6422 49.7852 32.537C51.7388 31.2433 52.3502 29.2279 52.0953 26.749Z" fill="#E1E6E9"/>
<path d="M48.0783 27.5354C47.0535 27.5772 46.2567 28.442 46.2987 29.4668C46.3406 30.4915 47.2053 31.2883 48.2301 31.2464C49.2547 31.2045 50.0515 30.34 50.0098 29.3152C49.9676 28.2906 49.103 27.4938 48.0783 27.5354Z" fill="#BDBEC1"/>
<path d="M44.1438 29.3076C43.3644 29.339 42.7579 29.9963 42.7892 30.7757C42.8206 31.5551 43.4779 32.1616 44.2573 32.1302C45.0367 32.0989 45.6432 31.4416 45.6119 30.6622C45.6119 30.6618 45.6119 30.6615 45.6119 30.6611C45.58 29.8821 44.9229 29.2763 44.1438 29.3076Z" fill="#BDBEC1"/>
<path d="M3.90457 26.749C3.96581 26.2075 4.45445 25.8183 4.99577 25.8797C5.03791 25.8845 5.07976 25.8919 5.12106 25.9021L13.597 27.9746C13.8515 28.0371 14.0708 28.1983 14.2063 28.4226L15.8855 31.2017C16.1666 31.6674 16.0172 32.273 15.5514 32.5543C15.3978 32.6471 15.2217 32.6961 15.0422 32.6961H6.76074C6.56705 32.6975 6.37729 32.6422 6.21465 32.537C4.26091 31.2433 3.64964 29.2279 3.90457 26.749Z" fill="#E1E6E9"/>
<path d="M7.92164 27.5354C8.94641 27.5772 9.74321 28.442 9.70121 29.4668C9.65936 30.4915 8.79457 31.2883 7.76981 31.2464C6.74518 31.2045 5.94838 30.34 5.99009 29.3152C6.03237 28.2906 6.89687 27.4938 7.92164 27.5354Z" fill="#BDBEC1"/>
<path d="M11.8562 29.3076C12.6356 29.339 13.242 29.9963 13.2107 30.7757C13.1794 31.5551 12.5221 32.1616 11.7427 32.1302C10.9633 32.0989 10.3568 31.4416 10.3881 30.6622C10.3881 30.6618 10.3881 30.6615 10.3881 30.6611C10.42 29.8821 11.0771 29.2763 11.8562 29.3076Z" fill="#BDBEC1"/>
</g>
<defs>
<clipPath id="clip0_28_2">
<rect width="56" height="56" fill="white"/>
</clipPath>
</defs>
</svg>
