<svg width="52" height="53" viewBox="0 0 52 53" fill="none" xmlns="http://www.w3.org/2000/svg">
<path d="M6.67183 12.8803L6.23065 12.6019C6.21886 12.6436 6.20769 12.6853 6.19205 12.7266L6.12502 12.9056C6.00274 13.2321 5.77971 13.4927 5.50427 13.6695L6.20993 14.1147L6.67183 12.8803Z" fill="#F45E0A"/>
<path d="M4.08953 13.8293L2.52343 13.2628C1.84073 13.0159 1.41661 12.344 1.49501 11.6334L1.54051 11.22C1.59718 10.7059 2.06782 10.3347 2.59087 10.3916L4.87867 10.6403C5.90222 10.7516 6.54795 11.7771 6.19207 12.7266L6.12504 12.9056C5.82259 13.7129 4.91117 14.1264 4.08953 13.8293V13.8293Z" fill="#F90000"/>
<path d="M41.0837 12.9058L41.0166 12.7268C41.0012 12.6853 40.9898 12.6436 40.9781 12.6021L40.5369 12.8804L40.9986 14.1148L41.7042 13.6696C41.429 13.4928 41.2062 13.2322 41.0837 12.9058V12.9058Z" fill="#F45E0A"/>
<path d="M43.1194 13.8293L44.6855 13.2628C45.3682 13.0159 45.7923 12.344 45.7139 11.6334L45.6684 11.22C45.6118 10.7059 45.1411 10.3347 44.6181 10.3916L42.3303 10.6403C41.3067 10.7516 40.661 11.7771 41.0169 12.7266L41.0839 12.9056C41.3864 13.7129 42.2978 14.1264 43.1194 13.8293V13.8293Z" fill="#F90000"/>
<path d="M23.6044 16.6332C23.6044 15.5311 24.5138 14.6377 25.6356 14.6377H41.1942H6.01455L3.96218 17.7058C3.40602 18.5371 3.10986 19.5101 3.10986 20.5051V27.4509C3.10986 29.5623 4.85207 31.2738 7.00133 31.2738L23.6046 31.2736V16.6332H23.6044Z" fill="#F90000"/>
<path d="M7.00113 31.2739C5.87277 31.2739 4.85978 30.7994 4.14905 30.0457V33.3989C4.14905 34.1754 4.7897 34.8047 5.58006 34.8047H9.87331C10.6637 34.8047 11.3043 34.1754 11.3043 33.3989V31.2739H7.00113Z" fill="#414042"/>
<path d="M23.6044 29.9993L5.70399 29.9995C4.96218 29.9995 4.27135 29.792 3.68127 29.438C4.36479 30.5375 5.5937 31.2739 7.00115 31.2739L23.6044 31.2737V29.9993Z" fill="#F45E0A"/>
<path d="M23.6043 20.8535H17.289C16.4383 20.8535 15.8177 21.6445 16.0347 22.4527L16.6477 24.7368C16.7978 25.2963 17.3129 25.6862 17.902 25.6862H23.6043V20.8535Z" fill="#414042"/>
<path d="M23.6044 16.6332C23.6044 15.5311 24.5137 14.6377 25.6356 14.6377H39.5939C39.5937 14.6377 39.5935 14.6377 39.5933 14.6377H7.61537C7.42768 14.6377 7.25482 14.7373 7.16301 14.8979L6.45614 16.1351C6.06289 16.8234 6.39439 17.6936 7.15103 17.959L12.5448 19.8516C12.8249 19.9497 13.1201 20 13.4174 20H23.6046V16.6332H23.6044Z" fill="#F45E0A"/>
<path d="M13.0496 21.9192C12.0271 20.9275 9.69296 19.3432 5.17018 19.2652C4.95162 19.2614 4.75296 19.3963 4.67618 19.5975C4.39262 20.3416 3.93335 22.1032 5.69708 22.5845C7.3688 23.0407 10.969 22.8881 12.7185 22.7787C13.1603 22.751 13.3644 22.2246 13.0496 21.9192Z" fill="white"/>
<path d="M13.0495 21.9193C12.7973 21.6746 12.4643 21.3937 12.0392 21.1085C12.0534 21.3661 11.8668 21.6232 11.5619 21.6421C9.81234 21.7515 6.21216 21.9043 4.54044 21.448C4.5118 21.4402 4.48885 21.4294 4.46143 21.4208C4.58533 21.9247 4.93125 22.3755 5.69744 22.5844C7.36916 23.0406 10.9693 22.8879 12.7189 22.7786C13.1603 22.751 13.3644 22.2246 13.0495 21.9193V21.9193Z" fill="#F1F2F2"/>
<path d="M33.2956 2.99487H13.913C11.7839 2.99487 9.88081 4.29974 9.14651 6.26312L6.01453 14.6375H41.1941L38.0622 6.26292C37.3279 4.29974 35.4248 2.99487 33.2956 2.99487V2.99487Z" fill="#F90000"/>
<path d="M7.95152 12.5914L10.3419 6.30836C10.6387 5.52851 11.3971 5.01147 12.2446 5.01147H34.9643C35.8117 5.01147 36.5702 5.52851 36.867 6.30836L39.2573 12.5912C39.3567 12.852 39.1603 13.13 38.8769 13.13H8.33198C8.04862 13.1304 7.8522 12.8524 7.95152 12.5914V12.5914Z" fill="#F1F2F2"/>
<path d="M23.6044 27.074H12.3082C11.9213 27.074 11.5546 27.2436 11.3082 27.5367L10.5831 28.3992C10.3036 28.7316 10.5443 29.2335 10.983 29.2335H23.6044V27.074Z" fill="#414042"/>
<path d="M7.6741 29.6312C8.5047 29.6312 9.17804 28.9697 9.17804 28.1537C9.17804 27.3378 8.5047 26.6763 7.6741 26.6763C6.8435 26.6763 6.17017 27.3378 6.17017 28.1537C6.17017 28.9697 6.8435 29.6312 7.6741 29.6312Z" fill="#D1D3D4"/>
<path d="M7.67415 29.0531C8.17976 29.0531 8.58964 28.6505 8.58964 28.1538C8.58964 27.6571 8.17976 27.2544 7.67415 27.2544C7.16854 27.2544 6.75867 27.6571 6.75867 28.1538C6.75867 28.6505 7.16854 29.0531 7.67415 29.0531Z" fill="white"/>
<path d="M42.8726 14.6383H25.6356C24.5138 14.6383 23.6044 15.5317 23.6044 16.6338V48.2016C23.6044 49.3037 24.5138 50.1971 25.6356 50.1971H48.4831C49.605 50.1971 50.5144 49.3037 50.5144 48.2016V22.143L42.8726 14.6383Z" fill="#FCC4AE"/>
<path d="M24.8234 30.2021C24.5991 30.2021 24.4171 30.0233 24.4171 29.803V19.2268C24.4171 19.0065 24.5991 18.8277 24.8234 18.8277C25.0476 18.8277 25.2296 19.0065 25.2296 19.2268V29.803C25.2296 30.0235 25.0476 30.2021 24.8234 30.2021ZM24.8234 18.0295C24.5991 18.0295 24.4171 17.8507 24.4171 17.6304V17.6003C24.4171 17.38 24.5991 17.2012 24.8234 17.2012C25.0476 17.2012 25.2296 17.38 25.2296 17.6003V17.6304C25.2296 17.8509 25.0476 18.0295 24.8234 18.0295Z" fill="#FFD2C0"/>
<path d="M50.5144 22.1426L48.4831 22.143V46.2056C48.4831 47.3078 47.5737 48.2011 46.4519 48.2011H23.6044C23.6044 49.3033 24.5138 50.1966 25.6356 50.1966H48.4831C49.605 50.1966 50.5144 49.3033 50.5144 48.2011V22.1426Z" fill="#F2AD97"/>
<path d="M50.5144 22.1426L49.4988 22.1428V47.2034C49.4988 48.3055 48.5894 49.1989 47.4675 49.1989H24.62C24.3222 49.1989 24.0401 49.1344 23.7852 49.0213C24.1039 49.7139 24.8115 50.1966 25.6356 50.1966H48.4831C49.605 50.1966 50.5144 49.3033 50.5144 48.2011V22.1426Z" fill="#E59076"/>
<path d="M42.8727 20.148V14.6376L50.5144 22.1423L44.9043 22.1433C43.7825 22.1437 42.8727 21.2501 42.8727 20.148V20.148Z" fill="#E59076"/>
<path d="M45.4363 45.6068H28.6827C28.4585 45.6068 28.2765 45.428 28.2765 45.2077C28.2765 44.9874 28.4585 44.8086 28.6827 44.8086H45.4363C45.6605 44.8086 45.8425 44.9874 45.8425 45.2077C45.8425 45.428 45.6607 45.6068 45.4363 45.6068V45.6068Z" fill="#58595B"/>
<path d="M45.4363 41.6158H28.6827C28.4585 41.6158 28.2765 41.437 28.2765 41.2167C28.2765 40.9964 28.4585 40.8176 28.6827 40.8176H45.4363C45.6605 40.8176 45.8425 40.9964 45.8425 41.2167C45.8425 41.437 45.6607 41.6158 45.4363 41.6158V41.6158Z" fill="#58595B"/>
<path d="M45.4363 37.6247H28.6827C28.4585 37.6247 28.2765 37.4459 28.2765 37.2256C28.2765 37.0053 28.4585 36.8265 28.6827 36.8265H45.4363C45.6605 36.8265 45.8425 37.0053 45.8425 37.2256C45.8425 37.4459 45.6607 37.6247 45.4363 37.6247V37.6247Z" fill="#58595B"/>
<path d="M45.4363 33.6338H28.6827C28.4585 33.6338 28.2765 33.455 28.2765 33.2347C28.2765 33.0144 28.4585 32.8356 28.6827 32.8356H45.4363C45.6605 32.8356 45.8425 33.0144 45.8425 33.2347C45.8425 33.455 45.6607 33.6338 45.4363 33.6338V33.6338Z" fill="#58595B"/>
<path d="M42.2248 24.8087V23.4479C42.2248 23.2386 42.0521 23.069 41.839 23.069H40.9069C40.7671 22.3929 40.4958 21.7639 40.121 21.208L40.781 20.5596C40.9317 20.4116 40.9317 20.1717 40.781 20.0236L39.8015 19.0614C39.6508 18.9133 39.4066 18.9133 39.2559 19.0614L38.5959 19.7099C38.03 19.3418 37.3898 19.0752 36.7016 18.9379V18.0221C36.7016 17.8128 36.5289 17.6432 36.3159 17.6432H34.9308C34.7177 17.6432 34.545 17.8128 34.545 18.0221V18.9379C33.8566 19.0752 33.2166 19.3418 32.6507 19.7099L31.9907 19.0614C31.84 18.9133 31.5959 18.9133 31.4451 19.0614L30.4657 20.0236C30.3149 20.1717 30.3149 20.4116 30.4657 20.5596L31.1256 21.208C30.7508 21.7639 30.4795 22.3929 30.3397 23.069H29.4076C29.1945 23.069 29.0219 23.2386 29.0219 23.4479V24.8087C29.0219 25.018 29.1945 25.1876 29.4076 25.1876H30.3397C30.4795 25.8637 30.7508 26.4927 31.1256 27.0486L30.4657 27.697C30.3149 27.845 30.3149 28.0849 30.4657 28.233L31.4451 29.1952C31.5959 29.3433 31.84 29.3433 31.9907 29.1952L32.6507 28.5469C33.2166 28.915 33.8568 29.1816 34.545 29.3189V30.2347C34.545 30.444 34.7177 30.6136 34.9308 30.6136H36.3159C36.5289 30.6136 36.7016 30.444 36.7016 30.2347V29.3189C37.39 29.1816 38.03 28.915 38.5959 28.5469L39.2559 29.1952C39.4066 29.3433 39.6508 29.3433 39.8015 29.1952L40.781 28.233C40.9317 28.0849 40.9317 27.845 40.781 27.697L40.121 27.0486C40.4958 26.4927 40.7671 25.8637 40.9069 25.1876H41.839C42.0521 25.1878 42.2248 25.018 42.2248 24.8087V24.8087ZM35.6232 26.9221C34.0526 26.9221 32.7795 25.6713 32.7795 24.1284C32.7795 22.5855 34.0526 21.3347 35.6232 21.3347C37.1938 21.3347 38.467 22.5855 38.467 24.1284C38.467 25.6713 37.1938 26.9221 35.6232 26.9221Z" fill="#58595B"/>
<path d="M41.8392 23.069H41.8187V24.4096C41.8187 24.6189 41.6461 24.7885 41.433 24.7885H40.5009C40.3611 25.4646 40.0897 26.0936 39.715 26.6495L40.1212 27.0486C40.496 26.4927 40.7674 25.8637 40.9071 25.1876H41.8392C42.0523 25.1876 42.225 25.018 42.225 24.8087V23.4479C42.225 23.2386 42.0523 23.069 41.8392 23.069V23.069Z" fill="#414042"/>
<path d="M40.3747 27.298C40.5255 27.446 40.5255 27.6859 40.3747 27.834L39.3953 28.7962C39.2445 28.9443 39.0004 28.9443 38.8497 28.7962L38.1897 28.1479C37.6238 28.516 36.9836 28.7826 36.2954 28.9199V29.8357C36.2954 30.045 36.1227 30.2146 35.9096 30.2146H34.545V30.2348C34.545 30.4441 34.7177 30.6137 34.9308 30.6137H36.3159C36.529 30.6137 36.7016 30.4441 36.7016 30.2348V29.319C37.39 29.1817 38.0301 28.9151 38.596 28.547L39.2559 29.1953C39.4066 29.3434 39.6508 29.3434 39.8015 29.1953L40.781 28.2331C40.9317 28.085 40.9317 27.8451 40.781 27.6971L40.3747 27.298Z" fill="#414042"/>
</svg>
