<svg width="64" height="64" viewBox="0 0 64 64" fill="none" xmlns="http://www.w3.org/2000/svg">
<path d="M41.5 29.1875C41.5 32.2887 38.9762 34.8125 35.875 34.8125H24.625C23.59 34.8125 22.75 35.6525 22.75 36.6875V44.1875H32.125C39.625 44.1875 43.375 36.6875 43.375 29.1875V27.3125C42.34 27.3125 41.5 28.1525 41.5 29.1875Z" fill="#575F64"/>
<path d="M43.375 27.3125V29.1875C43.375 36.6875 39.625 44.1875 32.125 44.1875H28.375V34.8125H35.875C38.9762 34.8125 41.5 32.2887 41.5 29.1875C41.5 28.1525 42.34 27.3125 43.375 27.3125Z" fill="#685E67"/>
<path d="M45.25 29.1875C45.25 37.8425 40.6888 46.0625 32.125 46.0625H20.875C19.84 46.0625 19 45.2225 19 44.1875C19 43.1525 19.84 42.3125 20.875 42.3125H32.125C38.5662 42.3125 41.5 35.5087 41.5 29.1875C41.5 28.1525 42.34 27.3125 43.375 27.3125C44.41 27.3125 45.25 28.1525 45.25 29.1875Z" fill="#D3D3D8"/>
<path d="M45.25 29.1875C45.25 37.8425 40.6888 46.0625 32.125 46.0625H28.375V42.3125H32.125C38.5662 42.3125 41.5 35.5087 41.5 29.1875C41.5 28.1525 42.34 27.3125 43.375 27.3125C44.41 27.3125 45.25 28.1525 45.25 29.1875Z" fill="#BABAC0"/>
<path d="M54.625 49.8125C49.4556 49.8125 45.25 45.6069 45.25 40.4375C45.25 35.2681 49.4556 31.0625 54.625 31.0625C59.7944 31.0625 64 35.2681 64 40.4375C64 45.6069 59.7944 49.8125 54.625 49.8125ZM54.625 34.8125C51.5234 34.8125 49 37.3359 49 40.4375C49 43.5391 51.5234 46.0625 54.625 46.0625C57.7266 46.0625 60.25 43.5391 60.25 40.4375C60.25 37.3359 57.7266 34.8125 54.625 34.8125Z" fill="#685E67"/>
<path d="M9.375 49.8125C4.20563 49.8125 0 45.6069 0 40.4375C0 35.2681 4.20563 31.0625 9.375 31.0625C14.5444 31.0625 18.75 35.2681 18.75 40.4375C18.75 45.6069 14.5444 49.8125 9.375 49.8125ZM9.375 34.8125C6.27338 34.8125 3.75 37.3359 3.75 40.4375C3.75 43.5391 6.27338 46.0625 9.375 46.0625C12.4766 46.0625 15 43.5391 15 40.4375C15 37.3359 12.4766 34.8125 9.375 34.8125Z" fill="#575F64"/>
<path d="M52.9741 41.3264L44.8972 26.3264C44.4062 25.4146 44.7475 24.2775 45.6592 23.7866C46.5706 23.2955 47.708 23.6366 48.199 24.5486L56.2758 39.5486C56.7668 40.4604 56.4256 41.5975 55.5138 42.0884C54.604 42.5785 53.4661 42.2399 52.9741 41.3264Z" fill="#D3D3D8"/>
<path d="M42.4609 21.8021L40.3801 17.9375H34.7766L31.5758 21.1383C30.8437 21.8705 29.6564 21.8705 28.9242 21.1383C28.1919 20.406 28.1919 19.2189 28.9242 18.4866L32.6742 14.7366C33.0258 14.385 33.5027 14.1874 33.9999 14.1874H41.4999C42.1898 14.1874 42.8238 14.5661 43.1508 15.1735L45.7628 20.0243C46.2538 20.936 45.9126 22.0731 45.0008 22.564C44.0909 23.0543 42.9529 22.7158 42.4609 21.8021Z" fill="#D3D3D8"/>
<path d="M43.375 23.5625C36.5212 23.5625 31.845 25.5063 28.375 27.0962L27.125 32.9375L28.375 38.5625H35.875C41.045 38.5625 45.25 34.3562 45.25 29.1875V25.4375C45.25 24.4025 44.41 23.5625 43.375 23.5625Z" fill="#D3D3D8"/>
<path d="M28.375 27.0963V38.5625H16.875C15.84 38.5625 15 37.7225 15 36.6875V29.1875C15 28.4775 15.4012 27.8288 16.0362 27.5113C16.6712 27.1925 17.43 27.2613 17.9988 27.6863C21.7704 30.5109 23.9405 29.1084 28.375 27.0963Z" fill="#FD6930"/>
<path d="M15.5595 30.5235C15.4241 30.3924 12.1709 27.3125 5.625 27.3125C4.5895 27.3125 3.75 26.473 3.75 25.4375C3.75 24.402 4.5895 23.5625 5.625 23.5625C13.8076 23.5625 18.0253 27.6861 18.2008 27.8617L15.5491 30.5134L15.5595 30.5235Z" fill="#FD6930"/>
<path d="M50.875 27.3125H43.375C42.3395 27.3125 41.5 26.473 41.5 25.4375V21.2375C41.5 20.494 41.9394 19.8208 42.6199 19.5214L50.1199 16.2214C51.3575 15.6768 52.75 16.5846 52.75 17.9375V25.4375C52.75 26.473 51.9105 27.3125 50.875 27.3125Z" fill="#FD6930"/>
<path d="M9.375 42.3125C10.4105 42.3125 11.25 41.473 11.25 40.4375C11.25 39.402 10.4105 38.5625 9.375 38.5625C8.33947 38.5625 7.5 39.402 7.5 40.4375C7.5 41.473 8.33947 42.3125 9.375 42.3125Z" fill="#575F64"/>
</svg>
