<svg width="68" height="68" viewBox="0 0 68 68" fill="none" xmlns="http://www.w3.org/2000/svg">
<path d="M26.869 26.7029H12.7507V13.5143C12.7507 13.0009 13.167 12.5846 13.6804 12.5846H17.0007L19.1257 13.9529L21.2507 12.5846H25.5007L26.869 13.9583V26.7029Z" fill="#EDBA94"/>
<path d="M38.25 26.7029H25.5V12.5846H29.75L31.875 13.9529L34 12.5846H37.3203C37.8338 12.5846 38.25 13.0009 38.25 13.5143V26.7029Z" fill="#EDBA94"/>
<path d="M12.7399 23.3276H38.25V26.7028H12.7399V23.3276Z" fill="#E5A87F"/>
<path d="M12.75 13.5143V26.7029H14.875V12.5846H13.6797C13.1662 12.5846 12.75 13.0009 12.75 13.5143Z" fill="#E5A87F"/>
<path d="M17 12.5846V16.8393C17 17.1191 17.2809 17.3118 17.542 17.2109L18.9814 16.6548C19.0739 16.6191 19.1763 16.6191 19.2686 16.6548L20.708 17.2109C20.9691 17.3117 21.25 17.1191 21.25 16.8393V12.5846H17Z" fill="#FD6930"/>
<path d="M25.5 12.5846H27.625V26.7029H25.5V12.5846Z" fill="#E5A87F"/>
<path d="M29.75 12.5846V16.8393C29.75 17.1191 30.0309 17.3118 30.292 17.2109L31.7314 16.6548C31.8239 16.6191 31.9263 16.6191 32.0186 16.6548L33.458 17.2109C33.7191 17.3117 34 17.1191 34 16.8393V12.5846H29.75Z" fill="#FD6930"/>
<path d="M45.9932 39.4529H31.875V25.3346H36.125L38.25 26.7029L40.375 25.3346H45.9932V39.4529Z" fill="#EDBA94"/>
<path d="M31.875 25.3346H33.9274V39.4529H31.875V25.3346Z" fill="#E5A87F"/>
<path d="M31.875 39.4529H19.125V25.3346H23.375L25.5 26.7029L27.625 25.3346H31.875V39.4529Z" fill="#EDBA94"/>
<path d="M19.125 25.3346H21.1774V39.4529H19.125V25.3346Z" fill="#E5A87F"/>
<path d="M19.125 39.4465H6.375V26.258C6.375 25.7445 6.79123 25.3283 7.30469 25.3283H10.625L12.7469 26.6965L14.875 25.3283H19.125V39.4465Z" fill="#EDBA94"/>
<path d="M6.375 26.258V39.4465H8.42735V25.3283H7.30469C6.79123 25.3283 6.375 25.7445 6.375 26.258Z" fill="#E5A87F"/>
<path d="M10.625 25.3346V29.5893C10.625 29.8691 10.9059 30.0618 11.167 29.9609L12.6064 29.4048C12.6989 29.3691 12.8013 29.3691 12.8936 29.4048L14.333 29.9609C14.5941 30.0617 14.875 29.8691 14.875 29.5893V25.3346H10.625Z" fill="#FD6930"/>
<path d="M23.375 25.3346V29.5893C23.375 29.8691 23.6559 30.0618 23.917 29.9609L25.3564 29.4048C25.4489 29.3691 25.5513 29.3691 25.6436 29.4048L27.083 29.9609C27.3441 30.0617 27.625 29.8691 27.625 29.5893V25.3346H23.375Z" fill="#FD6930"/>
<path d="M36.125 25.3346V29.5893C36.125 29.8691 36.4059 30.0618 36.667 29.9609L38.1064 29.4048C38.1989 29.3691 38.3011 29.3691 38.3936 29.4048L39.833 29.9609C40.0941 30.0617 40.375 29.8691 40.375 29.5893V25.3346H36.125Z" fill="#FD6930"/>
<path d="M45.9932 45.3162H2.125V39.0143C2.125 38.5009 2.54123 38.0846 3.05469 38.0846H45.9932V45.3162Z" fill="#AEA7AF"/>
<path d="M2.125 39.0143V45.3162H4.17735V38.0846H3.05469C2.54123 38.0846 2.125 38.5009 2.125 39.0143Z" fill="#9F9AA0"/>
<path d="M45.9933 38.0846H39.3488V45.3162H45.9933V38.0846Z" fill="#9F9AA0"/>
<path d="M44.625 45.3162V21.5026C44.625 20.9892 45.0412 20.5729 45.5547 20.5729H59.0352C59.3277 20.5729 59.6033 20.7106 59.7789 20.9448L62.6875 24.8229L64.5068 29.0729V34.9833L65.875 36.7228V45.316H44.625V45.3162Z" fill="#FD6930"/>
<path d="M44.625 21.5026V45.3162H46.6774V20.5729H45.5547C45.0412 20.5729 44.625 20.9892 44.625 21.5026Z" fill="#FD5426"/>
<path d="M65.875 36.7228H60.9578C60.6941 36.7228 60.4428 36.6108 60.2666 36.4148L59.2729 35.3099C58.5722 34.5308 57.5737 34.0861 56.5259 34.0861H49.8047C49.2912 34.0861 48.875 33.6698 48.875 33.1564V25.7525C48.875 25.239 49.2912 24.8228 49.8047 24.8228H62.6875L65.6891 28.8248C65.8098 28.9858 65.875 29.1814 65.875 29.3826V36.7228Z" fill="#9DC6FB"/>
<path d="M67.0703 48.1979H0.929688C0.416234 48.1979 0 47.7817 0 47.2682V44.8776C0 44.3641 0.416234 43.9479 0.929688 43.9479H67.0703C67.5838 43.9479 68 44.3641 68 44.8776V47.2682C68 47.7817 67.5838 48.1979 67.0703 48.1979Z" fill="#897E8B"/>
<path d="M56.1308 55.4155C59.8843 55.4155 62.9271 52.3727 62.9271 48.6192C62.9271 44.8657 59.8843 41.8229 56.1308 41.8229C52.3773 41.8229 49.3345 44.8657 49.3345 48.6192C49.3345 52.3727 52.3773 55.4155 56.1308 55.4155Z" fill="#685E67"/>
<path d="M56.1308 51.2522C57.585 51.2522 58.7638 50.0734 58.7638 48.6192C58.7638 47.165 57.585 45.9862 56.1308 45.9862C54.6766 45.9862 53.4978 47.165 53.4978 48.6192C53.4978 50.0734 54.6766 51.2522 56.1308 51.2522Z" fill="#F1F6F7"/>
<path d="M11.473 55.4155C15.2265 55.4155 18.2693 52.3727 18.2693 48.6192C18.2693 44.8657 15.2265 41.8229 11.473 41.8229C7.7195 41.8229 4.6767 44.8657 4.6767 48.6192C4.6767 52.3727 7.7195 55.4155 11.473 55.4155Z" fill="#685E67"/>
<path d="M11.473 51.2522C12.9271 51.2522 14.106 50.0734 14.106 48.6192C14.106 47.165 12.9271 45.9862 11.473 45.9862C10.0188 45.9862 8.83997 47.165 8.83997 48.6192C8.83997 50.0734 10.0188 51.2522 11.473 51.2522Z" fill="#F1F6F7"/>
<path d="M25.0654 55.4155C28.8189 55.4155 31.8617 52.3727 31.8617 48.6192C31.8617 44.8657 28.8189 41.8229 25.0654 41.8229C21.3119 41.8229 18.2691 44.8657 18.2691 48.6192C18.2691 52.3727 21.3119 55.4155 25.0654 55.4155Z" fill="#685E67"/>
<path d="M25.0654 51.2522C26.5196 51.2522 27.6985 50.0734 27.6985 48.6192C27.6985 47.165 26.5196 45.9862 25.0654 45.9862C23.6113 45.9862 22.4324 47.165 22.4324 48.6192C22.4324 50.0734 23.6113 51.2522 25.0654 51.2522Z" fill="#F1F6F7"/>
<path d="M59.7789 20.9448C59.6033 20.7106 59.3277 20.5729 59.0352 20.5729H45.5547C45.0412 20.5729 44.625 20.9892 44.625 21.5026V24.8229H62.6875L59.7789 20.9448Z" fill="#FD5426"/>
<path d="M50.7778 39.2365H48.875C48.3083 39.2365 47.8489 38.7771 47.8489 38.2104C47.8489 37.6437 48.3083 37.1843 48.875 37.1843H50.7778C51.3445 37.1843 51.8039 37.6437 51.8039 38.2104C51.8039 38.7771 51.3445 39.2365 50.7778 39.2365Z" fill="#F1F6F7"/>
</svg>
