<svg width="14" height="14" viewBox="0 0 14 14" fill="none" xmlns="http://www.w3.org/2000/svg">
<path d="M0 2.19186C0 1.56738 0.506828 1.06055 1.13131 1.06055H12.8687C13.4932 1.06055 14 1.56738 14 2.19186C14 2.81634 13.4932 3.32317 12.8687 3.32317H1.13131C0.506828 3.32317 0 2.81634 0 2.19186ZM12.8687 5.86863H1.13131C0.506828 5.86863 0 6.37546 0 6.99994C0 7.62443 0.506828 8.13125 1.13131 8.13125H12.8687C13.4932 8.13125 14 7.62443 14 6.99994C14 6.37546 13.4937 5.86863 12.8687 5.86863ZM12.8687 10.6767H1.13131C0.506828 10.6767 0 11.1835 0 11.808C0 12.4325 0.506828 12.9393 1.13131 12.9393H12.8687C13.4932 12.9393 14 12.4325 14 11.808C14 11.1835 13.4937 10.6767 12.8687 10.6767Z" fill="#E2E2E2"/>
</svg>
