<svg width="81" height="81" viewBox="0 0 81 81" fill="none" xmlns="http://www.w3.org/2000/svg">
<path d="M61.0007 75.8684H25.5211C21.8702 75.8684 18.9106 72.9087 18.9106 69.2579V6.61052C18.9106 2.95966 21.8702 0 25.5211 0H71.5016C75.1524 0 78.1121 2.95966 78.1121 6.61052V58.7568C78.1123 68.2072 70.4511 75.8684 61.0007 75.8684Z" fill="#F9EFCD"/>
<path d="M46.2492 62.0949L21.9948 37.8406C21.1082 36.9542 20.0572 36.292 18.9106 35.8826V69.2579C18.9106 72.9087 21.8702 75.8684 25.5211 75.8684H53.0492C51.9138 70.0471 49.6881 65.5339 46.2492 62.0949V62.0949Z" fill="#F8DEBB"/>
<path d="M61.0007 75.8684C70.4512 75.8684 78.1123 68.2072 78.1123 58.7568V54.4603C78.1123 60.6989 72.0207 60.9928 69.8473 60.9928C66.1964 60.9928 63.2368 63.9525 63.2368 67.6034C63.2368 69.7767 62.9428 75.8684 56.7041 75.8684H61.0007Z" fill="#F8DEBB"/>
<path d="M47.8497 23.8834C48.278 24.035 48.7445 24.035 49.1729 23.8834C51.3036 23.1296 55.3107 20.8856 55.3107 17.2995V10.4055C55.3107 9.93071 55.0609 9.48838 54.6494 9.25154C53.1641 8.39677 50.7562 7.8418 48.5113 7.8418C46.2664 7.8418 43.8586 8.39662 42.3732 9.25154C41.9617 9.48838 41.7119 9.93071 41.7119 10.4055V17.2995C41.7119 20.8858 45.7192 23.1296 47.8497 23.8834V23.8834Z" fill="#F5ED85"/>
<path d="M48.5115 25.1831C48.1532 25.1831 47.795 25.1228 47.4541 25.0021C44.2579 23.8712 40.5256 21.1755 40.5256 17.2997V10.4055C40.5256 9.5053 41.0068 8.66904 41.7816 8.22322C43.4621 7.25613 46.0408 6.65527 48.5115 6.65527C50.9823 6.65527 53.561 7.25597 55.2415 8.22307C56.0162 8.66888 56.4974 9.50514 56.4974 10.4055V17.2995C56.4974 19.2093 55.5715 21.0244 53.8199 22.5487C52.1606 23.9924 50.2941 24.7453 49.5688 25.0019C49.2279 25.1226 48.8695 25.1831 48.5115 25.1831V25.1831ZM48.5114 9.02832C46.4949 9.02832 44.266 9.53125 42.9651 10.2799C42.9247 10.3031 42.8985 10.3525 42.8985 10.4055V17.2995C42.8985 18.5194 43.5251 19.6831 44.7608 20.7584C46.1506 21.9678 47.7795 22.5999 48.2456 22.7648C48.4171 22.8254 48.6058 22.8254 48.7771 22.7648C49.2434 22.5999 50.8722 21.9678 52.262 20.7584C53.4977 19.6831 54.1242 18.5194 54.1242 17.2995V10.4055C54.1242 10.3525 54.0981 10.3033 54.0576 10.2799C52.7569 9.53141 50.528 9.02832 48.5114 9.02832V9.02832Z" fill="#EFB060"/>
<path d="M64.7623 33.8134H32.2606C31.6053 33.8134 31.074 33.2821 31.074 32.6268C31.074 31.9716 31.6053 31.4403 32.2606 31.4403H64.7623C65.4175 31.4403 65.9488 31.9716 65.9488 32.6268C65.9488 33.2821 65.4175 33.8134 64.7623 33.8134Z" fill="#4F5C6F"/>
<path d="M64.7623 40.9857H32.2606C31.6053 40.9857 31.074 40.4544 31.074 39.7991C31.074 39.1439 31.6053 38.6126 32.2606 38.6126H64.7623C65.4176 38.6126 65.9488 39.1439 65.9488 39.7991C65.9488 40.4544 65.4176 40.9857 64.7623 40.9857Z" fill="#4F5C6F"/>
<path d="M48.5113 48.158H32.2606C31.6053 48.158 31.074 47.6267 31.074 46.9714C31.074 46.3162 31.6053 45.7849 32.2606 45.7849H48.5113C49.1666 45.7849 49.6979 46.3162 49.6979 46.9714C49.6979 47.6267 49.1666 48.158 48.5113 48.158Z" fill="#4F5C6F"/>
<path d="M42.7917 65.5522L32.9613 75.3827L8.70706 51.1284C7.36107 49.7824 7.36107 47.6003 8.70706 46.2543L13.6634 41.2979C15.0092 39.9521 17.1915 39.9521 18.5375 41.2979L42.7917 65.5522Z" fill="#7CA0DB"/>
<path d="M20.0616 66.3839C21.1388 65.3067 21.1388 63.5602 20.0616 62.4831L8.70691 51.1284L7.81939 52.0159C6.15509 53.6802 6.15509 56.3785 7.81939 58.0427L16.1606 66.3839C17.238 67.4611 18.9844 67.4611 20.0616 66.3839V66.3839Z" fill="#4F5C6F"/>
<path d="M42.7917 65.5522L32.9613 75.3827L8.70706 51.1284C7.36107 49.7824 7.36107 47.6003 8.70706 46.2543L13.6634 41.2979C15.0092 39.9521 17.1915 39.9521 18.5375 41.2979L42.7917 65.5522Z" fill="#8CADE0"/>
<path d="M6.05534 36.0937L3.50273 38.6463C2.6826 39.4665 2.6826 40.7963 3.50273 41.6164L9.15754 47.2711L14.6803 41.7484L9.0256 36.0937C8.20531 35.2734 6.87562 35.2734 6.05534 36.0937V36.0937Z" fill="#4F5C6F"/>
<path d="M23.4056 46.166L18.5375 41.2979C17.1915 39.9521 15.0094 39.9521 13.6634 41.2979L8.70707 46.2543C7.36107 47.6003 7.36107 49.7824 8.70707 51.1284L24.3325 66.7538C21.0113 60.2893 18.7012 50.1349 23.4056 46.166V46.166Z" fill="#7C91DB"/>
<path d="M42.7918 65.5522C46.1508 68.9112 47.6079 73.1493 48.3604 77.3722C48.7355 79.4768 46.886 81.3264 44.7814 80.9513C40.5585 80.1985 36.3204 78.7416 32.9614 75.3827L42.7918 65.5522Z" fill="#4F5C6F"/>
<path d="M34.048 17.106H30.7447C30.0894 17.106 29.5582 16.5748 29.5582 15.9195C29.5582 15.2642 30.0894 14.733 30.7447 14.733H34.048C34.7032 14.733 35.2345 15.2642 35.2345 15.9195C35.2345 16.5748 34.7032 17.106 34.048 17.106Z" fill="#EFB060"/>
<path d="M66.2781 17.106H62.9748C62.3195 17.106 61.7883 16.5748 61.7883 15.9195C61.7883 15.2642 62.3195 14.733 62.9748 14.733H66.2781C66.9334 14.733 67.4646 15.2642 67.4646 15.9195C67.4646 16.5748 66.9334 17.106 66.2781 17.106Z" fill="#EFB060"/>
</svg>
