<svg xmlns="http://www.w3.org/2000/svg" viewBox="0 0 476.71 537.84">
    <defs>
        <style>.cls-1,.cls-15,.cls-27,.cls-40,.cls-44,.cls-45{fill:none;stroke-linecap:round;stroke-linejoin:round;stroke:#1a1a18}.cls-1{stroke-width:2.83px}.cls-2{fill:#88573c}.cls-11,.cls-13,.cls-14,.cls-17,.cls-19,.cls-2,.cls-20,.cls-21,.cls-24,.cls-25,.cls-3,.cls-31,.cls-32,.cls-33,.cls-34,.cls-35,.cls-39,.cls-41,.cls-5,.cls-7,.cls-8,.cls-9{fill-rule:evenodd}.cls-3{fill:#663310}.cls-5{fill:#f0b17a}.cls-26,.cls-7{fill:#773700}.cls-8{fill:#9b9297}.cls-9{fill:#491500}.cls-10,.cls-32{fill:#1a1a18}.cls-11{fill:#f5dfc7}.cls-13{fill:#44363b}.cls-14{fill:#a79a9a}.cls-15{stroke-width:2.83px}.cls-17{fill:#6d3f00}.cls-19{fill:#766f71}.cls-20{fill:#eb9761}.cls-21{fill:#fff}.cls-22{fill:#b3adb0}.cls-23{fill:#9b8f95}.cls-24{fill:#c5c6c6}.cls-25{fill:#b1b2b3}.cls-27{stroke-width:2.13px}.cls-31{fill:#008bd2}.cls-33{fill:#005ca9}.cls-34{fill:#000003}.cls-35{fill:#d9dada}.cls-39{fill:#000001}.cls-40{stroke-width:2.76px}.cls-41{fill:#9c9c9c}.cls-44,.cls-45{stroke-width:2.76px}
        </style>
    </defs>
    <g id="Слой_2"><g id="layer1-2"><path class="cls-1" d="M282.76 358.2c2.28-2.56 5.44-1.85 8.24-.38 17.86-5.42 34.83-10.83 53.15-19.61.67-.32 2.29-2.47 3-2.75a19.59 19.59 0 0 1 4.1-1.25c6.09-.43 28 4.52 42.48 20.31 9.71 10.58 15.3 27.1 13.58 46.11-1.1 3.7-3.16 4-5.58 2.84-33.61 15.81-85.89 19.33-115.89-6-7.91 2.37-11.54 2.13-10-1.28l-.09-1.17c4-2.58 10.27-6.18 12-20.54.65-5.54-2.63-12.83-4.91-16.16-.17-.14-.01-.02-.08-.12Z"/><path class="cls-2" d="M282.76 358.2c2.28-2.56 5.44-1.85 8.24-.38 17.86-5.42 34.83-10.83 53.15-19.61.67-.32 2.29-2.47 3-2.75a19.59 19.59 0 0 1 4.1-1.25c6.09-.43 28 4.52 42.48 20.31 9.71 10.58 15.3 27.1 13.58 46.11-1.1 3.7-3.16 4-5.58 2.84-33.61 15.81-85.89 19.33-115.89-6-7.91 2.37-11.54 2.13-10-1.28l-.09-1.17c4-2.58 10.27-6.18 12-20.54.65-5.54-2.63-12.83-4.91-16.16-.08-.12.08 0 0-.1"/><path class="cls-3" d="M404.7 374.12a68.48 68.48 0 0 1 2.59 26.51c-1.1 3.7-3.16 4-5.58 2.84-33.61 15.81-85.89 19.33-115.89-6-7.91 2.37-11.54 2.13-10-1.28l-.09-1.17a24.1 24.1 0 0 0 6.49-5.39c.78-.2 1.61-.43 2.5-.7 19.3 16.32 48.4 18.76 74.78 10.65 14.61-4.49 27.54-15.69 39.52-21.32 2.42 1.2 4.49.86 5.59-2.84 0-.44.07-.86.11-1.28"/><path d="M280.43 159.05c0-.35-.07-.7-.1-1.05a39.13 39.13 0 0 0-1.18-5.63c-2-4.83-3.59-9.72-6-14.55a18.06 18.06 0 0 1 .12-6.68 18 18 0 0 0 .82-5.93 16.15 16.15 0 0 0-2.25-5.08h-10.17a48.28 48.28 0 0 0-6.76 2.9c-3.36-1.68-6.56-3.46-13.41-3.66a49.08 49.08 0 0 0-9.54 1.65 59.23 59.23 0 0 0-3.48 10.07c-.3 2.47-.71 5-1.06 6.81a9.62 9.62 0 0 1-1.1 2.93l-1.78 8a35.38 35.38 0 0 0-.4 14.29c2.43 6.6 7.23 10.83 12.67 14.42 3.36-4.85 8.58-8.13 14.73-10.4a115.85 115.85 0 0 0 15.06-.25 21.73 21.73 0 0 1 9.16 5.26c3-3.51 4.34-7.94 4.59-12.94Z" style="stroke:#491500;stroke-width:2.83px;fill:none;stroke-linecap:round;stroke-linejoin:round"/><path class="cls-5" d="M280.43 159.05c0-.35-.07-.7-.1-1.05a39.13 39.13 0 0 0-1.18-5.63c-2-4.83-3.59-9.72-6-14.55a18.06 18.06 0 0 1 .12-6.68 18 18 0 0 0 .82-5.93 16.15 16.15 0 0 0-2.25-5.08h-10.17a48.28 48.28 0 0 0-6.76 2.9c-3.36-1.68-6.56-3.46-13.41-3.66a49.08 49.08 0 0 0-9.54 1.65 59.23 59.23 0 0 0-3.48 10.07c-.3 2.47-.71 5-1.06 6.81a9.62 9.62 0 0 1-1.1 2.93l-1.78 8a35.38 35.38 0 0 0-.4 14.29c2.43 6.6 7.23 10.83 12.67 14.42 3.36-4.85 8.58-8.13 14.73-10.4a115.85 115.85 0 0 0 15.06-.25 21.73 21.73 0 0 1 9.16 5.26c3-3.51 4.34-7.94 4.59-12.94Z"/><path d="m209.46 157-.06.17c-6.53 16.94-17.69 32.93-28.51 47.66 21.31-4.28 44.64-5.88 69.83-5.63 5 8.52 9.24 16.16 14.2 24.68 2.69-8.09 4.51-16.17 7.21-24.26a182.54 182.54 0 0 1 28 3.54Q292.84 191 286 178.4c-1.45 3.5-3.62 7.26-4.89 8.11-3.75 2.07-8 2.7-12 4a84.29 84.29 0 0 1-31.14.27c-8.52-1-14.47-3.6-17.12-10.11-2.13-6.89-3.94-12.66-3.5-21.16.25-1.47.11-3.19.36-4.66-1.06-.62-1.4-1-2.46-1.62-3.17-.99-4.25 1.25-5.79 3.77Z" style="stroke:#773700;stroke-width:2.83px;fill:none;stroke-linecap:round;stroke-linejoin:round"/><path class="cls-5" d="m209.46 157-.06.17c-6.53 16.94-17.69 32.93-28.51 47.66 21.31-4.28 44.64-5.88 69.83-5.63 5 8.52 9.24 16.16 14.2 24.68 2.69-8.09 4.51-16.17 7.21-24.26a182.54 182.54 0 0 1 28 3.54Q292.84 191 286 178.4c-1.45 3.5-3.62 7.26-4.89 8.11-3.75 2.07-8 2.7-12 4a84.29 84.29 0 0 1-31.14.27c-8.52-1-14.47-3.6-17.12-10.11-2.13-6.89-3.94-12.66-3.5-21.16.25-1.47.11-3.19.36-4.66-1.06-.62-1.4-1-2.46-1.62-3.22-1-4.26 1.21-5.84 3.72"/><path class="cls-7" d="M233.3 119c-2.22.75-6.07 15.82-6.2 17.93q-1.28 5.79-2.56 11.59a35.38 35.38 0 0 0-.4 14.29c2.43 6.6 7.23 10.83 12.67 14.42 3.36-4.85 8.58-8.13 14.73-10.4a115.85 115.85 0 0 0 15.06-.25 21.73 21.73 0 0 1 9.16 5.26c3-3.51 4.34-7.94 4.59-12.94 2.47 5.25 4.53 10.19 7 15.45-.76 3.87-4.41 11-6.21 12.18-3.75 2.07-8 2.7-12 4a84.29 84.29 0 0 1-31.14.27c-8.52-1-14.47-3.6-17.12-10.11-2.13-6.89-3.94-12.66-3.5-21.16.25-1.47.11-3.19.36-4.66-1.06-.62-1.4-1-2.46-1.62-3.23-1-4.27 1.23-5.85 3.75-3.95-3.87-7.95-6.26-9.71-11.22 9.46-5.14 11.35-7.74 13.75-17.25 5.54-4.87 12.78-7.31 19.81-9.57"/>
    <path class="cls-7" d="m248.69 163.67 2.48 1.59 5.62.21c2.8 0 5.53-.11 8.33-.29l.77-.81.89-2-1.27.38-1.4 1-8.88.44-3.37.26-2.41-1.27Z"/>
        <path class="cls-1" d="M264.92 223.87c-5-8.52-9.24-16.16-14.2-24.68-33.63-.33-63.93 2.63-90.55 10.87-5.94 2.41-5.71 5.13-4.56 7.34 1.07 1.62 1.18 3.33 2.26 4.95-5.29 1.51-9.59 2.92-14.88 4.43-17.63-2.17-30.53-2.84-53.36 13.58-32.82 23.39-38.91 42.95-46.57 62.74-3.33 14.1-3.75 21-3.88 31.45-6.68 6.28-5.34 18.55-.25 23.41 3.21 2.17 9.91.66 11.91-1.74C81 363.45 95 371.88 125.21 379.1c5.82 11.65 12.42 27 18.24 38.63 6.15 11.66 8.74 6.22 9.51 10.88 1.5 9.13-3.82 20.8-2.33 29.93-1.61 4.1-4.4 10.15-6 14.24-3.77 16.71-5.42 30.36-10.25 47 2.26.75 3.46-.38 5.73.38-1.46 3.55-1.78 6.39 1.29 7.11l35.25.65c16.39.78 46 4.53 62.41 6.79 23.52 3 40.13 2 64.22-1.29 11.4-1.11 19.74-1.86 31.68-9-.21-1.83-1.06-5.36-1.28-7.19l4.2.32c-3.28-17.29-7.79-31.37-8.8-50.37-1.08-1.62-2.15-3.24-3.23-4.85 4.85-17.25-1.84-25.89 4.34-41.37 1.62-.64-4.64-4.64-3-5.31-17.87-1.55-28.46-7.28-41.35-18.17-7.91 2.37-11.54 2.13-10-1.28l-.09-1.17c4-2.58 10.27-6.18 12-20.54.65-5.54-2.63-12.83-4.91-16.16-.08-.12.08 0 0-.1 2.28-2.56 5.44-1.85 8.24-.38 17.86-5.42 34.83-10.83 53.15-19.61.67-.32 2.29-2.47 3-2.75 1.74-.71 3.88-.73 4.1-1.25a5.87 5.87 0 0 1 2.66-2.32l3-15.57c30.58-3.43 62.72 12.52 78 39.05a7.52 7.52 0 0 1 .9 3.82l1.47-3.37c.92-36.95-7.62-72.52-41.39-104.46-16.29-12.87-34.29-22.74-57.25-23.94a37.93 37.93 0 0 0-14.88-7.45c-1-.44-1.65-.15-1.55-1.58.43-1.3 1.84-3.66 2.27-4.95.36-1.84-1.61-4.12-5.93-5.44a180 180 0 0 0-46.5-8.41c-2.7 8.08-4.52 16.16-7.21 24.25Z"/><path class="cls-8" d="M264.92 223.87c-5-8.52-9.24-16.16-14.2-24.68-33.63-.33-63.93 2.63-90.55 10.87-5.94 2.41-5.71 5.13-4.56 7.34 1.07 1.62 1.18 3.33 2.26 4.95-5.29 1.51-9.59 2.92-14.88 4.43-17.63-2.17-30.53-2.84-53.36 13.58-32.82 23.39-38.91 42.95-46.57 62.74-3.33 14.1-3.75 21-3.88 31.45-6.68 6.28-5.34 18.55-.25 23.41 3.21 2.17 9.91.66 11.91-1.74C81 363.45 95 371.88 125.21 379.1c5.82 11.65 12.42 27 18.24 38.63 6.15 11.66 8.74 6.22 9.51 10.88 1.5 9.13-3.82 20.8-2.33 29.93-1.61 4.1-4.4 10.15-6 14.24-3.77 16.71-5.42 30.36-10.25 47 2.26.75 3.46-.38 5.73.38-1.46 3.55-1.78 6.39 1.29 7.11l35.25.65c16.39.78 46 4.53 62.41 6.79 23.52 3 40.13 2 64.22-1.29 11.4-1.11 19.74-1.86 31.68-9-.21-1.83-1.06-5.36-1.28-7.19l4.2.32c-3.28-17.29-7.79-31.37-8.8-50.37-1.08-1.62-2.15-3.24-3.23-4.85 4.85-17.25-1.84-25.89 4.34-41.37 1.62-.64-4.64-4.64-3-5.31-17.87-1.55-28.46-7.28-41.35-18.17-7.91 2.37-11.54 2.13-10-1.28l-.09-1.17c4-2.58 10.27-6.18 12-20.54.65-5.54-2.63-12.83-4.91-16.16-.08-.12.08 0 0-.1 2.28-2.56 5.44-1.85 8.24-.38 17.86-5.42 34.83-10.83 53.15-19.61.67-.32 2.29-2.47 3-2.75 1.74-.71 3.88-.73 4.1-1.25a5.87 5.87 0 0 1 2.66-2.32l3-15.57c30.58-3.43 62.72 12.52 78 39.05a7.52 7.52 0 0 1 .9 3.82l1.47-3.37c.92-36.95-7.62-72.52-41.39-104.46-16.29-12.87-34.29-22.74-57.25-23.94a37.93 37.93 0 0 0-14.88-7.45c-1-.44-1.65-.15-1.55-1.58.43-1.3 1.84-3.66 2.27-4.95.36-1.84-1.61-4.12-5.93-5.44a180 180 0 0 0-46.5-8.41c-2.7 8.09-4.52 16.17-7.21 24.26"/><path class="cls-9" d="M219.69 176.72c2.51 3.42 5.56 6.51 12.54 5.94l19-5.57c8.6-3 16.27-1.35 24.92-.63 4.36.24 7.71-.37 11.09-2.42l.14.29c-.76 3.87-4.41 11-6.21 12.18-3.75 2.07-8 2.7-12 4a84.29 84.29 0 0 1-31.14.27c-8.52-1-14.47-3.6-17.12-10.11-.42-1.36-.83-2.68-1.21-4"/><path class="cls-10" d="M158.07 223a.71.71 0 1 1-.4-1.36 206.83 206.83 0 0 1 22.82-5.37c7.58-1.37 15.11-2.38 22.62-3.24a.71.71 0 1 1 .15 1.41c-7.5.85-15 1.86-22.52 3.21a208.67 208.67 0 0 0-22.67 5.35"/><path class="cls-1" d="M153.84 326.16h-.08ZM118.56 403c31.23 6.14 63.09 2 92.43-6.35-14.81-7.94-11.81-34.61-5.4-42-18.62-6.23-27-11.69-38.18-18.87-4.34-2.82-8.84-6.38-13.51-9.62 1.36-.67-1.76-2.86-3.44-2.45-22.12 6.58-33.46 18.9-41.46 31.69-6 9.61-7.49 23.28-5.53 30.83s4.08 10.6 8.27 15.28c2.23 2.08 6.55 2.24 7.06 1.73Z"/><path class="cls-2" d="M153.84 326.16h-.08ZM118.56 403c31.23 6.14 63.09 2 92.43-6.35-14.81-7.94-11.81-34.61-5.4-42-18.62-6.23-27-11.69-38.18-18.87-4.34-2.82-8.84-6.38-13.51-9.62 1.36-.67-1.76-2.86-3.44-2.45-22.12 6.58-33.46 18.9-41.46 31.69-6 9.61-7.49 23.28-5.53 30.83s4.08 10.6 8.27 15.28c2.23 2.08 6.55 2.24 7.06 1.73Z"/><path class="cls-1" d="M42.11 331.41c5.74 35.13 28.18 56 69.56 70-4.13-4.63-6.23-7.68-8.18-15.18S103 365 109 355.4c8-12.75 19.27-25 41.28-31.66a53.11 53.11 0 0 0-8.38-4.42c4.13-7.06 4.76-7.58 5.46-14.7-35.55-6.23-79.76-4.75-105.25 26.79Z"/><path class="cls-11" d="M42.11 331.41c5.74 35.13 28.18 56 69.56 70-4.13-4.63-6.23-7.68-8.18-15.18S103 365 109 355.4c8-12.75 19.27-25 41.28-31.66a53.11 53.11 0 0 0-8.38-4.42c4.13-7.06 4.76-7.58 5.46-14.7-35.57-6.23-79.78-4.75-105.27 26.79"/><path class="cls-10" d="M142.93 318a.71.71 0 0 1-.34 1.38c-1.79-.45-3.56-.93-5.34-1.4-11.57-3.09-23.14-6.18-33.83-1.73a.71.71 0 1 1-.55-1.31c11.15-4.63 22.95-1.48 34.75 1.67 1.78.48 3.55.95 5.31 1.39"/><path class="cls-1" d="M42.15 331.36c-2 2.34-4 4.2-5.64 7.13-2.58 4.84-3.06 14.62 1.39 18.56 3.81 3.37 9 2.22 12.63 0a81.27 81.27 0 0 1-8.42-25.6v-.05Z"/><path d="M42.15 331.36c-2 2.34-4 4.2-5.64 7.13-2.58 4.84-3.06 14.62 1.39 18.56 3.81 3.37 9 2.22 12.63 0a81.27 81.27 0 0 1-8.42-25.6v-.05Z" style="fill:#795f55;fill-rule:evenodd"/><path class="cls-13" d="M42.11 331.41Zm.06.36c-3.63 2.7-6.45 13.17-.69 15.74a10.06 10.06 0 0 0 5.24 1.19 85.89 85.89 0 0 1-4.55-16.93Z"/><path class="cls-14" d="M75.52 308c-8.52 6-14.79 12.53-14.48 20.32.45 10.93 8.3 18.21 17.08 23.95 7.76 5.06 17.27 9.82 26.21 14.24a44.68 44.68 0 0 0-1.23 17.83v.79l.06.27v.05c0 .1 0 .21.07.32 0 .11.06.23.08.34l.1.35.09.34.09.33.09.32.09.32.09.3.09.3.08.29.09.28.08.28.09.27.09.27.08.26.09.25.09.25.09.24.09.24.09.22.08.2v.06l.09.22.08.21.09.21.08.18v.06l.09.2.08.16v.06l.09.19.09.19.11.21.11.21.1.18.11.2.11.2.1.16v.06l.09.16v.05l.09.14v.08l.22.35v.06c.07.12.15.24.23.36l.12.18.11.16v.06l.09.14.11.17.12.17.11.16c.09.12.18.25.28.37.29.39.6.78.93 1.18l.06.08.11.12.06.08.1.12.16.19.68.79.08.09.1.12.08.09.11.12.08.09.11.12.08.1.11.12c-41.38-14-63.82-34.87-69.56-70 .77-1 1.56-1.88 2.37-2.78l.57-.63.05-.06.33-.35v-.06a75.74 75.74 0 0 1 30-19.49"/><path class="cls-10" d="M153.63 307.75c-.82-1.2-2.55-2.54-5.43-4a45.31 45.31 0 0 1-.86 5.87 22.48 22.48 0 0 1-1.24 3.77 17.21 17.21 0 0 0 6.77-2.4 2.83 2.83 0 0 0 1.19-1.53 2.08 2.08 0 0 0-.46-1.67"/><path class="cls-10" d="M159.68 274.74a.72.72 0 0 1 .83-.56.7.7 0 0 1 .56.83l-5.14 26.4-1.05 8.11a.71.71 0 0 1-.8.61.7.7 0 0 1-.6-.79l1.05-8.12a.19.19 0 0 0 0-.08Z"/><path class="cls-15" d="M143 417.92c1 .35 1.83 1.14 3.39 1 41-13.26 143-17.89 183.58-1.32a62.94 62.94 0 0 1 .16 7.34c-.5 7-2.31 12.25-2.63 17.5-.41 6.5 1.18 13 .24 17.11-.39 1.71-.7 1.8-2.59 2.84-39.39-14.34-85-15.29-134.27-8.43l-42.08 7.11c-6.13-10.57-.79-15.26-4-27.4-1.21-4.67-4.43-11.33-1.8-15.75Z"/><path d="M143 417.92c1 .35 1.83 1.14 3.39 1 41-13.26 143-17.89 183.58-1.32a62.94 62.94 0 0 1 .16 7.34c-.5 7-2.3 12.25-2.63 17.5-.41 6.5 1.18 13 .24 17.11-.39 1.71-.7 1.8-2.59 2.84-39.39-14.34-85-15.29-134.27-8.43l-42.08 7.11c-6.13-10.57-.79-15.26-4-27.4-1.19-4.69-4.41-11.32-1.78-15.74" style="fill:#4e2d19;fill-rule:evenodd"/><path class="cls-15" d="M229.8 407.7c19.9-2.54 39.37-1.43 59.06 1.35a2.53 2.53 0 0 1 2.28 2.17c1.92 14 1.28 24.59-.59 38.64a2.25 2.25 0 0 1-2.28 2.17c-9.5-1.2-16.91-2-25.54-2.64-10.54-.72-21.72 0-32.6 0a2.16 2.16 0 0 1-2.28-2.17 149.65 149.65 0 0 0-.33-37.35c-.15-1.19 1.03-2.01 2.28-2.17Zm-4.55-4.06c22.91-3 45.32-1.7 68 1.62a3 3 0 0 1 2.63 2.58c2.21 16.7 1.48 29.22-.68 45.93-.18 1.4-1.19 2.76-2.63 2.58-10.93-1.43-19.45-2.44-29.39-3.14-12.14-.85-25 0-37.53 0a2.53 2.53 0 0 1-2.62-2.58 182.89 182.89 0 0 0-.39-44.42c-.18-1.4 1.18-2.38 2.61-2.57Z"/><path class="cls-17" d="M229.8 407.7c19.9-2.54 39.37-1.43 59.06 1.35a2.53 2.53 0 0 1 2.28 2.17c1.92 14 1.28 24.59-.59 38.64a2.25 2.25 0 0 1-2.28 2.17c-9.5-1.2-16.91-2-25.54-2.64-10.54-.72-21.71 0-32.6 0a2.16 2.16 0 0 1-2.28-2.17 149.65 149.65 0 0 0-.33-37.35c-.15-1.19 1-2 2.28-2.17m-4.55-4.06c22.91-3 45.32-1.7 68 1.62a3 3 0 0 1 2.63 2.58c2.21 16.7 1.48 29.22-.68 45.93-.18 1.4-1.19 2.76-2.63 2.58-10.93-1.43-19.45-2.44-29.39-3.14-12.14-.85-25 0-37.53 0a2.53 2.53 0 0 1-2.62-2.58 182.89 182.89 0 0 0-.39-44.42c-.18-1.4 1.18-2.38 2.61-2.57Z"/><path d="M245.88 424.53a4.18 4.18 0 1 1-4.24 4.18 4.21 4.21 0 0 1 4.24-4.18Z" style="stroke-width:2.83px;stroke:#1a1a18;fill:none;stroke-linecap:round;stroke-linejoin:round"/><path class="cls-9" d="M245.88 424.53a4.18 4.18 0 1 1-4.24 4.18 4.21 4.21 0 0 1 4.24-4.18"/><path class="cls-3" d="M104.35 366.47a7.33 7.33 0 0 0 4.63 2.12c25 4.05 52.71 5.68 86.34 3.73a6.62 6.62 0 0 1 5.09-1.29c-.66 9.87 1.9 21 10.58 25.61-29.34 8.33-61.2 12.49-92.43 6.35l.26.25c-.51.51-4.83.35-7.06-1.73-4.19-4.68-6.31-7.73-8.27-15.28-1.27-4.93-1.09-12.45.86-19.76"/><path class="cls-19" d="M145.72 229.25c11.27 10.78 13.69 26 12.91 45-2.1 11.67-4.71 19.85-5.73 31.9-4.63-5.31-10.37-4.16-17.58-5.19 7.84-29.23 14.6-53.06 10.4-71.7"/><path class="cls-20" d="m283.79 187.25 2.34 11.66c4.29.56 8.13 1.71 12.34 2.57h.33c-4.87-8.08-7.56-12.69-12.09-21.12a18.79 18.79 0 0 1-3 6.82"/><path class="cls-1" d="M269 327.9c-6.07 1.52-8.71 6.51-7.67 12.37a31.53 31.53 0 0 0-.52 7.15l-3.49 4.88-7.14 4.7c-5.64.23 1.36.11-4.14.76-6-.84-11-1.24-15.93-.59-2.09-.35-3.76-1.19-6.27-1.05-6.79.87-10.13 2.7-11.51 5.06-1.11 2.6-.5 5.16 1.19 6.45 2.27.18 4.88.07 7.15.24 2.15.64 3.81.86 6 1.5-1.44.47-2.94.72-4.37 1.19-4-.46-5.63-.9-9.36.56-2.64 1.07-3.53 2.68-3.74 4.5-.35 2-.06 3.64 1.46 4.51l6.37.33a16.72 16.72 0 0 0-3.94 3c-1.9 2.06-1.82 5.17-.41 6.46 1.12 1 2.9.47 6.29.3l1.82.33c-.64.82-1.22 1.22-1.86 2-2.62 3.28-2.44 2.73-.39 6.22a6.46 6.46 0 0 0 4.61 0l2.36-.43c5.28.5 7.13.94 12.35-.11 9.39.25 27-.24 36.38-2.25 3.74-2.82 11.54-5.24 13.46-21.57.65-5.54-2.83-12.7-4.91-16.16-1-1.65-2.7-1.87-2.82-2.12-.36-.77-.8-2.73-1.52-4.27.14-3.36-1.21-5.23-2.57-7.08l-.54-6.34a42.47 42.47 0 0 0 .55-4.9c.68-.9 1.85-1.86 2.45-2.83.86-4.42-3.34-4.59-9.34-2.81Z"/><path class="cls-5" d="M269 327.9c-6.07 1.52-8.71 6.51-7.67 12.37a31.53 31.53 0 0 0-.52 7.15l-3.49 4.88-7.14 4.7c-5.64.23 1.36.11-4.14.76-6-.84-11-1.24-15.93-.59-2.09-.35-3.76-1.19-6.27-1.05-6.79.87-10.13 2.7-11.51 5.06-1.11 2.6-.5 5.16 1.19 6.45 2.27.18 4.88.07 7.15.24 2.15.64 3.81.86 6 1.5-1.44.47-2.94.72-4.37 1.19-4-.46-5.63-.9-9.36.56-2.64 1.07-3.53 2.68-3.74 4.5-.35 2-.06 3.64 1.46 4.51l6.37.33a16.72 16.72 0 0 0-3.94 3c-1.9 2.06-1.82 5.17-.41 6.46 1.12 1 2.9.47 6.29.3l1.82.33c-.64.82-1.22 1.22-1.86 2-2.62 3.28-2.44 2.73-.39 6.22a6.46 6.46 0 0 0 4.61 0l2.36-.43c5.28.5 7.13.94 12.35-.11 9.39.25 27-.24 36.38-2.25 3.74-2.82 11.54-5.24 13.46-21.57.65-5.54-2.83-12.7-4.91-16.16-1-1.65-2.7-1.87-2.82-2.12-.36-.77-.8-2.73-1.52-4.27.14-3.36-1.21-5.23-2.57-7.08l-.54-6.34a42.47 42.47 0 0 0 .55-4.9c.68-.9 1.85-1.86 2.45-2.83.9-4.47-3.28-4.64-9.3-2.86"/><path class="cls-1" d="m210.94 396.66 6.75.82c-1.23-2.07-1-2.1 1.2-4.88.64-.82 1.22-1.22 1.86-2l-1.82-.33c-3.39.17-5.17.71-6.29-.3-1.41-1.29-1.49-4.4.41-6.46a16.72 16.72 0 0 1 3.94-3l-6.37-.33c-1.52-.87-1.81-2.51-1.46-4.51.21-1.82 1.1-3.43 3.74-4.5 3.73-1.46 5.31-1 9.36-.56 1.43-.47 2.93-.72 4.37-1.19-2.15-.64-3.81-.86-6-1.5-2.27-.17-4.88-.06-7.15-.24-1.69-1.29-2.3-3.85-1.19-6.45 1.38-2.36 4.72-4.19 11.51-5.06 2.51-.14 4.18.7 6.27 1.05-1.14-2.42-.7-2.53 1.53-7.57-3.52 0-7.24 2.71-10.75 2.68l-12.8 2.59-2.5-.25c-6.41 7.4-9.41 34.07 5.4 42Z"/><path class="cls-5" d="m210.94 396.66 6.75.82c-1.23-2.07-1-2.1 1.2-4.88.64-.82 1.22-1.22 1.86-2l-1.82-.33c-3.39.17-5.17.71-6.29-.3-1.41-1.29-1.49-4.4.41-6.46a16.72 16.72 0 0 1 3.94-3l-6.37-.33c-1.52-.87-1.81-2.51-1.46-4.51.21-1.82 1.1-3.43 3.74-4.5 3.73-1.46 5.31-1 9.36-.56 1.43-.47 2.93-.72 4.37-1.19-2.15-.64-3.81-.86-6-1.5-2.27-.17-4.88-.06-7.15-.24-1.69-1.29-2.3-3.85-1.19-6.45 1.38-2.36 4.72-4.19 11.51-5.06 2.51-.14 4.18.7 6.27 1.05-1.14-2.42-.7-2.53 1.53-7.57-3.52 0-7.24 2.71-10.75 2.68l-12.8 2.59-2.5-.25c-6.41 7.4-9.41 34.07 5.4 42Z"/><path class="cls-19" d="M294.69 202.11c1.42 4.32 4.66 8.44 4.26 13 16.26 22 27.91 42.26 31.78 68.56-.43 9.47-7.61 11.82-17.35 10.13-60.25-8.81-78.45-1.19-96.76 3.11-1 .23-3.08 2.16-.71 1.94 33.4-3.13 72.56-3.24 102 3.9 2.67 1.58 6.74 2.42 6.8 5 .37 16.51 2.17 29.29-.82 39.17 6.63-2.53 13.32-5.35 20.21-8.65.67-.32 2.29-2.47 3-2.75 1.63-.66 3.6-.73 4-1.15l-.13-.09c-2.51-1.66-4.05-5.3-3.7-10.13.07-1 3.72-6.92 8.74-7.66l.84-.11H372.93c13.24 2.51 43.74 6.68 62.48 39.24.28.49.22 1.95.5 2.45h.29l.47-1.06.49-1.14c.92-36.95-7.62-72.52-41.39-104.46-16.29-12.87-34.29-22.74-57.25-23.94a37.93 37.93 0 0 0-14.68-7.47c-1-.44-1.65-.15-1.55-1.58.43-1.3 1.84-3.66 2.27-4.95.36-1.84-1.61-4.12-5.93-5.44a174.79 174.79 0 0 0-23.94-5.91"/><path class="cls-20" d="M267.28 129c-.12 0-.4.73-.55.8-.18 3.4.47 4.56.29 8 4.33 14.84 7.09 14.43 3 28.16a14.41 14.41 0 0 1 5.34 3.48 19 19 0 0 0 1.64-17.23c-2-4.83-3.23-9-5.66-13.87a35.17 35.17 0 0 1 .86-10.11c-1.29.24-1.36-.92-4.93.73"/><path class="cls-9" d="M271.35 119.59a14.37 14.37 0 0 1 2.71 5.62 18 18 0 0 1-.82 5.93 18.06 18.06 0 0 0-.12 6.68c2.46 4.87 4 9.81 6.09 14.69l1.27-1.51c.38-1.58 2.18-2.43 3.1-3.82 2.52-2.2 2.84-3.19-.33-6.09-1.79-2-3.59-4.56-5.38-6.57-.34-2.47-1.06-4.81-1.4-7.27-.89-2.53-1.85-6.44-2.3-7.7s-3.33-.13-2.82 0"/><path class="cls-7" d="M236.26 151.45c1.65 1.36 3.26 1.66 5.88 1.61s6.35-1.18 8.74-1.61a31.89 31.89 0 0 1 5.72-1 67.3 67.3 0 0 1 9.84.16c3.28.36 5.79.27 7.75-1.15a7 7 0 0 1-5 6.77c-3.66.29-6.86-.47-10.62-.21s-8.65 1.31-11.66 1.61-3.73.7-6.34.21-3.93-3.55-4.32-6.4"/><path class="cls-7" d="M245.14 157.86a4.57 4.57 0 0 0 1.33 3.68 14.06 14.06 0 0 0 4.16.32c5.09-.35 10.13-.91 15.27-.89a2.48 2.48 0 0 0 1.17-2.29 10.59 10.59 0 0 0-.15-2.38c-2.77-.05-5.38-.48-8.34-.27-3.75.26-8.65 1.31-11.66 1.61-.7.07-1.27.15-1.78.22M256.4 131.46c.9 3.11 1.77 5.95 4.37 9.06.71 1.07 2 1.79 2.44 3.23.44 1.71 0 3.38.21 5l-1.09-.73-1.56 1.15-.47-.52c.82-.93 2.61-2.33 1.35-5s-4.48-5-5.93-11.81l.68-.32M249.89 145.46a8.18 8.18 0 0 0-2.45 3.28c-.31 1 .09 1 .48 1.46.33.23.72-.06 1-.27 0-.71-.3-1.1.13-1.81s1-1.55 1.55-2.38a.51.51 0 0 0-.67-.28M253.78 147.85c-.47-.53-1.61 0-2.26.24a3 3 0 0 0-1.48 1.12c-.21.4-.09.73.49.82a4 4 0 0 0 2.43-.35c.62-.42 1.29-1.31.82-1.83"/><path class="cls-21" d="M246.7 157.6a3.39 3.39 0 0 0 1.21 2.7 7.26 7.26 0 0 0 3.35.42A114.12 114.12 0 0 1 265 160c.81-.38.85-1.16.89-1.89a7.63 7.63 0 0 0-.12-1.84 56.17 56.17 0 0 0-7.26-.24c-3.12.21-9.16 1.31-10.78 1.47s-.7.08-1 .11"/><path class="cls-9" d="M200.76 145.24c4.82-1 8.93-3 14.2-3.39a17.69 17.69 0 0 0 .61 1.87 3.77 3.77 0 0 0 .28.57 2.23 2.23 0 0 0-1 2.28 8.74 8.74 0 0 0 1.49 5.26l-.93 1.51-.12-.07c-3.23-1-4.27 1.23-5.85 3.75-3.95-3.87-7.95-6.26-9.71-11.22l1-.56"/><path class="cls-7" d="M277.06 134.74c.58.42 1.76 7.77 1.05 7.77s-2-1.82-3-2.74a16.48 16.48 0 0 0 2.18 4.36c3 .25 5.41-1 5.2-2.23a86.67 86.67 0 0 0-5.41-7.16"/><path class="cls-19" d="M162.84 269c-1.73 19.07 5.19 30.53 15 36.54 4.93 1 19-4.43 23.88-6.84-8.79 2-20.27 1.74-27-3.66-7.47-6-10.31-23.71-11.89-26"/><path class="cls-10" d="M162.81 271.66a.71.71 0 0 1 .63-.77.72.72 0 0 1 .78.63c.79 7.87 2 14.65 4.25 20.19s5.33 9.65 10 12.51a16.65 16.65 0 0 0 7.75-.69 48.88 48.88 0 0 0 7.83-3.29.71.71 0 0 1 .95.32.7.7 0 0 1-.32.94 48.94 48.94 0 0 1-8.06 3.38 17.72 17.72 0 0 1-8.52.71.62.62 0 0 1-.26-.09c-5-3-8.35-7.52-10.66-13.26s-3.55-12.59-4.35-20.58M346.19 280a.71.71 0 0 1 1.17-.79 42.35 42.35 0 0 1 3.55 6.55 43.2 43.2 0 0 1 2.47 7.11 1 1 0 0 1 0 .17 22.16 22.16 0 0 1-.29 3.89 13.83 13.83 0 0 1-1.3 4 .75.75 0 0 1-.15.2 15.54 15.54 0 0 1-3.63 3 6.94 6.94 0 0 1-4.52.87h-.05l-10.54-1.72a.71.71 0 0 1 .23-1.4l10.54 1.73a5.62 5.62 0 0 0 3.63-.71 13.89 13.89 0 0 0 3.24-2.67 12.47 12.47 0 0 0 1.13-3.49 22.8 22.8 0 0 0 .27-3.58 42.91 42.91 0 0 0-2.37-6.79 41.12 41.12 0 0 0-3.43-6.33M276.78 331.36a.71.71 0 0 1 1-.27.72.72 0 0 1 .27 1 7.18 7.18 0 0 1-3.35 3 10.12 10.12 0 0 1-5 .8.71.71 0 0 1 .14-1.41 8.63 8.63 0 0 0 4.24-.68 5.78 5.78 0 0 0 2.7-2.42"/><path class="cls-1" d="M351.23 334.21a5.87 5.87 0 0 1 2.66-2.32l3-15.57c30.58-3.43 62.72 12.52 78 39.05 6.14 10.68-20.78 38.63-27.63 45.26 1.72-19-3.87-35.53-13.58-46.11-14.47-15.79-36.36-20.74-42.45-20.31Z"/><path class="cls-11" d="M351.23 334.21a5.87 5.87 0 0 1 2.66-2.32l3-15.57c30.58-3.43 62.72 12.52 78 39.05 6.14 10.68-20.78 38.63-27.63 45.26 1.72-19-3.87-35.53-13.58-46.11-14.5-15.79-36.39-20.74-42.48-20.31"/><path class="cls-10" d="M347.4 336.12a7 7 0 0 0-1.23 1.16c19.24 1.9 33.91 8.72 43.53 19.75 9.83 11.27 14.34 26.91 13 46.1a2.78 2.78 0 0 0 2.11.08c.72-.34 1.33-1.18 1.8-2.72a68.22 68.22 0 0 0-2.31-25.27A51.06 51.06 0 0 0 393.19 355a63 63 0 0 0-19.27-13.95c-9.89-4.73-19.06-6.39-22.64-6.13a9.18 9.18 0 0 0-1.61.39c-.67.21-1.47.48-2.27.81m-3.23 1.19c.26-.24.57-.57.89-.91a7 7 0 0 1 1.81-1.59c.81-.33 1.66-.63 2.39-.85a11.92 11.92 0 0 1 1.93-.46c3.72-.26 13.21 1.43 23.34 6.28a64.31 64.31 0 0 1 19.7 14.22 52.67 52.67 0 0 1 11.42 20.78 69.7 69.7 0 0 1 2.35 25.91v.14c-.59 2-1.48 3.15-2.58 3.66a4.38 4.38 0 0 1-3.73-.26.69.69 0 0 1-.41-.7c1.44-19-2.94-34.49-12.6-45.57s-24.49-17.75-44.08-19.4a.72.72 0 0 1-.64-.77.67.67 0 0 1 .21-.48Zm-57.63 19.89a4.06 4.06 0 0 0-2.92 1.13 34.64 34.64 0 0 1 3.76 8.26 20.2 20.2 0 0 1 1 8c-1.67 14.26-7.77 18.17-11.91 20.82l.06.74a.66.66 0 0 1-.05.34c-.5 1.11-.17 1.7.9 1.82 1.6.18 4.38-.34 8.22-1.49 4.4-8.46 6.74-14.56 7.38-20.3s-.41-11.17-2.8-18.3a8.85 8.85 0 0 0-3.64-1.02Zm-4.31.53a5.51 5.51 0 0 1 4.32-1.94 10.38 10.38 0 0 1 4.49 1.26.7.7 0 0 1 .36.4c2.52 7.46 3.64 13.13 3 19.18s-3.14 12.4-7.77 21.26a.71.71 0 0 1-.88.33c-3.89 1.15-6.76 1.66-8.51 1.46-2.28-.25-3-1.44-2.12-3.63l-.08-1a.72.72 0 0 1 .38-.68l.29-.19c3.92-2.5 9.69-6.19 11.29-19.81a18.87 18.87 0 0 0-1-7.37 32.49 32.49 0 0 0-3.86-8.3v-.05a.63.63 0 0 1 .07-.89Z"/><path class="cls-14" d="M404.12 325.66c10.8 5.49 22 14.47 30.8 29.71 6.14 10.68-20.78 38.63-27.63 45.26a68.65 68.65 0 0 0-2.46-26.09c9.94-9.59 21.64-22.86 17.41-29.47a71.12 71.12 0 0 0-18.12-19.41"/><path class="cls-1" d="m356.91 316.35-3.09 15.35a4.69 4.69 0 0 0-2.43 2.35c-2.26-1.51-4.69-3.27-3.91-9.55s9.35-8.2 9.43-8.15Z"/><path class="cls-13" d="m356.91 316.35-3.09 15.35a4.69 4.69 0 0 0-2.43 2.35c-2.26-1.51-4.69-3.27-3.91-9.55s9.35-8.2 9.43-8.15"/><path class="cls-10" d="M215.1 297.24a.71.71 0 1 1-.33-1.38c13.53-3.21 30.57-5.09 47.71-5.34 16.35-.25 32.79 1 46.38 3.94a.71.71 0 0 1-.26 1.39c-13.91-1.51-29-.93-43.32.58s-27.9 3.93-38.7 6.09a.71.71 0 0 1-.28-1.39c10.82-2.16 24.42-4.6 38.83-6.11a239.89 239.89 0 0 1 30.11-1.42 235.52 235.52 0 0 0-32.74-1.67c-17 .25-33.95 2.12-47.4 5.31"/><path class="cls-13" d="M141.36 485.3q-3.44 17.37-6.89 34.73a10.26 10.26 0 0 1 4.74-.17q1.08-17.28 2.15-34.56M331.55 482.8q3.4 17.37 6.8 34.73c-1.69-.39-3.28 0-4.29-.82-.71-11.52-1.8-22.39-2.51-33.91"/><path class="cls-22" d="M181.36 281.19a.71.71 0 1 1-1-1.05 15.6 15.6 0 0 1 5.14-3 85.75 85.75 0 0 0-2.87-10.43 32.91 32.91 0 0 0-5.45-9.84.7.7 0 0 1 .09-1 .71.71 0 0 1 1 .09 34.52 34.52 0 0 1 5.73 10.28 85.62 85.62 0 0 1 2.89 10.47 36.43 36.43 0 0 1 7.9-1.29.71.71 0 1 1 .08 1.41 34.49 34.49 0 0 0-7.81 1.3 15 15 0 0 0-5.71 3.06M196.18 269.09a.78.78 0 0 1-1 0 .57.57 0 0 1 0-.88 15.54 15.54 0 0 1 4.88-3 70.05 70.05 0 0 0-3.73-8.93 29 29 0 0 0-6.25-8.21.57.57 0 0 1 0-.88.77.77 0 0 1 1 0 29.88 29.88 0 0 1 6.52 8.56 67.42 67.42 0 0 1 3.75 8.95 40.56 40.56 0 0 1 7.77-1.7.7.7 0 0 1 .8.52.64.64 0 0 1-.6.71 38 38 0 0 0-7.67 1.7 15 15 0 0 0-5.44 3.1M203 290.59a.8.8 0 0 1-1 0 .59.59 0 0 1 .19-.88 21.73 21.73 0 0 1 5.66-3 56.19 56.19 0 0 0-1.4-8.93 20.63 20.63 0 0 0-4.1-8.21.62.62 0 0 1 .24-.88.76.76 0 0 1 1 0 21.26 21.26 0 0 1 4.29 8.55 57.12 57.12 0 0 1 1.41 9 47.6 47.6 0 0 1 8.21-1.7c.4-.05.7.18.67.52a.9.9 0 0 1-.78.71 44.64 44.64 0 0 0-8.13 1.7 20.7 20.7 0 0 0-6.24 3.1M65.06 288.23a.7.7 0 0 1 .86-.51.71.71 0 0 1 .51.86l-.55 2a36.14 36.14 0 0 0-1.75 9.8 13.79 13.79 0 0 1 5.19-1.38.7.7 0 0 1 .75.65.71.71 0 0 1-.65.76 12.47 12.47 0 0 0-5.33 1.59.73.73 0 0 1-.48.29 16.31 16.31 0 0 0-3.81 3.38.72.72 0 0 1-1 .08.71.71 0 0 1-.08-1 18.06 18.06 0 0 1 4-3.61c-.2-3.68.79-7.31 1.79-10.95.17-.64.35-1.29.54-2M57.21 281.68a.71.71 0 0 1 .87-.51.71.71 0 0 1 .5.86c-.16.63-.35 1.33-.54 2-.9 3.28-1.11 3.59-1.07 6.84 1.57-.78 1.3-.53 3.19-.66a.71.71 0 0 1 .76.65.71.71 0 0 1-.66.76c-2 .14-1.73 0-3.32.86a.68.68 0 0 1-.48.28 6.22 6.22 0 0 0-2.27 2.11.71.71 0 1 1-1.08-.91 7.25 7.25 0 0 1 2.52-2.34c-.21-3.68.1-4.35 1.09-8 .18-.64.36-1.29.54-2M174.29 484.72a.71.71 0 0 1 .75-.67.71.71 0 0 1 .66.75c-.1 1.64-.17 3.31-.18 5 0 1.33 0 2.66.1 4a42.68 42.68 0 0 1 4.91.19.71.71 0 0 1-.13 1.42 40.44 40.44 0 0 0-4.74-.2 17.25 17.25 0 0 0-4.35.64.71.71 0 1 1-.41-1.35 16.17 16.17 0 0 1 3.26-.61c-.07-1.32-.09-2.69-.09-4.06 0-1.71.08-3.41.18-5M166.41 497.84a.71.71 0 0 1 1.42.08c-.11 1.64-.55 5-.56 6.62 0 1.33 0 2.66.1 4a42.68 42.68 0 0 1 4.91.19.71.71 0 0 1-.13 1.41 40.39 40.39 0 0 0-4.74-.19 16.81 16.81 0 0 0-4.35.64.71.71 0 0 1-.41-1.36 17.7 17.7 0 0 1 3.26-.61c-.07-1.32-.09-2.68-.09-4.06 0-1.7.45-5 .55-6.69M184.11 497.54a.71.71 0 0 1 .75-.66.69.69 0 0 1 .66.74c-.1 1.64-.54 5-.54 6.62 0 1.33 0 2.66.09 4a32.24 32.24 0 0 1 4.38.19.71.71 0 1 1-.12 1.41 32.12 32.12 0 0 0-4.22-.19 11.51 11.51 0 0 0-3.6.41.7.7 0 0 1-.88-.47.71.71 0 0 1 .47-.88 10 10 0 0 1 2.52-.39c-.08-1.32-.1-2.68-.1-4.06 0-1.7.45-5.05.55-6.69"/><path class="cls-23" d="M407.62 312.58a.69.69 0 0 1 .77-.63.7.7 0 0 1 .63.77c-.07.67-.12 1.38-.18 2.09a32 32 0 0 1-1 6.41h.07a33.7 33.7 0 0 1 4.38 2.75.71.71 0 1 1-.83 1.15 31.55 31.55 0 0 0-4.19-2.64 13.34 13.34 0 0 0-4.5-1.4.72.72 0 0 1-.62-.79.71.71 0 0 1 .78-.62 13.52 13.52 0 0 1 3.6.93 32.12 32.12 0 0 0 .86-5.94c.05-.69.11-1.38.19-2.12M419.2 303.68a.7.7 0 1 1 1.35.4c-.09 3.39-.07 8.35-1.14 9.86l.06.05a32.19 32.19 0 0 1 3.8 3.51.71.71 0 0 1-1 1 31.06 31.06 0 0 0-3.64-3.37 13.22 13.22 0 0 0-4.16-2.21.72.72 0 0 1-.47-.92.71.71 0 0 1 .89-.46 13.66 13.66 0 0 1 3.37 1.57c.68-1.4.9-5.74 1-9.44M426.52 323.42a.71.71 0 0 1 1.36.39 22.38 22.38 0 0 1-2.76 9.5h.06a32.28 32.28 0 0 1 3.8 3.52.71.71 0 0 1 0 1 .7.7 0 0 1-1 0 31 31 0 0 0-3.64-3.36 13.24 13.24 0 0 0-4.16-2.22.71.71 0 0 1-.47-.88.72.72 0 0 1 .89-.47 14.06 14.06 0 0 1 3.37 1.58c.68-1.4 2.51-5.37 2.57-9.07"/><path class="cls-10" d="M353.39 332.4a.7.7 0 0 1-1-.21.71.71 0 0 1 .22-1 37 37 0 0 1 6.89-3.64 23.11 23.11 0 0 1 8.52-1.52.7.7 0 0 1 .7.7.71.71 0 0 1-.71.71 21.78 21.78 0 0 0-8 1.44 35.23 35.23 0 0 0-6.63 3.5"/><path class="cls-1" d="M263.16 277.78c-1.29 4.7-3.36 8.88-4.66 13.58.33 3.07 1.59 5.18 5 6.18 2.77 1.51 6.37.37 8.45-3q2.44-6.85 4.9-13.69c3.69 2.8 6.86 6.24 6.74 13.89-1.28 9.5-4.86 13.11-8.58 16.34l-6.94 4.5-15.16 39.62-2.73 1.8c-5.64.23 1.36.11-4.14.76-6-.84-11-1.24-15.93-.59h-.17l17.72-46.22c-2.18-6.13-3.49-12.44-.82-19.61 1.39-6.18 6.54-10.3 13.11-13.71 1.16.25 2.05-.12 3.21.15Z"/><path class="cls-24" d="M263.16 277.78c-1.29 4.7-3.36 8.88-4.66 13.58.33 3.07 1.59 5.18 5 6.18 2.77 1.51 6.37.37 8.45-3q2.44-6.85 4.9-13.69c3.69 2.8 6.86 6.24 6.74 13.89-1.28 9.5-4.86 13.11-8.58 16.34l-6.94 4.5-15.16 39.62-2.73 1.8c-5.64.23 1.36.11-4.14.76-6-.84-11-1.24-15.93-.59h-.17l17.72-46.22c-2.18-6.13-3.49-12.44-.82-19.61 1.39-6.18 6.54-10.3 13.11-13.71 1.16.27 2.06-.1 3.21.17"/><path class="cls-1" d="M237.07 356.89c5-13.91 10.91-30.55 14-37.14 4-8.57 10.43-7.18 8 2.07-1.79 6.91-7.73 22.44-12.83 35.92h-.25a88.6 88.6 0 0 0-8.92-.85Z"/><path class="cls-25" d="M237.07 356.89c5-13.91 10.91-30.55 14-37.14 4-8.57 10.43-7.18 8 2.07-1.79 6.91-7.73 22.44-12.83 35.92h-.25a88.6 88.6 0 0 0-9-.88"/><path class="cls-1" d="m191.74 474.74 4.91-14.44c7.24-8 18.71-.47 17.79 5.6l-3.48 12c.51 2.41 1.67 4.68 8.31-1.68 2.67-3.75 6.85-8 8.75-13.27 2.06-5.68 1.73-12.3 1.47-14.84-.66-2.68-3.78-6.59-4.44-9.27 6.35-15.54 8.52-25.43 14.54-40.52h-1.77c-5.22 1.05-7.07.61-12.35.11l-2.36.43a6.46 6.46 0 0 1-4.61 0l-.83-1.38c-4.4 11.43-8.2 22.09-13.19 34.29-10.45 2.11-13.15 9.38-16.11 16.44-3.22 5.44-1.54 17.51.91 24.5a3.19 3.19 0 0 0 2.46 2.03Z"/><path class="cls-24" d="m191.74 474.74 4.91-14.44c7.24-8 18.71-.47 17.79 5.6l-3.48 12c.51 2.41 1.67 4.68 8.31-1.68 2.67-3.75 6.85-8 8.75-13.27 2.06-5.68 1.73-12.3 1.47-14.84-.66-2.68-3.78-6.59-4.44-9.27 6.35-15.54 8.52-25.43 14.54-40.52h-1.77c-5.22 1.05-7.07.61-12.35.11l-2.36.43a6.46 6.46 0 0 1-4.61 0l-.83-1.38c-4.4 11.43-8.2 22.09-13.19 34.29-10.45 2.11-13.15 9.38-16.11 16.44-3.22 5.44-1.54 17.51.91 24.5a3.19 3.19 0 0 0 2.46 2.07"/><path class="cls-1" d="M224.28 398.61c-4.18 10.61-7.73 20.62-9.66 26.58-2.92 9 2.69 12.37 7.27 4 3.44-6.28 7.24-18.19 11.89-30.31a49.92 49.92 0 0 1-8.31-.48Z"/><path class="cls-25" d="M224.28 398.61c-4.18 10.61-7.73 20.62-9.66 26.58-2.92 9 2.69 12.37 7.27 4 3.44-6.28 7.24-18.19 11.89-30.31a49.92 49.92 0 0 1-8.31-.48Z"/><path class="cls-10" d="M124 336.68A72.39 72.39 0 0 1 150.26 323a4.92 4.92 0 0 1 3.72 1.16 3.15 3.15 0 0 1 .66.72 1.38 1.38 0 0 1 .24 1 1.25 1.25 0 0 1-.93 1l-.78.22a52.88 52.88 0 0 0-13.6 5.62 91.18 91.18 0 0 0-12.18 8.83 67 67 0 0 0-9.56 9.7 49 49 0 0 0-8.1 17c-1.62 6.25-1.89 12.34-.74 17a33.83 33.83 0 0 0 4 10.23 37.64 37.64 0 0 0 6.27 7.16v.05a.7.7 0 0 1 0 1c-.42.42-2.39.61-4.36.12a8.27 8.27 0 0 1-3.68-1.84 37.79 37.79 0 0 1-5-6.69 35.71 35.71 0 0 1-3.37-8.88c-1.07-4.11-1.14-10-.06-16a44.21 44.21 0 0 1 5.64-15.4A75.16 75.16 0 0 1 124 336.68Zm26.66-12.31a70.92 70.92 0 0 0-25.76 13.4 74.11 74.11 0 0 0-15.28 18 42.85 42.85 0 0 0-5.48 14.88c-1 5.84-1 11.48 0 15.4a34.6 34.6 0 0 0 3.22 8.55 37.63 37.63 0 0 0 4.85 6.4 6.94 6.94 0 0 0 3 1.49 12.19 12.19 0 0 0 2.08.33 34.53 34.53 0 0 1-5.56-6.54 34.89 34.89 0 0 1-4.15-10.64c-1.21-4.9-.93-11.24.74-17.72a50.45 50.45 0 0 1 8.34-17.54 67.94 67.94 0 0 1 9.77-9.92 92.44 92.44 0 0 1 12.38-9 54.11 54.11 0 0 1 14-5.76l.59-.17a1.79 1.79 0 0 0-.31-.3 3.48 3.48 0 0 0-2.43-.86ZM199.39 389.16c2.22 4 5.24 6.78 8.27 7.67l1.48-.4h.08a17.61 17.61 0 0 1-1.75-1.34c-5.25-4.54-7.5-11.89-7.83-19.22s1.27-14.59 3.68-19.1a16.3 16.3 0 0 1 1.1-1.77h-.11l-.78-.27c-2.33.95-4.17 3.29-5.46 6.6a39.38 39.38 0 0 0-2.18 14 28.78 28.78 0 0 0 3.5 13.93m8.08 9.09c-3.46-.94-6.86-4-9.3-8.4a30.23 30.23 0 0 1-3.69-14.62 40.86 40.86 0 0 1 2.28-14.47c1.49-3.8 3.68-6.47 6.52-7.51a.69.69 0 0 1 .51 0l1 .33 1 .36a.71.71 0 0 1 .45.89.72.72 0 0 1-.14.24 13.16 13.16 0 0 0-1.55 2.32c-2.31 4.31-3.82 11.34-3.51 18.38s2.42 14 7.34 18.21a15.69 15.69 0 0 0 2.93 2 .72.72 0 0 1 .29 1 .74.74 0 0 1-.44.34l-1.66.47-1.68.46a.67.67 0 0 1-.35-.1ZM322.79 218.77a.7.7 0 1 1-.39 1.35 122.29 122.29 0 0 0-13.06-3c-4.35-.77-8.68-1.34-13-1.82a.69.69 0 0 1-.62-.78.71.71 0 0 1 .78-.63c4.35.49 8.71 1.06 13.08 1.84a121.81 121.81 0 0 1 13.2 3.06"/><path class="cls-5" d="M215.85 144.29a2.23 2.23 0 0 0-1 2.28 8.24 8.24 0 0 0 3.28 7.07c.41-2.24.78-4.3 1.08-6.47a12.06 12.06 0 0 1-.92-1.35 3 3 0 0 1-2.45-1.53"/><path class="cls-7" d="M232.27 122.64c-.11 2.4-.59 4.32.4 5.53a52.65 52.65 0 0 1 5.6.23 29.15 29.15 0 0 1 3.31 1.33c3.61 1.06 5.69 2.21 8.79-.59.44-.84.41-2.2-.08-2.53a9.26 9.26 0 0 1-3-.07c-2.39-1.3-6.67-3.62-7.76-3.85a27.15 27.15 0 0 0-7.25 0M271.65 121.45c.7 2 1.54 4.32.76 5.53a31.3 31.3 0 0 0-4.43.38 23.63 23.63 0 0 0-2.6 1.45c-2.86 1.07-4.34 1.87-6.79-.93-.35-.84-.52-2.13-.13-2.45a6 6 0 0 0 2.38-.08 11 11 0 0 0 3.57-1.35c1.34-.88 2.27-1.93 2.77-2.18a9.19 9.19 0 0 1 4.47-.37"/><path class="cls-26" d="M244.83 138.64a.69.69 0 0 1-.63-.73m1.8-3.15a.68.68 0 0 1-.28.41m-7.55 2.24c2-.09 4.09-.17 6.09-.13.06-.81.15-1.68.29-2.48a4.1 4.1 0 0 0-.53-.48 3.63 3.63 0 0 0-.87-.47l-.31-.09c-1.7-.48-3.18-.9-4.65-.49a2.28 2.28 0 0 0-1.26 1.11 3 3 0 0 0-.12 1.5 4 4 0 0 0 1 1.31l.23.22Zm6.66 1.23c-2.11-.07-4.43 0-6.6.11h-.47a.69.69 0 0 1-.57-.24c-.12-.13-.26-.27-.41-.41a4.66 4.66 0 0 1-1.33-1.88.4.4 0 0 1 0-.15 4.1 4.1 0 0 1 .21-2.23 3.55 3.55 0 0 1 2-1.83.11.11 0 0 1 .08 0c1.9-.56 3.58-.08 5.52.47l.31.09h.1a5.24 5.24 0 0 1 1.22.66 4.9 4.9 0 0 1 1 1 .68.68 0 0 1 .12.53 25.39 25.39 0 0 0-.36 2.94v.32a.7.7 0 0 1-.76.62Z"/><path class="cls-21" d="M244.91 138c-2.26-.08-4.75 0-7 .13a5.8 5.8 0 0 1-1.58-2 2.75 2.75 0 0 1 1.79-3.33c1.75-.51 3.39 0 5.32.56a4.16 4.16 0 0 1 1.9 1.39 30.54 30.54 0 0 0-.39 3.28"/><path class="cls-7" d="M241.35 133.63a2.66 2.66 0 0 1 2.61 2.71 2.75 2.75 0 0 1-.52 1.63c-1.35 0-2.74.05-4.1.11a2.79 2.79 0 0 1-.61-1.74 2.66 2.66 0 0 1 2.62-2.71"/><path class="cls-26" d="M269.07 138.07c-2.11-.1-4.64-.21-6.65-.14a.7.7 0 0 1-.76-.63v-.51a9.42 9.42 0 0 1 .08-3.48.72.72 0 0 1 .09-.2 4 4 0 0 1 .66-.76 3.77 3.77 0 0 1 1-.54h.05a13.58 13.58 0 0 1 3.38-.51 10.5 10.5 0 0 1 3.11.36l.15.06c1.26.68 1.09 1.87.89 3.28 0 .1 0 .19-.06.47a.53.53 0 0 1 0 .12 5.53 5.53 0 0 0-.17.75 2.66 2.66 0 0 1-.63 1.48.72.72 0 0 1-.6.28Zm-6.08-1.5c1.95 0 4.22.07 6.15.15h.07a2.28 2.28 0 0 0 .17-.61 5.75 5.75 0 0 1 .2-.87l.06-.42c.13-.89.23-1.64-.14-1.9a8.63 8.63 0 0 0-2.57-.28 11.68 11.68 0 0 0-3 .44 2.43 2.43 0 0 0-.62.31 2 2 0 0 0-.35.41 8.82 8.82 0 0 0 .04 2.77Z"/><path class="cls-21" d="M262.44 137.27c2.14-.08 4.87 0 7 .14.54-.62.39-1.08.68-2 .17-1.33.47-2.49-.46-3a11.26 11.26 0 0 0-5.92.14 2.2 2.2 0 0 0-1.33 1 11 11 0 0 0 0 3.66"/><path class="cls-7" d="M266.8 133a2.58 2.58 0 0 0-2.37 2.76 3 3 0 0 0 .47 1.66c1.23 0 2.48 0 3.72.11a3.07 3.07 0 0 0 .55-1.77 2.58 2.58 0 0 0-2.37-2.76"/><path class="cls-27" d="M234.84 105.54c2.84-3 5.17-5.56 7-9 2.65 2.74 5.08 4.44 7.73 7.17-.57-.56-14.34 1.4-14.73 1.83Z"/><path class="cls-8" d="M234.84 105.54c2.84-3 5.17-5.56 7-9 2.65 2.74 5.08 4.44 7.73 7.17-.57-.58-14.3 1.38-14.69 1.81"/><path class="cls-27" d="M213.19 124a16.87 16.87 0 0 1 2.12-1.23c.57-1.82 1.36-3.57 1.93-5.39 4-6.92 11.45-9.82 17.6-11.79.39-.43 14.12-2.39 14.69-1.81 11.06-1 16.51 5.42 21.38 10.11.16.41.81 1.3 1 1.72.95.29 1.56.44 2.51.73a5.85 5.85 0 0 1 .34 4c-4.38-.29-8.69-.23-13.06-.52a48.28 48.28 0 0 0-6.76 2.9c-3.36-1.68-6.56-3.46-13.41-3.66a47.38 47.38 0 0 0-12 2.42l-.69 5.76a98.37 98.37 0 0 1-1.41 10.35 11.06 11.06 0 0 1-4.66 6.77c-2.95 2.08-6.1 2.21-7.19-.58-1.94-5-1.11-9.29-1.34-14.13a2 2 0 0 0-.6-1.42 7.1 7.1 0 0 1-.45-4.23Z"/><path class="cls-8" d="M213.19 124a16.87 16.87 0 0 1 2.12-1.23c.57-1.82 1.36-3.57 1.93-5.39 4-6.92 11.45-9.82 17.6-11.79.39-.43 14.12-2.39 14.69-1.81 11.06-1 16.51 5.42 21.38 10.11.16.41.81 1.3 1 1.72.95.29 1.56.44 2.51.73a5.85 5.85 0 0 1 .34 4c-4.38-.29-8.69-.23-13.06-.52a48.28 48.28 0 0 0-6.76 2.9c-3.36-1.68-6.56-3.46-13.41-3.66a47.38 47.38 0 0 0-12 2.42l-.69 5.76a98.37 98.37 0 0 1-1.41 10.35 11.06 11.06 0 0 1-4.66 6.77c-2.95 2.08-6.1 2.21-7.19-.58-1.94-5-1.11-9.29-1.34-14.13a2 2 0 0 0-.6-1.42 7.1 7.1 0 0 1-.44-4.22"/><path class="cls-27" d="M213.19 124a16.87 16.87 0 0 1 2.12-1.23 69.65 69.65 0 0 1 31.8-10 72.24 72.24 0 0 1 24.78 2.94l.06-.12c.91.27 1.52.43 2.44.71a5.85 5.85 0 0 1 .34 4c-4.38-.29-8.69-.23-13.06-.52a48.28 48.28 0 0 0-6.76 2.9c-3.36-1.68-6.56-3.46-13.41-3.66a47.38 47.38 0 0 0-12 2.42v.16a83.24 83.24 0 0 0-15.68 6.82l-.19-.23a7.1 7.1 0 0 1-.44-4.19Z"/><path class="cls-19" d="M213.19 124a16.87 16.87 0 0 1 2.12-1.23 69.65 69.65 0 0 1 31.8-10 72.24 72.24 0 0 1 24.78 2.94l.06-.12c.91.27 1.52.43 2.44.71a5.85 5.85 0 0 1 .34 4c-4.38-.29-8.69-.23-13.06-.52a48.28 48.28 0 0 0-6.76 2.9c-3.36-1.68-6.56-3.46-13.41-3.66a47.38 47.38 0 0 0-12 2.42v.16a83.24 83.24 0 0 0-15.68 6.82l-.19-.23a7.1 7.1 0 0 1-.44-4.22"/><path class="cls-27" d="M254.31 115a1.67 1.67 0 0 1 0 3.33 1.67 1.67 0 1 1 0-3.33Z"/><path class="cls-8" d="M254.31 115a1.67 1.67 0 0 1 0 3.33 1.67 1.67 0 1 1 0-3.33"/><path d="M225.15 124.41a32.85 32.85 0 0 1-1.62 11.67c-1.48 4.39-5.22 4.81-6.62 2.12-1.27-2.44-1.15-5.13-1.11-9.09 2.58-1.47 6.26-3.3 9.35-4.7Z" style="stroke-width:2.13px;stroke:#1a1a18;fill:none;stroke-linecap:round;stroke-linejoin:round"/><path class="cls-8" d="M225.15 124.41a32.88 32.88 0 0 1-1.62 11.67c-1.48 4.39-5.22 4.81-6.63 2.12-1.26-2.44-1.14-5.13-1.1-9.09 2.58-1.47 6.26-3.31 9.35-4.7"/><path class="cls-19" d="M327.09 463.75c1.08 1.62.71 1.73 1.79 3.35.19 3.65 1 8.74 1.33 14.51.29 4.62 1.65 8.83 1.94 13.89.59 10.55.84 22 2.69 28.89A55.22 55.22 0 0 1 314 532c-.85-2.7-2.14-5.28-3-9.65-3.34-17.88-.24-39.21-2.89-53.74-1.35-7.37-3.93-8.65-7.62-11.81l7.1 1.78Z"/><path d="M301.79 411.22h1.54c2.66.87 23.58 5.58 25.36 6.24.72.53.83 12.84-2.08 22.48-2.22 7.36 2.8 19.76-.84 21.43l-25-7.51Z" style="fill:#300a00;fill-rule:evenodd"/><path d="M314.88 430.6c1.82 0 3.29 1.87 3.29 4.18s-1.47 4.22-3.29 4.22-3.28-1.87-3.28-4.17 1.47-4.23 3.28-4.23Z" style="stroke-width:2.84px;stroke:#1a1a18;fill:none;stroke-linecap:round;stroke-linejoin:round"/><path class="cls-9" d="M314.89 430.6c1.81 0 3.28 1.87 3.28 4.18s-1.47 4.22-3.28 4.22-3.28-1.87-3.28-4.17 1.47-4.18 3.28-4.18"/><path class="cls-15" d="m290.91 424.8 6.17.65a3.6 3.6 0 0 1 3.2 4h0a3.63 3.63 0 0 1-4 3.2l-6.17-.64a3.59 3.59 0 0 1-3.19-4h0a3.62 3.62 0 0 1 3.99-3.21Z"/><path class="cls-17" d="m290.91 424.8 6.17.65a3.6 3.6 0 0 1 3.2 4 3.63 3.63 0 0 1-4 3.2l-6.17-.64a3.59 3.59 0 0 1-3.19-4 3.62 3.62 0 0 1 4-3.21"/><path class="cls-31" d="M241.35 134a2.28 2.28 0 0 1 2.15 2.4 2.57 2.57 0 0 1-.43 1.44c-1.12 0-2.26 0-3.38.09a2.55 2.55 0 0 1-.5-1.53 2.29 2.29 0 0 1 2.16-2.4"/><path class="cls-32" d="M241.37 135a1.32 1.32 0 0 1 1.22 1.49 1 1 0 0 1-.27.81 1.49 1.49 0 0 1-1.78 0c-.17-.26-.39-.24-.39-.84s.24-1.5 1.22-1.49"/><path class="cls-31" d="M266.8 133.34a2.22 2.22 0 0 0-2 2.39 2.69 2.69 0 0 0 .4 1.43c1 0 2.08 0 3.11.09a2.63 2.63 0 0 0 .46-1.52 2.22 2.22 0 0 0-2-2.39"/><path class="cls-32" d="M266.79 134.31c-.67 0-1.21.78-1.21 1.51s.18.66.33 1a1.6 1.6 0 0 0 1.71-.06c.18-.33.22-.15.29-.9a1.33 1.33 0 0 0-1.12-1.53"/><path class="cls-20" d="M214.15 385.18c-.71 1.8-.8 2.65.35 3.51s2.82.14 6.28.31c.94-.11 2 1.12 2.13 1.56-.64.82-1.42 1.12-2.06 1.94-2.29 3.79-3 2-1.48 4.72a6.61 6.61 0 0 0 4.62-.15c.79-.14 1.16-.18 1.95-.33 5.27.5 7.13.94 12.34-.1.8 0 3.26.41 2.93 1.36 9.69.34 23.83-.13 32.42-2 2.89-2.18 7.18-4.12 10.33-12.42-24.22 6.15-45 5.2-69.81 1.57"/><path class="cls-10" d="M226.21 370a.72.72 0 0 1-.74-.68.7.7 0 0 1 .68-.73h3.59a18 18 0 0 1 6.9-.53 14 14 0 0 1 4.59 1.59.7.7 0 0 1 .3.95.71.71 0 0 1-.95.31 12.49 12.49 0 0 0-4.14-1.45 16.57 16.57 0 0 0-6.43.52h-3.8M218.54 363.8a.7.7 0 0 1-.54-.8.71.71 0 0 1 .82-.57 4.36 4.36 0 0 1 1.85.79A4.47 4.47 0 0 1 222 365a.64.64 0 0 1 .06.18 3.76 3.76 0 0 1-.07 1.58 2.73 2.73 0 0 1-.84 1.33.71.71 0 1 1-.94-1.06 1.31 1.31 0 0 0 .42-.65 2.35 2.35 0 0 0 0-.89 3.06 3.06 0 0 0-.9-1.16 3 3 0 0 0-1.25-.53M216.41 377a.71.71 0 0 1 .24-1.4 4.12 4.12 0 0 1 1.71.69 3.88 3.88 0 0 1 1.28 1.58.7.7 0 0 1 .06.19 3.05 3.05 0 0 1-.06 1.42 2.43 2.43 0 0 1-.8 1.19.71.71 0 1 1-.9-1.09 1 1 0 0 0 .34-.51 1.56 1.56 0 0 0 0-.69 2.47 2.47 0 0 0-.78-.94 2.73 2.73 0 0 0-1.13-.44"/><path class="cls-10" d="M217.87 380.89a.71.71 0 0 1 0-1.42 20.44 20.44 0 0 1 2.61.15 18.31 18.31 0 0 0 2.44.13h.05c2.33.09 4.32.11 6.06.13a53.69 53.69 0 0 1 7.07.36 4.94 4.94 0 0 1 2.07.84h.05a3.73 3.73 0 0 1 1.29 1.62.71.71 0 0 1-.4.91.71.71 0 0 1-.92-.4 2.29 2.29 0 0 0-.8-1 3.52 3.52 0 0 0-1.48-.59 50.27 50.27 0 0 0-6.86-.34c-1.75 0-3.76-.05-6.07-.13a20.39 20.39 0 0 1-2.6-.15 18.25 18.25 0 0 0-2.43-.13M218 386.81a.72.72 0 0 1-.52-.86.7.7 0 0 1 .85-.52 2.78 2.78 0 0 1 1.34.75 4 4 0 0 1 .93 1.58.4.4 0 0 1 0 .15 3.9 3.9 0 0 1 0 1.33 2.55 2.55 0 0 1-.56 1.14.7.7 0 0 1-1 .07.71.71 0 0 1-.08-1 1.11 1.11 0 0 0 .25-.51 2.89 2.89 0 0 0 0-.79 2.55 2.55 0 0 0-.56-1 1.39 1.39 0 0 0-.68-.37"/><path class="cls-10" d="M219.08 391a.71.71 0 0 1 0-1.42 18.56 18.56 0 0 1 2.48.15 16.29 16.29 0 0 0 2.3.13 44.38 44.38 0 0 0 7.55-.43 17.28 17.28 0 0 1 4.88-.19 4.56 4.56 0 0 1 2 .84 3.8 3.8 0 0 1 1.28 1.66.71.71 0 1 1-1.33.48 2.39 2.39 0 0 0-.8-1 3.1 3.1 0 0 0-1.37-.58 16.94 16.94 0 0 0-4.47.2 45.19 45.19 0 0 1-7.75.44 16.62 16.62 0 0 1-2.45-.14 16.38 16.38 0 0 0-2.3-.13M222.87 395.2a.71.71 0 1 1 .33-1.38 2.78 2.78 0 0 1 1.34.75 4.11 4.11 0 0 1 .93 1.58.4.4 0 0 1 0 .15 3.9 3.9 0 0 1 0 1.33 2.65 2.65 0 0 1-.56 1.14.71.71 0 0 1-1 .07.72.72 0 0 1-.07-1 1.16 1.16 0 0 0 .25-.51 2.9 2.9 0 0 0 0-.79 2.64 2.64 0 0 0-.56-1 1.4 1.4 0 0 0-.67-.37"/><path class="cls-20" d="m211.54 396.66 6.34.82c-1.16-2.07-1-2.1 1.12-4.88.61-.82 1.15-1.22 1.75-2l-1.71-.33c-3.18.17-5.68.77-6.73-.25s-1.28-3-.62-4.75c-3.28-.51-5.74-1.13-9-1.73 1.39 5.55 4.19 10.43 8.93 13.14Z"/><path class="cls-21" d="M230.79 248a23.25 23.25 0 1 1-26-20.11 23.26 23.26 0 0 1 26 20.11Z"/><path class="cls-32" d="M210.62 273.55a22.74 22.74 0 1 1 19.66-25.45 22.75 22.75 0 0 1-19.66 25.45Zm-5.86-45.63a23.26 23.26 0 1 0 26 20.11 23.26 23.26 0 0 0-26-20.11Z"/><path class="cls-32" d="M229.71 248.17a22.17 22.17 0 1 1-24.8-19.17 22.15 22.15 0 0 1 24.8 19.17Z"/><path class="cls-21" d="M222.06 249.15a14.45 14.45 0 1 1-16.17-12.49 14.45 14.45 0 0 1 16.17 12.49ZM193.07 240.87l1-1.21c.39-.48.82-.83 1.22-.5s.09.89-.09 1.13l-1.11 1.37Zm-3.57-.68 4.34 3.48L196 241c.81-1 1.56-2.3.52-3.14a1.58 1.58 0 0 0-2.08.31c.3-.65.34-1.25-.16-1.65s-1.32-.62-2.5.85Zm1.91-.66.94-1.16c.47-.59.81-.53 1-.38s.34.49-.08 1l-1 1.22ZM203.02 232.03h-.03l.47 3.94-1.69.21-.66-5.53 2.38-.28 2.17 3.59 1.26-4 2.37-.28.66 5.52-1.69.2-.47-3.94h-.03l-1.32 4.16-1.15.14-2.27-3.73z"/><path class="cls-21" d="m216.63 238.34-1.42-1.18 2.08-5.5 1.38 1.15-1.7 3.87 3.57-2.32 1.19.99-1.63 3.93 3.5-2.37 1.38 1.14-5.02 3.06-1.43-1.18 1.68-3.95-3.58 2.36z"/><path class="cls-33" d="M207.73 251 206 237.19a13.91 13.91 0 0 0-12 15.57Z"/><path class="cls-33" d="m207.72 251 1.77 13.8a13.91 13.91 0 0 0 12-15.57Z"/><path class="cls-34" d="M73.33 287a26.82 26.82 0 0 0 .44 3.74c.74 2.5 3.49 1.74 5.72 1.49 1.21-.14 2.62-.23 3.8-.44l-.16-1.21c-1.9.07-4 .53-5.9.65-1.23.08-1.28-.46-1.4-1.6a24.17 24.17 0 0 0-.36-2.87Zm30.06-3.33a27.1 27.1 0 0 0 .45 3.74c.69 2.47 3.75 1.69 5.75 1.47.7-.08 3.28-.28 3.77-.46l-.71-5.8-2.16.25a17.84 17.84 0 0 0 .24 2.35l.24 2.05c0 .29 0 .08-.07.22-.26.1-1.92.24-2.35.29-.64.07-1.64.27-2.11 0-.8-.5-.49-3.47-.89-4.3a8.76 8.76 0 0 0-2.16.16Zm10 2.4c.86 0 4.42-.48 5.74-.62.65-.08 1.4-.29 1.47.43s-.78.64-1.34.71c-1 .1-5.49.54-5.84.68a5.63 5.63 0 0 0 .13 1.15c.5 0 6.49-.69 7.45-.8a2.11 2.11 0 0 0 1.66-1c.57-.94.16-2.66-1.93-2.6-1.58 0-3.38.45-5 .53-.1-.47.34-.92.71-1.09s4.83-.58 5.56-.7l-.12-1.18c-.66 0-5.69.58-6.16.73a3.47 3.47 0 0 0-2.38 3.69Zm-21.08-1.18c.12.2 4.07 2.41 4.37 2.6-.08.23-.25.3-.46.47-.59.47-3.08 2.57-3.34 2.65l-.12-1.07-7.16.79a3.07 3.07 0 0 1-.15-1.18l6.4-.72a6 6 0 0 0-.16-1.19l-6.38.69c0-.79.59-1.1 1.4-1.19 1.3-.14 4.41-.42 5.5-.65L92 284.9l-3.88.42c-2.06.22-4.35.1-5 2.2a14.56 14.56 0 0 0 .27 4.21l11.33-1.23c.53-.06 2.73-2.28 3.06-2.31a9.33 9.33 0 0 1 1.22.67c1.93 1.11 1.31 1 2.85.85l2.13-.25c-.13-.21-.2-.18-.58-.41l-1.68-1-1.13-.64-1-.59c-.11-.09 0 0-.1-.1a8.9 8.9 0 0 1 .91-.79l1.82-1.53a4.34 4.34 0 0 0 .85-.79c-2.05.23-1.8 0-3.09 1.05l-1.66 1.39a11.73 11.73 0 0 1-1.61-.89c-1.06-.62-1-.73-1.81-.64ZM112.17 273.56c-5.27-.07-3.85 4.53-15.78 5.86-8.08.9-16.72-3-16.83-11.31-.1-7.15 7.27-13.54 15.53-13.47 0 1.45-1.62 3.67-2.59 5.33-2.56 4.35-9.37 14.1-1.51 14.76 3.84.33 11.43-.86 15.62-1.42 2.23-.3 6-.14 7-1.73 2.57-4 1.28-11.26-3.38-14.62a18.09 18.09 0 0 0-5.64-3.17c-1.44-.49-1.43-.44-2 .67.61.82 2.53 1.26 3.4 1.77a10.7 10.7 0 0 1 3.06 2.45 11 11 0 0 1 2.83 8.45c-.35 3.05-.68 2.5-8 3.31l-8.15.9c-1.27.1-1.73.17-2.22-.48-.8-1.49 2.92-7.44 3.69-8.79s1.54-2.79 2.44-4.27c.68-1.15 2.43-3 2-4.49-4-1.67-17.62.28-22.57 7.41-7.07 10.18 1.4 21.86 17.54 20.41 5.09-.46 14.11-3.84 15.56-7.57"/><path class="cls-35" d="M72.59 285.86a26.82 26.82 0 0 0 .41 3.74c.73 2.5 3.48 1.73 5.72 1.49 1.21-.14 2.61-.23 3.8-.44l-.16-1.21c-1.9.07-4 .53-5.9.65-1.23.08-1.28-.47-1.41-1.61a24.76 24.76 0 0 0-.35-2.87Zm30.06-3.34a25.78 25.78 0 0 0 .45 3.75c.69 2.46 3.75 1.69 5.74 1.47a35.45 35.45 0 0 0 3.78-.47l-.72-5.79-2.15.24a20 20 0 0 0 .23 2.36l.25 2.05c0 .29 0 .07-.07.22-.26.1-1.92.23-2.35.28-.64.07-1.64.28-2.12 0-.79-.5-.49-3.47-.88-4.3a9.23 9.23 0 0 0-2.16.19Zm9.94 2.41c.87 0 4.43-.48 5.75-.63.65-.07 1.4-.28 1.47.44s-.78.64-1.35.7c-1 .11-5.48.55-5.83.69a5.71 5.71 0 0 0 .13 1.15c.5 0 6.48-.69 7.44-.81a2.08 2.08 0 0 0 1.67-1c.56-.94.16-2.66-1.93-2.61-1.59.05-3.38.45-5 .54a1.09 1.09 0 0 1 .71-1.09c.36-.17 4.82-.59 5.55-.7l-.12-1.18c-.66 0-5.68.57-6.15.72a3.5 3.5 0 0 0-2.34 3.78Zm-21.07-1.18c.12.19 4.06 2.41 4.37 2.59-.08.24-.25.3-.46.47-.6.48-3.08 2.58-3.34 2.65L92 288.4l-7.16.79a3.09 3.09 0 0 1-.15-1.18l6.4-.72a6.68 6.68 0 0 0-.16-1.19l-6.38.68c0-.78.59-1.09 1.4-1.18 1.3-.15 4.41-.43 5.5-.66l-.14-1.16-3.88.42c-2.06.23-4.35.1-5 2.2a14.54 14.54 0 0 0 .27 4.21l11.3-1.22c.53-.06 2.72-2.28 3.06-2.31a10.54 10.54 0 0 1 1.22.66c1.93 1.11 1.31 1 2.84.85l2.14-.24c-.14-.21-.2-.19-.58-.41L101 287c-.37-.23-.76-.44-1.12-.64l-1-.59c-.11-.09 0 0-.1-.1a8 8 0 0 1 .91-.8l1.82-1.52c.2-.17.77-.6.84-.8-2 .24-1.79 0-3.08 1.06L97.63 285a11.17 11.17 0 0 1-1.61-.89c-1.06-.62-1-.74-1.82-.65ZM111.43 272.45c-5.27-.08-3.86 4.53-15.78 5.85-8.08.9-16.72-3-16.84-11.3-.09-7.16 7.28-13.54 15.54-13.48 0 1.46-1.62 3.68-2.59 5.33-2.56 4.36-9.37 14.11-1.51 14.77 3.84.32 11.43-.86 15.62-1.42 2.22-.3 6-.14 7-1.74 2.58-4 1.29-11.26-3.38-14.62a18.22 18.22 0 0 0-5.63-3.16c-1.44-.49-1.43-.44-2 .66.6.83 2.52 1.27 3.39 1.78a10.89 10.89 0 0 1 3.07 2.44 11.06 11.06 0 0 1 2.83 8.46c-.35 3.05-.68 2.5-8 3.31l-8.15.9c-1.28.1-1.74.16-2.22-.48-.8-1.5 2.92-7.45 3.69-8.79.86-1.5 1.54-2.79 2.43-4.28.69-1.14 2.44-3 2-4.48-4-1.67-17.62.28-22.57 7.41-7.06 10.18 1.39 21.86 17.53 20.4 5.09-.46 14.11-3.83 15.56-7.56"/><path class="cls-32" d="M302.13 265.22a4.24 4.24 0 0 0 4.3 4.14 4.3 4.3 0 0 0 4.15-4.31 4.26 4.26 0 0 0-4.31-4.13 4.19 4.19 0 0 0-4.14 4.3m-16.51-1.09a4.16 4.16 0 0 0 1.23 2.88 4.27 4.27 0 0 0 3.06 1.26 4.35 4.35 0 0 0 2.89-1.27 4.22 4.22 0 1 0-7.18-2.91Zm4.06-2.73a2.41 2.41 0 0 1 2.49 2.45 2.64 2.64 0 0 1-2.17 2.84 2.41 2.41 0 0 1-2.49-2.45 2.59 2.59 0 0 1 2.17-2.84Zm30.07 6.85 3.19.21.56 1.82 2.08.13c0-.17-2.41-7.35-2.67-8.07l-2.23-.15c-.63 1.28-1.3 2.55-1.93 3.84-.24.5-1.87 3.59-1.87 3.81l2.12.16Zm1.91-4c.08.09.88 2.64.9 2.86l-2.17-.15Zm-10.5-1.25 2.55.18-.41 6.43 1.75.11c.1-.28.39-5.6.45-6.41l2.44.15.06-1.46-6.76-.44Zm-32.46-2.13 2.43.17-.42 6.41 1.78.11.44-6.41 2.42.16.09-1.45-6.64-.43v.39Zm18.12 4.13c.06.2.19.36.24.52s-.13 2.38-.16 2.79.07.23.41.25.9.07 1.37.09l.2-3c.45-.74 3.28-4.33 3.39-4.68l-2-.12-2.18 3.15c-.15-.16-1.38-2.86-1.67-3.39l-2.08-.14c0 .17 1.56 2.92 1.86 3.46a8 8 0 0 0 .62 1.07Zm7.2.32a2.57 2.57 0 0 1 2.19-2.82 2.42 2.42 0 0 1 2.47 2.49 2.64 2.64 0 0 1-2.2 2.8 2.42 2.42 0 0 1-2.48-2.48ZM304 255c2.39-1 4.45-5.74 4.84-11.57v-.59c5.64-.45 9.9-2.31 10.59-4.84a9.17 9.17 0 0 1 2 6.14c-.43 6.41-8.17 11.12-17.43 10.86Zm-18-13.17a9.23 9.23 0 0 1 2.78-5.83c.36 2.6 4.33 5 9.87 6.19v.59c-.38 5.83 1 10.81 3.28 12.1-9.32-.98-16.35-6.67-15.93-13.05Zm17.91-2c-1-.06-1.88-.17-2.77-.3.63-3 1.85-5.12 3.12-5s2.22 2.33 2.44 5.4c-.9-.04-1.83-.05-2.79-.12Zm-10.28-7.05a22.13 22.13 0 0 1 7.15-1.73c1.06-.05 2.18-.05 3.34 0-2.13.22-4.11 3.5-5 8.08-4.16-1-7-2.69-6.88-4.47a2.6 2.6 0 0 1 1.39-1.9Zm9.57 17.92c-1.63-.11-2.71-3.72-2.46-8.11 1 .15 1.95.26 3 .32s2 .09 3 .08c-.37 4.36-1.92 7.8-3.54 7.69Zm13-14.45c-.12 1.78-3.16 3.12-7.41 3.53-.31-4.66-1.85-8.17-3.94-8.67a33.18 33.18 0 0 1 3.33.43 22.49 22.49 0 0 1 6.85 2.65 2.58 2.58 0 0 1 1.17 2.04Zm-11.6-6.76c-11.48-.75-21.18 4.69-21.68 12.15s8.41 14.14 19.89 14.9 21.18-4.68 21.67-12.15-8.41-14.16-19.88-14.92Z"/><path class="cls-35" d="M300.22 264.46a4.23 4.23 0 0 0 4.3 4.13 4.22 4.22 0 1 0-.16-8.44 4.21 4.21 0 0 0-4.14 4.31m-16.51-1.09a4.16 4.16 0 0 0 1.23 2.88 4.26 4.26 0 0 0 3.06 1.25 4.31 4.31 0 0 0 2.9-1.23 4.22 4.22 0 1 0-7.18-2.9Zm4.06-2.73a2.41 2.41 0 0 1 2.49 2.45 2.63 2.63 0 0 1-2.17 2.83 2.4 2.4 0 0 1-2.49-2.44 2.58 2.58 0 0 1 2.17-2.84Zm30.07 6.85 3.19.21.56 1.81 2.08.14c0-.17-2.41-7.36-2.67-8.08l-2.23-.14c-.63 1.27-1.3 2.54-1.93 3.83-.24.51-1.87 3.59-1.87 3.82l2.08.13Zm1.91-4c.08.1.88 2.65.9 2.87l-2.17-.15Zm-10.5-1.22 2.55.18-.41 6.42 1.75.12c.1-.28.39-5.6.45-6.41l2.44.14.09-1.44-6.76-.45Zm-32.46-2.14 2.43.17-.42 6.41 1.78.12.44-6.41 2.42.15.08-1.44-6.63-.43v.38Zm18.11 4.13c.07.2.2.36.25.51s-.14 2.38-.16 2.8.07.23.41.25l1.37.09.19-3c.46-.75 3.29-4.33 3.4-4.68l-2-.12-2.19 3.13c-.16-.16-1.38-2.86-1.67-3.4l-2.08-.13c0 .16 1.56 2.92 1.86 3.46a10.16 10.16 0 0 0 .62 1.06Zm7.21.31a2.58 2.58 0 0 1 2.19-2.82 2.44 2.44 0 0 1 2.47 2.49 2.65 2.65 0 0 1-2.2 2.81 2.43 2.43 0 0 1-2.46-2.51ZM302 254.25c2.39-1 4.45-5.73 4.84-11.57v-.58c5.65-.45 9.9-2.31 10.6-4.85a9.21 9.21 0 0 1 2 6.15c-.37 6.38-8.09 11.1-17.44 10.85Zm-18-13.19a9.28 9.28 0 0 1 2.78-5.83c.36 2.6 4.33 5 9.87 6.2 0 .19 0 .38-.05.58-.39 5.83 1 10.82 3.28 12.11-9.18-.98-16.21-6.67-15.79-13.06Zm17.91-2c-1-.07-1.88-.17-2.77-.31.63-3 1.85-5.12 3.12-5s2.21 2.32 2.44 5.4q-1.26-.01-2.7-.1ZM291.72 232a22.4 22.4 0 0 1 7.14-1.72 31.25 31.25 0 0 1 3.35 0c-2.13.22-4.11 3.5-5 8.07-4.16-1-7-2.68-6.88-4.47a2.61 2.61 0 0 1 1.39-1.88Zm9.56 17.92c-1.62-.1-2.7-3.71-2.45-8.1 1 .14 1.95.25 3 .32s2 .09 3 .07c-.37 4.37-1.92 7.79-3.55 7.7Zm13-14.44c-.12 1.78-3.16 3.12-7.41 3.52-.32-4.65-1.85-8.17-3.94-8.66a30.52 30.52 0 0 1 3.33.43 22.08 22.08 0 0 1 6.85 2.65 2.56 2.56 0 0 1 1.18 2.05Zm-11.61-6.76c-11.47-.76-21.18 4.68-21.67 12.15s8.41 14.14 19.89 14.89 21.18-4.68 21.67-12.15-8.4-14.14-19.88-14.9Z"/><path class="cls-32" d="M380.42 258c.63-.18 1.32-.45 2-.65 2.54-.84 6.78-2.12 9.3-2.2a6.72 6.72 0 0 1 3.05.54 4.64 4.64 0 0 1 1.27.79 6.58 6.58 0 0 1 1.12 1.17c2.28 3 5.44 14.08 5.6 18.33.08 2.3-.31 4-2.12 5.62a23.81 23.81 0 0 1-6.46 3.57c-4.1 1.67-11.26 4.37-15.49 5.18-2.61.5-4.63.41-6.28-.7-3-2-5.87-9-7.36-12.53a40.69 40.69 0 0 1-1.36-3.89 12.3 12.3 0 0 1-.69-3.63 6.23 6.23 0 0 1 2.91-5.25c2.49-1.78 7.46-3.75 10.58-4.93 1.08-.41 2.92-1.12 4-1.42m17.8 6.72a25.57 25.57 0 0 0-2.82-6.14 5 5 0 0 0-4.39-2c-3.05.06-9.81 2.38-13 3.54-2.83 1-9 3.44-11.16 5.25a5 5 0 0 0-2 4.33 26.43 26.43 0 0 0 1.76 6.45 58.73 58.73 0 0 0 3.15 7.08c1.08 2.09 2.38 4.22 4 5.24s3.85.83 6.38.18A100.82 100.82 0 0 0 395.9 283c2.39-1.15 4.11-2.32 4.72-4.23s.16-4.25-.29-6.57a62.88 62.88 0 0 0-2.11-7.45Zm-8.55-7.15c.16.39.32 1.06.44 1.49l1.34 4.58c.57 2 1.2 4 1.75 6.06.82 3 1.73 6 2.55 9.06.2.75.68 2.37.81 3a29.63 29.63 0 0 1-3.42 1.51c-.27-.45-1.14-1.68-1.49-2.16a20.13 20.13 0 0 0-1.55-2 2.79 2.79 0 0 0-1.94-1.18 11.22 11.22 0 0 0-5.34 1.93 2.87 2.87 0 0 0-.74 2.15 32.84 32.84 0 0 0 .21 3.82c0 .44.07.9.12 1.32a33 33 0 0 1-3.59 1c-.47-.89-.86-1.89-1.29-2.82-2.59-5.6-5.12-11.56-7.61-17.25-.24-.55-1.13-2.52-1.26-2.93a14.67 14.67 0 0 1 2.35-1.07c.15.18 2.55 4 2.79 4.41.94 1.45 1.88 2.89 2.84 4.31a14.88 14.88 0 0 0 3.1 3.73c1.4.93 2.78.75 4.9 0s3.28-1.49 3.78-3.09a14.39 14.39 0 0 0 0-4.86c-.16-1.71-.35-3.41-.57-5.13l-.67-5.19a15.93 15.93 0 0 1 2.42-.66ZM397.7 289.17a9.74 9.74 0 0 1-1.37.52l-.87-2.43a12.88 12.88 0 0 1 1.3-.47h.06l-1.33.48.86 2.38.69-.25c.21-.07.48-.2.67-.25m10-3.36.2.54-3.41 1.24-.19-.53c.2-.11.56-.24.61-.39s-.25-.33-.36-.45l-2.45.88c0 .15-.15.47 0 .59s.48 0 .68-.08l.2.53-2.52.91c-.05-.09-.07-.17-.11-.26a.5.5 0 0 0-.05-.13c-.09-.33.35-.21.57-.46a9 9 0 0 0 .41-1.66c.08-.39.14-.76.22-1.13.15-.67-.49-.33-.94-.24l-.2-.54c.71-.31 1.61-.59 2.36-.86 1-.36.73-.4 1.8.4l1.46 1.1c1.17.89.85.75 1.74.56Zm-5.1-1c0 .3-.31 1.26-.29 1.45l1.49-.54c-.07-.1-.82-.64-1-.8a.39.39 0 0 0-.18-.13Zm-19.79 6.07a3.66 3.66 0 0 1 2.22 0c1.49.57 2.46 3.45-2 4.66a3.71 3.71 0 0 1-2.21 0 2 2 0 0 1-1.27-1.78c-.04-1.46 1.56-2.47 3.28-2.9Zm1.59 2c-.26-1-.82-1.42-1.74-1.15s-1.49.79-1.21 1.75.82 1.41 1.75 1.13 1.47-.77 1.22-1.73Zm9.88-1.6-.18-.49c.29-.2.71-.23.62-.62L394 288c-.22-.53-.6-.06-.86-.13a2 2 0 0 1-.21-.51c.2-.13 4-1.47 4.19-1.52 1.26-.36 2.53-.2 3 1.12s-.29 2.26-1.53 2.79c-.45.16-4.09 1.49-4.28 1.51Zm2.5-4.45h-.06a12.88 12.88 0 0 0-1.3.47l.87 2.43a9.74 9.74 0 0 0 1.37-.52 1 1 0 0 0 .66-.58 2 2 0 0 0-.65-1.77 1 1 0 0 0-.87-.03Zm-4.93 4.19c-.11-.47-.39-1.11-.56-1.59-.28-.78-.26-.7-1.06-.5l-.19-.53 2.51-.91.19.55c-.43.2-.71.26-.66.57s1 2.71 1.11 3.1c-.55.25-1.24.46-1.82.67-.41.15-.45.08-.71-.09s-2.8-1.84-2.9-1.86c.17.52.37 1.05.56 1.56.3.84.24.69 1.06.51l.19.53-2.51.9-.19-.52c.32-.18.73-.25.65-.61s-.28-.79-.39-1.11c-.51-1.39-.34-1.42-1.28-1.15a3 3 0 0 1-.21-.55c.62-.26 1.38-.5 2-.73 1.11-.4.86-.39 1.64.1l1.29.84c.42.26.86.55 1.28.82Zm-12.79 2-.49.23c-.41.21 0 .78.21 1.49.57 1.56.34 1.33 1.3 1.13l.2.53-3.16 1.16-.2-.55c.24-.11.64-.23.69-.44a2.48 2.48 0 0 0-.26-.86l-2.43.86a2.85 2.85 0 0 0 .34.85c.23.2.57-.12.8-.06.06 0 .07.11.12.23a1.38 1.38 0 0 1 .08.27l-3.14 1.15-.17-.53c.2-.23.75-.15.64-.62l-.8-2.2c-.09-.19-.17-.23-.37-.18l-.52.12-.2-.54 3.14-1.14a2.24 2.24 0 0 1 .19.55c-.45.36-1 0-.4 1.31l2.42-.88c-.33-1.25-.5-.86-1.16-.76l-.19-.53 3.16-1.14Z"/><path class="cls-25" d="M378.94 257.66c.64-.18 1.33-.44 2-.65 2.54-.84 6.78-2.12 9.31-2.2a6.85 6.85 0 0 1 3.05.54 5.25 5.25 0 0 1 1.27.79 6.54 6.54 0 0 1 1.11 1.17c2.28 3 5.45 14.08 5.6 18.33.08 2.3-.31 4-2.11 5.62a24 24 0 0 1-6.46 3.57c-4.11 1.67-11.27 4.37-15.49 5.18-2.61.5-4.64.41-6.29-.7-3-2-5.87-8.95-7.36-12.53-.51-1.22-1-2.62-1.36-3.89a12.22 12.22 0 0 1-.68-3.63 6.17 6.17 0 0 1 2.9-5.24c2.5-1.79 7.46-3.76 10.59-4.94 1.08-.4 2.91-1.11 4-1.42m17.81 6.72a26.09 26.09 0 0 0-2.83-6.13 5 5 0 0 0-4.39-2c-3 .06-9.8 2.38-13 3.54-2.84 1-9 3.44-11.16 5.25a5 5 0 0 0-2 4.33 27.05 27.05 0 0 0 1.75 6.46 59.29 59.29 0 0 0 3.15 7.07c1.09 2.09 2.39 4.23 4 5.25s3.85.82 6.38.17a100.57 100.57 0 0 0 15.71-5.69c2.38-1.15 4.1-2.31 4.71-4.23s.17-4.24-.29-6.57a61.5 61.5 0 0 0-2.11-7.45Zm-8.55-7.15c.16.4.32 1.06.44 1.49l1.28 4.58c.56 2 1.2 4 1.75 6.07.82 3 1.73 6 2.54 9.05.2.75.68 2.38.81 3a28.18 28.18 0 0 1-3.42 1.51c-.27-.45-1.14-1.68-1.48-2.16a23.17 23.17 0 0 0-1.55-2 2.81 2.81 0 0 0-1.95-1.18 8.92 8.92 0 0 0-2.79.62 8.58 8.58 0 0 0-2.54 1.31 2.83 2.83 0 0 0-.74 2.15 35.17 35.17 0 0 0 .2 3.82c0 .44.07.9.13 1.32a15.6 15.6 0 0 1-1.83.58 13.52 13.52 0 0 1-1.77.45c-.46-.89-.85-1.89-1.29-2.82-2.59-5.6-5.11-11.56-7.61-17.25-.24-.55-1.12-2.52-1.26-2.93a15.08 15.08 0 0 1 2.35-1.07c.16.19 2.56 4 2.79 4.41.94 1.45 1.88 2.89 2.84 4.31a14.93 14.93 0 0 0 3.11 3.74c1.39.92 2.78.74 4.9 0s3.27-1.49 3.77-3.09a14.64 14.64 0 0 0 0-4.86c-.17-1.71-.35-3.41-.57-5.13l-.67-5.19a16.76 16.76 0 0 1 2.48-.73ZM396.23 288.8a8.89 8.89 0 0 1-1.37.52l-.86-2.42c.06 0 1.13-.44 1.29-.47h.06l-1.33.48.87 2.38.69-.24c.21-.08.47-.2.67-.26m10-3.36.2.54-3.41 1.24-.19-.53c.2-.11.55-.24.61-.39s-.25-.33-.36-.45l-2.45.88c0 .15-.16.47 0 .59s.47 0 .67-.08l.21.53-2.52.91a1.19 1.19 0 0 1-.11-.26s0-.1 0-.13c-.1-.32.35-.21.57-.46a8.77 8.77 0 0 0 .4-1.66c.08-.39.15-.76.23-1.13.14-.67-.49-.33-.95-.23l-.2-.55c.71-.31 1.62-.58 2.36-.85 1-.37.74-.41 1.8.39l1.47 1.1c1.1.88.78.75 1.68.55Zm-5.11-1c0 .3-.31 1.26-.29 1.45l1.5-.54c-.08-.1-.83-.64-1-.8a.67.67 0 0 0-.2-.14Zm-19.79 6.07a3.66 3.66 0 0 1 2.22 0c1.5.57 2.47 3.45-2 4.66a3.71 3.71 0 0 1-2.21 0 2 2 0 0 1-1.28-1.78c-.08-1.47 1.57-2.48 3.28-2.91Zm1.59 2c-.26-1-.81-1.42-1.74-1.15s-1.48.8-1.2 1.75.82 1.41 1.75 1.13 1.46-.78 1.25-1.74Zm9.89-1.6-.18-.49c.29-.19.71-.23.61-.62l-.77-2.16c-.22-.53-.61-.06-.86-.13-.08 0-.19-.43-.22-.51.2-.13 4-1.47 4.19-1.52 1.27-.36 2.54-.19 3 1.12s-.29 2.26-1.54 2.79c-.4.16-4.06 1.49-4.22 1.51Zm2.49-4.45h-.06c-.16 0-1.23.43-1.29.47l.86 2.43a8.89 8.89 0 0 0 1.37-.52 1 1 0 0 0 .65-.58 2 2 0 0 0-.64-1.77 1.07 1.07 0 0 0-.88-.04Zm-4.94 4.17c-.12-.47-.4-1.11-.57-1.58-.28-.79-.25-.71-1.06-.51l-.18-.53 2.5-.9.2.55c-.44.2-.71.25-.66.56s1 2.71 1.11 3.1c-.56.25-1.24.46-1.82.67-.42.15-.45.09-.72-.09s-2.79-1.84-2.9-1.85c.17.51.38 1 .56 1.55.31.84.25.69 1.06.51l.19.53-2.51.9-.18-.52c.32-.18.73-.25.65-.61s-.28-.79-.4-1.11c-.5-1.39-.33-1.42-1.27-1.15a2.55 2.55 0 0 1-.22-.54c.62-.27 1.38-.51 2-.74 1.11-.4.86-.39 1.64.11l1.29.84c.46.26.91.56 1.3.8Zm-12.8 2-.49.22c-.41.21 0 .78.22 1.49.56 1.56.33 1.33 1.3 1.13l.2.54-3.16 1.15-.2-.55c.23-.11.64-.23.68-.43a2.28 2.28 0 0 0-.26-.87l-2.43.86a2.62 2.62 0 0 0 .35.85c.22.2.57-.12.79-.06s.08.11.12.24a2.67 2.67 0 0 1 .09.26l-3.15 1.15-.17-.53c.2-.23.75-.15.64-.61l-.79-2.21c-.09-.19-.17-.22-.37-.18s-.35.08-.52.12l-.2-.54 3.14-1.14a2.36 2.36 0 0 1 .18.55c-.44.36-1 0-.4 1.31l2.43-.88c-.34-1.25-.51-.86-1.17-.76l-.19-.52 3.16-1.15Z"/><path class="cls-32" d="m151.55 340-2 14.35-11.35 8.87A15.63 15.63 0 0 1 151.55 340m14 23.22-11.36-8.87-2-14.35a15.64 15.64 0 0 1 13.37 23.22Zm-13.67-4.86 13.36 5.4a15.65 15.65 0 0 1-26.72 0Zm0-20.3a17.57 17.57 0 0 0-15.18 26.36l-.23.18.27-.11a17.57 17.57 0 0 0 30.34 0l.27.11-.23-.18A17.57 17.57 0 0 0 151.88 338v-.2ZM163.17 383.5h3v-.69h-3Zm-34.71 3.2c.13.06 1.65-.06 2.39 0s.5 0 .58-.08c-.1-.47-.94.2-.94-.86s-.16-3.59.34-4.42A.83.83 0 0 1 132 381v.77c.89.91 1.61-.71.53-1.34a1.53 1.53 0 0 0-1.38 0c-.45.26-.48.55-.78.85l-.13-1.08c-.3 0-.61.15-.94.2s-.74 0-.83.19c.13.18-.15.06.18.15l.68.11a42.63 42.63 0 0 1 .09 4.82c0 .85-.33.59-1 .8Zm9.4-2c-.13.08-.12.09-.19.38-.25 1.08-1 1.7-2 1.23-1.34-.66-1.33-5.21.35-5.59a1.42 1.42 0 0 1 1.68 1.16c.13.44 0 .51.44.52v-2.21c-.34 0-.22 0-.38.26a2.42 2.42 0 0 1-.21.39 1.93 1.93 0 0 0-1.7-.51c-1.88.24-2.58 2.49-2.19 4.32.61 2.89 4.31 3.16 4.62.05Zm20.75 1.65a6.49 6.49 0 0 0 .8.41c1.91.59 3.4-.94 2.86-2.4-.34-.92-1.81-1.17-2.77-1.76-1.32-.81.32-2.5 1.52-1.66a1.57 1.57 0 0 1 .6 1.14c.09.32-.07.21.36.22v-2.1c-.46 0-.23.13-.48.49-.7-.2-.83-.53-1.87-.33a1.77 1.77 0 0 0-1.31 1 1.72 1.72 0 0 0 .17 1.77c.67.71 2.55 1 2.87 1.74.64 1.45-2.05 2.49-2.81.47-.28-.76 0-.66-.48-.66v1.73l.1.51c.31-.12.3-.35.44-.61Zm33.14-5.81v-.06h-4.58c-.07.31-.12.61-.17.91s-.06.3-.08.45a1.5 1.5 0 0 0 0 .22v.14c.28 0 .19 0 .32-.29.57-1.33.82-1.1 3-1.1-.11.47-3.31 5.35-3.53 5.93h4.56l.31-1.9c-.31 0-.24 0-.36.28a4.08 4.08 0 0 1-.18.42 1.59 1.59 0 0 1-.58.69 5.6 5.6 0 0 1-2.33.16Zm-64.6 4.17c-.12 1.11-.93 2.13-2.26 1.64-1-.35-1.17-1.7-1.15-2.89h3.94c.16-4.13-4.68-4.2-5-.32-.15 1.8.43 3.25 1.84 3.66a2.33 2.33 0 0 0 3.18-2.07Zm-3.39-1.76c.1-1 .39-2.23 1.41-2.28 1.18-.05 1.38 1.23 1.45 2.29Zm20.11 1.76c-.17.08-.06 0-.15.16l-.19.6a1.85 1.85 0 0 1-.4.6 1.71 1.71 0 0 1-1.57.31c-1-.31-1.26-1.61-1.24-2.92h3.93c.22-4.12-4.66-4.25-5-.33-.4 4.71 4.63 4.87 5 1.58Zm-3.53-1.75c.08-1.06.42-2.27 1.46-2.29s1.34 1.23 1.39 2.29Zm16.07 1.76c-.13 1.1-.92 2.07-2.22 1.65-1-.33-1.21-1.62-1.2-2.91h3.95c0-1.74-.63-3.09-2.32-3.15s-2.55 1.24-2.69 2.82c-.42 4.76 4.69 4.8 5 1.59Zm-3.41-1.81c.07-1.05.39-2.23 1.4-2.28s1.41 1.23 1.44 2.29Zm25.5 1.76c-.23.12-.13.32-.33.76-.59 1.36-3.27 1.89-3.21-2h3.94c.08-1.71-.67-3.1-2.33-3.15s-2.54 1.25-2.67 2.82c-.39 4.67 4.6 4.9 5 1.58Zm-3.5-1.77c.09-1 .41-2.25 1.46-2.27s1.33 1.23 1.39 2.29Zm7.93-2c1 0 1.26.66 1.26 1.64v3.14c0 1.07-.72.48-.89.93.12.1-.12.14.63.07s2.07.08 2.27 0c0-.56-.75 0-.91-.62-.35-1.47 1-5.52-1.77-5.76a2.13 2.13 0 0 0-2 .95l-.13-1.07c-.33.07-.62.19-1 .26l-.51.08c-.32 0-.26 0-.3.22.44.34.94-.29.94.8v4.14c0 .91-.33.6-.94.8v.2a10.33 10.33 0 0 0 1.65 0c.59 0 1.09.15 1.23-.05-.16-.45-.86.06-.86-.86v-3.21c.03-.93.4-1.56 1.33-1.64Zm-34.37-2.64c.46.17.82-.27.81.94v2h-.05l-.2-.23a1.84 1.84 0 0 0-2.58-.17c-2.19 1.7-1.09 6.92 1.93 6a1.9 1.9 0 0 0 1-.93l.19.95 1.49-.26c.35-.06.31 0 .26-.29-1.16 0-.95-.42-.95-1.49v-7a7.34 7.34 0 0 0-1 .19c-.25 0-.9 0-1 .24.08.09-.1-.01.1.07Zm-1 2.52c1.41-.46 1.79 1.28 1.84 2.43s0 2.91-1.1 3.21c-1.35.39-1.73-1.25-1.78-2.41s.01-2.88 1.02-3.21Zm22.81-2.94a39.17 39.17 0 0 0-4.06 0c-.06.86 1.08-.33 1.08 1.29v6.27c0 .43 0 .7-.36.84-.52.19-.72-.14-.73.44a31.66 31.66 0 0 0 4.49-.08 2.48 2.48 0 0 0 2-2.47 2.21 2.21 0 0 0-1.73-2.2c.18-.15.32-.17.51-.31a2.12 2.12 0 0 0-1.22-3.76Zm-1.86.4h.95c1.29 0 1.78.49 1.78 1.76s-.5 1.84-1.71 1.84h-1Zm0 4c1.14 0 2.37-.17 2.86.71s.47 3.21-1.44 3.3a8.23 8.23 0 0 1-.86 0c-.36 0-.48-.07-.54-.38a36.18 36.18 0 0 1-.04-3.59Zm-53.29-2.84a6.29 6.29 0 0 0-.65-1.61h-2.32v.2c.11.11-.19.05.53.18s.58.69.54 1.45l-.23 5.38c0 .38 0 1-.21 1.18s-1 0-.9.42c.08.16-.08.1.24.11a2.07 2.07 0 0 0 .35 0h1.52c.51 0 .52.07.55-.09s0-.2-.36-.25c-.69-.08-.76-.22-.74-1s.06-1.46.09-2.21c0-1.46.14-2.93.16-4.4.24.38 2.2 5.85 2.53 6.79l.26.74c.09.15 0 .11.19.17.21-.16 2.71-7.2 2.91-7.69l.1 4.46c0 1.08.29 2.84-.33 3.08-.42.17-.8-.06-.73.32 0 .22.27.1.79.06.94-.08 2.29.11 2.54 0 0-.38 0-.27-.41-.32-.76-.09-.67-.46-.69-1.42l-.12-5.47c0-.46-.09-1 .24-1.19.59-.35.84.22.85-.5a22.83 22.83 0 0 1-2.34 0l-2.47 6.65c-.24-.26-1.6-4.13-1.91-5Z"/><path class="cls-24" d="m149.89 339.12-2 14.35-11.36 8.87a15.64 15.64 0 0 1 13.37-23.22m14 23.22-11.36-8.87-2-14.35a15.64 15.64 0 0 1 13.38 23.22Zm-13.68-4.85 13.36 5.39a15.63 15.63 0 0 1-26.71 0Zm0-20.31A17.59 17.59 0 0 0 135 363.55l-.23.18.27-.11a17.58 17.58 0 0 0 30.35 0l.27.11-.23-.18a17.59 17.59 0 0 0-15.19-26.37v-.2ZM161.51 382.67h3V382h-3Zm-34.7 3.21c.13.06 1.65-.06 2.38 0s.5 0 .59-.07c-.1-.47-.94.2-.94-.87s-.17-3.58.34-4.42a.83.83 0 0 1 1.15-.37v.78c.9.91 1.62-.72.53-1.34a1.5 1.5 0 0 0-1.37.05c-.46.25-.48.54-.79.84l-.13-1.08c-.29.05-.61.15-.93.2s-.74 0-.84.2c.13.17-.14.05.18.14l.69.12a45 45 0 0 1 .08 4.81c0 .85-.32.6-1 .8Zm9.39-2.05c-.12.08-.12.09-.19.39-.24 1.08-1 1.7-2 1.23-1.33-.67-1.32-5.22.36-5.6a1.43 1.43 0 0 1 1.68 1.16c.13.44 0 .51.43.52v-2.21c-.33 0-.21-.05-.37.27a2.32 2.32 0 0 1-.21.38 1.92 1.92 0 0 0-1.71-.5c-1.88.23-2.57 2.49-2.18 4.31.61 2.89 4.3 3.16 4.62.05Zm20.8 1.65a6.49 6.49 0 0 0 .8.41c1.9.6 3.39-.94 2.86-2.39-.34-.93-1.81-1.17-2.78-1.77-1.31-.81.33-2.5 1.53-1.66a1.61 1.61 0 0 1 .59 1.14c.1.32-.07.21.36.22v-2.06c-.45 0-.23.13-.48.49-.69-.2-.83-.53-1.87-.33a1.76 1.76 0 0 0-1.3 1 1.73 1.73 0 0 0 .17 1.77c.67.71 2.55 1 2.87 1.74.64 1.45-2.05 2.49-2.81.47-.28-.77 0-.66-.49-.67v1.73l.1.51c.27-.08.26-.34.45-.6Zm33.13-5.81v-.06h-4.58c-.06.31-.11.6-.16.9l-.09.46a.74.74 0 0 0 0 .21v.14c.28 0 .19 0 .32-.28.57-1.33.81-1.11 3-1.1-.1.46-3.31 5.34-3.53 5.93h4.57L190 384c-.31 0-.25 0-.36.28a4.27 4.27 0 0 1-.18.43 1.71 1.71 0 0 1-.58.69 5.82 5.82 0 0 1-2.34.15Zm-64.59 4.18c-.13 1.11-.94 2.12-2.27 1.64-1-.36-1.16-1.71-1.14-2.89h3.94c.16-4.12-4.69-4.19-5-.31-.15 1.8.42 3.25 1.84 3.65a2.32 2.32 0 0 0 3.18-2.07Zm-3.39-1.76c.09-1 .39-2.24 1.41-2.28 1.17-.05 1.38 1.22 1.44 2.29Zm20.1 1.76c-.16.08-.05 0-.14.15l-.19.61a2.09 2.09 0 0 1-.4.6 1.75 1.75 0 0 1-1.58.3c-1-.31-1.26-1.61-1.24-2.91h3.94c.21-4.12-4.66-4.25-5-.32-.4 4.7 4.63 4.86 5 1.58Zm-3.52-1.75c.08-1.07.42-2.28 1.45-2.3s1.34 1.24 1.4 2.29Zm16.06 1.75c-.12 1.1-.91 2.08-2.21 1.65-1-.33-1.21-1.62-1.21-2.9h4c0-1.74-.63-3.09-2.32-3.15s-2.55 1.24-2.69 2.83c-.42 4.75 4.69 4.8 5 1.58Zm-3.38-1.76c.07-1 .39-2.24 1.4-2.28s1.4 1.23 1.44 2.29Zm25.5 1.76c-.23.11-.13.31-.33.76-.59 1.35-3.27 1.88-3.22-2h3.94c.09-1.71-.66-3.09-2.32-3.15s-2.55 1.25-2.68 2.83c-.38 4.66 4.6 4.9 5 1.58Zm-3.52-1.77c.09-1.05.41-2.26 1.45-2.28s1.34 1.24 1.4 2.3Zm7.93-2c1 0 1.26.66 1.26 1.65v3.13c0 1.07-.72.48-.89.94.11.09-.12.13.63.07s2.07.08 2.26 0c0-.56-.74 0-.9-.63-.36-1.47 1-5.51-1.78-5.76a2.11 2.11 0 0 0-2 .95l-.13-1.06c-.34.06-.63.18-1 .25-.17 0-.35.05-.52.08s-.25 0-.29.22c.44.35.94-.29.94.8v4.14c0 .91-.33.61-.94.8v.21a12 12 0 0 0 1.65 0c.59 0 1.09.16 1.23 0-.16-.45-.87.05-.87-.87v-3.2c.03-1 .38-1.67 1.31-1.71Zm-34.37-2.64c.45.18.81-.27.81.95v2l-.2-.23a1.82 1.82 0 0 0-2.58-.17c-2.19 1.7-1.08 6.91 1.94 6a1.9 1.9 0 0 0 1-.93l.19 1 1.49-.26c.34-.05.31 0 .26-.28-1.16 0-1-.43-1-1.5v-7.05a6.83 6.83 0 0 0-1 .19c-.26.05-.9 0-1 .25.03.06-.16-.04.05.04Zm-1 2.52c1.42-.46 1.79 1.28 1.84 2.43s0 2.91-1.09 3.22c-1.36.38-1.74-1.26-1.79-2.41s-.04-2.89.97-3.2ZM168.7 377a39.45 39.45 0 0 0-4.07 0c-.06.87 1.08-.33 1.08 1.29v6.28c0 .42 0 .7-.36.83s-.72-.14-.72.45a31.68 31.68 0 0 0 4.49-.09 2.47 2.47 0 0 0 2-2.46 2.22 2.22 0 0 0-1.73-2.21c.18-.14.32-.17.51-.31a2.11 2.11 0 0 0-1.2-3.78Zm-1.86.39h.95c1.28 0 1.78.49 1.78 1.77s-.51 1.83-1.71 1.83h-1Zm0 4c1.13 0 2.37-.17 2.86.7s.46 3.22-1.45 3.3h-.86c-.25 0-.48-.07-.53-.39a33.22 33.22 0 0 1-.02-3.54Zm-53.29-2.85a6.67 6.67 0 0 0-.65-1.61h-2.32v.19c.11.12-.2.05.53.18s.57.7.54 1.46l-.23 5.38c0 .37 0 1-.22 1.17s-1 0-.9.43c.08.16-.08.1.25.11h1.86c.51 0 .52.08.56-.08s0-.21-.36-.25c-.69-.09-.77-.23-.74-1s0-1.46.08-2.2c.06-1.46.14-2.94.17-4.4.24.38 2.2 5.84 2.53 6.78l.26.74c.09.15 0 .11.19.18.2-.17 2.71-7.2 2.91-7.69l.1 4.45c0 1.09.28 2.84-.33 3.09-.42.16-.81-.07-.74.32 0 .21.27.09.79.05.94-.08 2.3.12 2.54 0 0-.39 0-.28-.41-.33-.75-.08-.66-.46-.68-1.41l-.13-5.48c0-.45-.09-1 .24-1.18.6-.36.85.22.86-.51a20.47 20.47 0 0 1-2.35 0l-2.47 6.65c-.22-.22-1.57-4.1-1.88-4.97Z"/><path class="cls-34" d="M376 324.9c31.36 0 55.9 34.25 54.8 76.5s-27.47 76.5-58.8 76.5-55.91-34.25-54.81-76.5 27.43-76.5 58.8-76.5M262 442.54c4.07 11.77 11.24 24.84 19.82 33.6.93.95 1.78 1.75 2.76 2.71l5.45 4.82c1 .72 1.83 1.37 3 2.15l13.24 7.29c9.7 4.4 22.05 6.13 32.61 7.36 16.68 1.94 39.27 1.56 53.94-5.68a68.15 68.15 0 0 0 12.79-8.19c1-.79 2-1.64 3-2.46a124.35 124.35 0 0 0 12.33-13.48L432 451.12c2.47-5.93 6.34-16.61 7.24-23.11.34-2.44 1.29-5.43 1.53-8.36l.1-1.14c.76-5.19 1.59-12.31 1-17.25-.22-1.94.14.08.27-2a131.28 131.28 0 0 0-1.44-17.32c-.37-1.34.33 1.22-.25-.68a1.72 1.72 0 0 1-.07-.21l-.08-1.19c-.05-2.46-2.83-13.37-3.43-15.5a78.26 78.26 0 0 0-2.87-8.26c-3.13-7.52-6.11-14.29-10.9-21.19a118.46 118.46 0 0 0-12-14.65c-.6-.63-2-1.86-2.67-2.47-14.89-13.11-32.2-17.8-52.54-17.74-11.18 0-28.54.9-38.65 3.83-12.54 3.65-18.25 6.32-28.17 14-3.79 2.94-5.35 5-8 7.72-4.38 4.53-2 2.38-4.7 5.48-22.19 26.42-26.51 88.26-14.37 111.46Z"/><path d="M289.61 329.76s.09 0 .09.08.07.08.07.08l.05.1c.23 1.19-.31-.18-.12.48 1-.54.66-.67 1.13.33.42-1.84.55-.72 1.2-1.77 1.12-1.81.72-1.29 1.59-1.8s1-.31 1.22-1.35c.35-1.77-.76.36.82-1.13l3.86-3.2c1.59-1.5 2.91-3.87 4.68-4.6-.46-.33.07-.1-.56-.2a6.6 6.6 0 0 1-.7 0c.85-.35 11.06-7.73 13.87-9.29a2.92 2.92 0 0 0 .87-.58c.39-.5.08 0 .1-.35.12-1.44-.46.83-.06-.32a12.36 12.36 0 0 0 2.74-1.12 27.31 27.31 0 0 1 2.63-1c-2.24-.57-2.2-.26-4.37.37.53-.06 1.27-.39 1.91.13l-10.58 4.17c.28.24-.36.22.41.11s1.26-.93 2.3 0a33.32 33.32 0 0 0-3.33 1.06 6.72 6.72 0 0 0-1.6.65c-.91.55-.78 1.17-.75 1.21l-.46-.44-.24-.21c-.08.05-.19 0-.23.16s-.18.13-.24.17l-3.84 3.28c1.47-.4 2.13-1.15 3.14-.82a32.38 32.38 0 0 0-5 2.2l-3.88 3.72c1.48-.46 2.57-.93 3.81-1.39-.06.07-.17.06-.2.18-.29.95-5.22 1.24-8.17 5.7a6.22 6.22 0 0 0 3-1c-.69 1.53-2-.13-5.33 3.8l-1.91 2.43a8.05 8.05 0 0 0 3.63-1.46c-.53.65-1.17.8-1.59 1.64M311 347.34c.72 1.06 2.38 1.15 3.51 1.88 1.06-.38 1.37-2.33 1.74-3.2a7.93 7.93 0 0 0 .32-.79c0-.08.07-.3.1-.37l1.43-2.51c-.06-.05-.15-.21-.18-.15l-1.72-1.55-2.86-.61c.74.83.36.65 1.63.66-.61.77-.83.64-1 .82-.82 1.07 0-.5-.08.29v.22c-1.76 0-1.11-.17-2.06 2.11l-.24 1.72V346.46c-.15.7-.22.9-.59.88Zm1.27-8.74c.54.53 2 .6 2.9.87a9.28 9.28 0 0 1 2.83 1.29c1.41-.72.81.21 1.66-1 .54-.77 2-3.45 1.7-4.42a2.93 2.93 0 0 0-.19-.4l-.24-.39-3.42-1c-1.78-.35-7.64-.46-8.83-.07-.79.26-3.52 4.58-3.84 6.26.95-.08 1.73-.58 3.17-.78s2.81-.14 4.24-.36ZM324 312.39l.25-1.26c.8.43 0-.14.45.46.05.06.22.32.26.39l.27.45a56 56 0 0 1 4.69-3.34c2.44-1.69.33-.24 1.52-2.29.53-.91.52-.07 2.13-2.38-2.75.6-9 4.12-10.69 6-4.6 3.4-9.05 5.64-12.87 10.66-2.54 3.32-2.32 2.05-5.67 6.17-1.67 2-3.15 5-5.12 7.21l.07.36c1.09-.5.49-.16.78 0-.5 2.88-1.4 4.77-.31 7.46 1.05-.56 1.11-1.35 2.4-3.67.86-1.56 1.75-2.77 2.47-4.41-.88-.29-1-.53-1.36-1.68.83.26.51.33 1.42 1.4l3.31-3.79c-.94-2.15-1.76-.95-.83-5.66.86 1.11.35.94.34 2.62a1.62 1.62 0 0 0 1 1.78l2.77-3.23c.63-.83 0-.47 1.07-1.16l-.37-.33c-.86-1-.65-.77-.76-1.83.91.52.53.84 1.7 1.29a18.5 18.5 0 0 0 2.13-2.22c2.91-3.15-.39-.57 2.12-5.59.75-1.49.84-2 2.28-2.72-.72 1.79-2.7 3.75-1.81 5.49l3.25-2.85c1.04-.86 3.04-1.93 3.11-3.33Zm.91 10.14c3.82.29 2.74 1.39 5.7 1.89-.47-.91-.35-.59-.3-1.95l4.68-2.56c0-.05-.15-.19-.18-.13s-.15-.11-.19-.13a11.82 11.82 0 0 0-4.3-2l-2.24-.17c-2.55-.12-3 .78-4.07-.55 1.43-1.09 4.78-.59 6.55-.26l1.07.18a2.59 2.59 0 0 1 1.18.35c2.22.9 2.07 1.56 3.6.6l.2-.13.19-.14.83-1.07a2 2 0 0 0 .1-.21c0-.07.07-.16.1-.22.62-1.28.18-.4 1.71-1.09l2.08-.52c-.05-.06-.12-.24-.15-.18s-.05-1.26-4.07-2.16a11.27 11.27 0 0 0-2.73-.32c-4.7.05-2.64.06-3.45-.89 3.43-.08 8.47-.4 10.7 2 1.22-1.45 1.92-1.47 2.82-1.07.18-2.92 1.92-1.05 3.84-2.65a16.67 16.67 0 0 0-3.94-1.88 21 21 0 0 0-2.52 0c-2.63.08-2.32-.08-3-1a31.51 31.51 0 0 1 5.92.24 10.18 10.18 0 0 1 4.47 1.74c2.88-1.65 2.64-2.63 5.38-2.62l-1.28-.65 1.3-.32c-1.47-.15-3.85-1-7.59-1 .86-1.11 2.07-.84 3.41-.63h2c.85-.19.45-.7 1.8.06-.75.37-.1.21-1.23 0a2.54 2.54 0 0 0 2.86.67c-.39-.94.18-.05-.46-.55l2.36-.43-2.57-.72c-2.19-.49-.36-.17-2.17.33.33-.9-.15-.19.63-.94-.36-.41 0-.15-.7-.31-1.24 1.09-1.3 0-4.66 1.08a5 5 0 0 0-1.81 1c-1 .45-1.25.08-2.61.57-4 1.41-3.27 1.15-5.73 2.85-.93.64-1.2.31-2.32.88a16.13 16.13 0 0 0-5.15 3.44c-1.05 1.15-.81.35-2.12 1.06l-4.6 3.69c-1.22 1.12-.49 1.21-2 2-2.76 1.67-3.84 3.86-5.08 5.38-1.06 1.29-.78.1-1.95 1.6l-1.66 1.89c-.85 1.18.1.94-1.41 2.07-.9.68 0-.25-.88.75a10.92 10.92 0 0 0-2.19 3.92 17.71 17.71 0 0 1 9.05-.48c.94.52 2.79 1.13 3.59 1.56l1.12.14c.51-1.27.06-1 .9-2l.14-.17.46-.49a2.93 2.93 0 0 1 .91-.68c-1.55-1.61-.67-1.29-4.69-2.52-2.88-.54-3.84 0-5.64-.09-2.16-.08-1.12.05-1.39-.67 2.47-.92 4.7-.63 7.29-.61l6.18 1.32.14-.06-1.14-.52c.06 0 .34-.16.42-.21l.4-.24.18-.14 2-1.14c-.66-1.17-.32-.91-2.09-1.63l-2-.65c-1.8-.38-5.61.14-7.3-.68 1.53-1.87 5.11-1.01 7.39-.83Z" style="fill:#262626;fill-rule:evenodd"/><path d="M334.39 300.93c1.28.32 1.34-.16 2.42 0s0-.32.88.31a14.29 14.29 0 0 0-3.06.61c-1.49.67-1.11.95-2.68.95-2.13 0-11.31 4-13.26 5.32-1.31.9-.55 1.35-1.8 2-.42.19-1.1-.21-2 .21-.47.22-1.22.87-1.7 1.18l-6.95 5.18c-1.88 1.67-1.91 1.38-2.17 3.95-1.29-.13-.72-1.42-3 1.12a12.29 12.29 0 0 1-1.1 1.14c-.83.73-4.16 4.32-4.29 5.28l-.06 1.78a1.31 1.31 0 0 1-.06.23l-1.21-.67-.48.83c1.48-.08.43-.16.83.44-1.2.81-1.57 1.85-2.25 3.74-.95 2.66-1.66.95-2 2.68-.05.25.35.25-.18 1.34.4.13-.19-.87.55.19 1.12 1.61-.43-.55 0 .71l1.66-2.43c.29-.51.51-.91.94-1.09l.48-.08c.33-.3.09.57.27-.69.65.63.21-.31.29.7.81-.51 5.1-6.62 5.38-7.42-1.88.61-1.37.85-2.06.25 3.58-1.13 4.64-3.3 5.93-4.81 1.49-1.73 4.28-4 5.4-5.57-.28.09-1.09.43-1.21.45l-1-.07c1.28-.63 3-1.5 4.38-2.33 1.09-.66 6-5.07 9.74-7.16a22.14 22.14 0 0 0 2.25-1.26l-1.58-.3c3.05-.35 13.63-6.2 21.33-7.09a14.74 14.74 0 0 0 3.55-.45c-2.54 0-10.56-.4-12.2.8" style="fill:#3d3d3d;fill-rule:evenodd"/><path d="M264.1 400.39a35.75 35.75 0 0 0 3.36-7.21c2.19-6.67 3.65-15.13 5.25-22.21.4-1.77.88-2.46 1.32-3.93v-.73c-.7 2-5.1 10.61-6.71 12.06a3.75 3.75 0 0 0-1.75 3.06 64.9 64.9 0 0 0-1 7.07 7.07 7.07 0 0 0 2.29-2.44c.22.3 1.54 0-1.12 2.7-1.9 1.91-1.47 3.15-1.79 7.11-.07.88-.19 1.5-.25 2.32-.09 1.44 0 1.73.45 2.2m45.51-52.26c.39 0 .46-.19.65-.88V346.64l.24-1.71c1-2.29.3-2.09 2.06-2.12v-.21c.13-.79-.73.78.08-.3.15-.18.37-.05 1-.82-1.28 0-.89.17-1.64-.66-3-.48-6.09 0-9.13.05l-3.13 5.55c-.13.33-.39 1.06-.42 1.19-.34 1.75.69 1.06.7 1.05 7.84-1.66 4.4-.17 9.54-.53Zm4.56 125.24.57-.63c-.53-.54-.38-.9-1.29-1.87-.05-.05-.13-.1-.17-.15l-.17-.16-1.66-2.84a14.63 14.63 0 0 1-.49-2.08c-2 .41-7.67 1.09-9.22 2.21a31.56 31.56 0 0 0 4.23 6.2c1.09 1 .86.69 1.73.57Zm-33.5-125.14c1.77-3 3.22-6.59 5.11-9.45-.73.78-2 2-3.24 3.25-5.18 5.18-4.65 1.35-6.93 6.49-.35.81-.55 1.55-.94 2.28-.67 1.26-.78.71-1.14 2.43.44-.31 1-.72 1.48-1.09 1.11-.89.57-.77 1.86-1.19-.3 1.23 0 .65-1.9 2.16a8.1 8.1 0 0 0-2.12 2 37.14 37.14 0 0 0-2.36 6c4.93-2.18 7.19-8.5 10.13-12.88Zm-6 15.7a71.44 71.44 0 0 1 4.45-11.49c-.71.29-.69 1-1.12 1.79l-4.31 5.67c-3.44 3.55-3.17-.27-5.15 7.85a11.15 11.15 0 0 1 3-1.71c-.8 1.62.18-.06-.52.78-3.11 3.7-1.89-2.81-4.81 11a11.08 11.08 0 0 0 1.47-1.37 28.16 28.16 0 0 0 3.14-5.19c.62-1.21 1.32-2.34 1.93-3.58s1.2-2.68 1.87-3.75Zm-17.49 19.19c3.17-.12 5.14 4.09 5.89-.67.32-2 1.16-5.74 1.08-7.08-1.28-1-3.08-2.1-4.78-2.08-1.15 1.06-2.15 7.77-2.24 9.83Zm36.29-56.43c-.26 1-.22.75-1.22 1.35s-.47 0-1.59 1.8c-.65 1.05-.78-.06-1.19 1.77-.48-1-.16-.87-1.14-.33-.19-.66.35.71.12-.48v-.09c0-.01-.07 0-.08-.09s0-.07-.08-.08a10.42 10.42 0 0 0-2.49.89l-4.41 6.19c2-.8 1.23-1 2.2-.17a4.8 4.8 0 0 0-3.62 2.85c-.7 1.29-2.07 2.83-2.34 4.31a15.16 15.16 0 0 0 5.34-3.8l.14-.18 3.28-3.87c1.26-1.6 2.76-3.43 4.06-5.12 1.52-2 2.55-3.69 4-5.36Zm-29.79 31.07a15.6 15.6 0 0 1 6 1.62c-.29-1.34-.78-.73.55-4a21.28 21.28 0 0 0 1.51-4.22c-2.06-.45-2.35-1.06-4.83-.81a38.77 38.77 0 0 0-3.28 7.41Zm19.23 106.43.43 2.79c2.16 6.27-1.14 3.38 1.67 6.59a25 25 0 0 1 1.75 2.34c1.14-.33 1.05-1.2 1.63-.62s-.2.37-.64 1.68c.41.47 0 0 .5.42l2.87 3.12.86-.69a8.76 8.76 0 0 0-1.22-3.5l.36-.06h.3c.44 0 0 .16.3.07-.71-1.07-.86-.77-1.38-1.27l-.12-.13a58.58 58.58 0 0 1-6-9.25c-.65-1.38-.52-1.12-1.3-1.48a8.34 8.34 0 0 0-1.33-3c-3.31-6.1-5.63-10.89-7.24-17.93a6.21 6.21 0 0 0-.74-2.5 1.72 1.72 0 0 0-.55-.67l.1 1.5c-.32-1.3.13-1.18-.33-2.39L271 430.5c-.32-1.66-1.28-11.33-2-12.24.14-2.22-.44-12.12-.28-16.84.09-2.67.23-5.21.35-7.86s.79-4.93 1-7.81c-1 1.75-1.44 5.33-2.21 7.82-.71 2.27-1.68 5.72-3.1 7.14-1.61 2.2-1.34 4.55-1.22 7.84 1.63-.75 1.27-1 2.57-1.69-.42 1.55-.93 1.61-2.3 2.28l.16 6.95c1-.48 1.13-.39 1.69-1.36.19-.34.7-1.4.94-1.93a11.34 11.34 0 0 0 .72-2.1l.55-1.9c.31-.58.13-.32.52-.73 0 2.25-.45 3.23-1.2 5.3-.85 2.32-1 2.38-2.83 3.49-.23 1.83.42 7.49 1.22 8.71a3.24 3.24 0 0 1 .55-1.16c.7-1.08.31-.85 1.14-1.12 1.1 3.33-3.49-.38-.31 10.61.39-.15.2 0 .64-.36 1.79-2 2.2-6.17 1.78-9.11.29.48.06-.07.3.81a17.94 17.94 0 0 1 .05 5.42 5.91 5.91 0 0 1-.86 2.7 3.76 3.76 0 0 1-1.66 1.4 30.87 30.87 0 0 0 1.29 5.8c.08.24.31 1.06.38 1.21.3.69-.08 0 .42.75l.42.5a20.91 20.91 0 0 0 1-2.2 1.17 1.17 0 0 1 .11.23l-.08 1.46c-.26.62-.66.85-.65 1.83l.18 1.14c.4 2.65 2.68 6.93 2.74 7.81 1.74-2.62.55-8.28.16-11.74l.53 2a20 20 0 0 1 .59 9.51c-.26 1.15-.62 1.64-.2 2.8.35.93 2.71 5.55 3.69 6.27a9.21 9.21 0 0 0 .65-1.94c.57 1.46-.1 1.32-.15 2.85 0 1.33 3.38 5.78 4.25 7.23l.08-3.84c-.24-1.14-.39-1-.68-2.09-.69-2.56-.2-1.3.31-1.86.15.52.6 1.62.66 1.71Zm-23.63-92c4.88.56 4.86 4 6.19-1.58a21.42 21.42 0 0 0 .7-3.34 6.17 6.17 0 0 0-4.91-1.74c-.76.98-1.75 5.02-2.03 6.62Zm6.83 75.41c1.1 1 2 1.92 3.49 1.53l-.1-.33a19.46 19.46 0 0 1-1.42-3.18c-1.82-5.4-.57-4.66-4.29-6.46-.7-.34-1.13-.49-1.68-.79-1-.52-.81-.63-1.88-.87.29 1.56.73 4.23 1.84 5.12.07 3.73 6.86 16.53 9.35 20.63 1.3 2.14 2.48 3.69 3.93 5.68a16.65 16.65 0 0 0 1.16 1.41c.52.61.55.8 1.12 1.45.84.95 1.45 1.62 2.27 2.54 3.46 3.89 12.34 11.89 16.49 13.14-.35-1.39-1.42-2.08-2.51-2.85l-2.9-1.87c-1.22-.69-.67-2.47-4.54-4-.87-2.08.52 1.92 0-.73a7 7 0 0 0-1.74-2.43c-.63-.6-1.21-.81-1.6-1.27-1-1.13.18-.15-.75-1.53s-2.63-3.91-4-4.64c-1-.54-1.16-.46-1.82-1.33 2.24.09 2 .17 2.2-.4-1.54-.17-1.35-1-2.35-2.7l-.61-1-.8-1.41c-1.73-3.08-3.87-1.6-5-3.89 1.06.23.71.2 1.45.63 1.62.95-.78.33 1.78.78-.28-2.32-.8-2.52-1.64-4.36a2.29 2.29 0 0 1-.1-.23l-1.12-2.72c0-.07-.07-.2-.1-.26-.3-.88-1.64-1.58-3.25-2.35-1.77-.86-2.14-.43-3-1.89 1.3.12.82.29 2.07.54ZM271 342.23c2.18-.16 1.66 0 3.39.37l.81.12c1.65.15 1.93-2 3.56-4.63.22-.36.27-.4.51-.78l.54-1a5 5 0 0 0-2.13-.72c-1.61-.21-1.48.22-2.09-.47-1.02.52-4.25 5.88-4.59 7.11Zm-11.11 94c1.24.67 4.76 3.19 6.73 2.83-.9-1.64-.84-.56-1.54-3.14-1.49-5.55-.93-2.59-7-6.73Zm-3.33-24.9c2.44.07 3.27 2.24 5.7 1.82-1.25-2.22-.65-2.68-1-5.58-1-.7-4.83-1.85-5.22-3.14.48-.38-.19-.85 2.44.47 1.13.57 1.66 1.06 2.59.86 0-.09.06-.31.06-.27s.05-.2.06-.26 0-.19.05-.28l.11-2.9c0-1.45.06-2.91 0-4.36l-3.81-1.9c-1.31-.7-.49.22-1.09-1 2.65-.27 3.45 1.49 4.88 1.15l1-9.23c-1.17-1.31-3.21-2-4.87-2.69-1.28.82-1.14 3.75-1.3 5.33-.1.94-.22 2-.26 2.94a3.41 3.41 0 0 0 .53 2.5c-1.3.75-.86 2.87-1 4.62 0 .75-.13 1.91-.12 2.63 0 1.72.05 1 .62 2.36-1.36 1.07-.43 5.16.24 6.76-.25.37-.86 1.16.35.2Zm5-46.95a13.75 13.75 0 0 1 6.16 2c.05-1.83-1-.15-.23-2.85a10.66 10.66 0 0 0 .79-3.13c-2.92-2.24-3.42-.83-4.62-1.76-1.19 1.11-1.81 4.04-2.17 5.77Zm8.84-21.06a32.74 32.74 0 0 0-2.88 5.74c2.83.1 2.62.54 3.62.65 1.37.15 1.71-.29 2.14-1.05l2-4.58a8.47 8.47 0 0 0-4.95-.73Zm-11.6 76.42c2 1.54 2.58 2 4.44 1.87-1.57-2.35-1.05-2.39-1.58-6.89-1.66-.39-2.49-1.75-4.56-2.11l-1-.63c.19-.27.31-.47.39-.61-.37.16-.68-.21-.49 2.05l.67 5.9c.34 4.74 1.14 6.19 1.46 9.28 2.64.27 3.71 2.3 6.4 2.75-1.25-3.41-1.43-7.18-2-8-.82-1.12-3.58-2.12-4.44-2.52-1.6-.74-1-.47-1.08-1.63Zm46.89-64.29c2.05.47 3 1.33 4.64 1.15a1.22 1.22 0 0 0 .47-.09v-.57c.13-1.69.79-2.51 1.47-4.11s0-.33.31-1.6a19.66 19.66 0 0 0-4.41-1.11c-2.9-.23-7.08-.53-9.58.32-1.25 1-1.72 3-2.27 4.46l-.47 1.56c.17.08.32 0 .38.18l.57.22c.87.16 2.32-.55 3.85-.68a23.67 23.67 0 0 1 4.97.3Zm-7.83 82.75c1.79 0 2.23-.49 3.78-.69-.36-3-1.54-6.61-.9-8.12h-1.59l-2.45.33c-2.72-.22-4.8.75-5.91.73-.51 0-.61-.45-1.46.17l-.91.73c.2 2 .88 6.45 1.9 7.66 1.67.8 1.33.07 3.35-.35.69-.13 3.33-.39 4.12-.43Zm-22-103.44c1.87-.58 3 .24 4.81.32 1.24-2 2.52-3.07 3.4-5-3.19-1.17-3.62-.11-4.33-.62-1.1.66-.52.3-1.19 1.18-.36.48-.63.79-1 1.26a12.83 12.83 0 0 0-1.78 2.89Zm22.31 56.56 3.45.39c-1.21-3.41.51-5.55.86-8.05.19-1.34-.26-1.76-1.46-1.79l1.56-.65h-3.46c-1.54-.3-4.1-.5-5.52.17l-4.15.72c-1.58-.75-1.54 1.66-1.76 3.12s-.31 3-.62 4.16c-.13 2.29-.22 3.23 1.95 2.57a20.27 20.27 0 0 1 4.46-.73ZM293.68 429a24 24 0 0 0 6.61-1.13c.5-1.68.41 1.4-.13-.31-.33-1 .32.23-.18-1.92-.23-1-.51-3.21-.65-4.37-1.88.09-2.05-.8-4.43.1a43.7 43.7 0 0 0-4.48.52 16.55 16.55 0 0 0-2.13.3c-1.25.35-1.07.33-1.25 1.36.71 5.17 0 2.79 1.65 6.52 1.39-.31 1.78-.94 3.51-.8Zm1.91-26.47c1.75 0 3.08.65 4.7-.05l.42-9.51c-1.32 0-1.3-.28-2.71-.3-1.77 0-4.5-.94-6.07.19a10.77 10.77 0 0 0-3.05.39c-1.56.3-1.54.18-2.55 1v1.63c0 2.27-.82 5.8.35 7.49l5.7-.77 2.85-.09Zm9.12-37.19a5.26 5.26 0 0 0 2.2.66c0-.05.07-.18.07-.14s.07-.12.08-.14l.27-.58a.88.88 0 0 1 .05-.15l1-3.4c.59-1.75 1.57-2.25.76-3.61l-1.12-.66a27.68 27.68 0 0 0-3.9-.62l-1-.11c-2.89-.29-5.38.72-8.19.61a16.32 16.32 0 0 1-1.31 3.55c-.33 2.14-1 2.28-.89 4.88a8.84 8.84 0 0 1 2.5-.76c1.11-.21 1.76-.18 2.85-.33a24.22 24.22 0 0 1 6.63.77Zm-9.13 47.51 3.05-.11c.63-.22.8-.2 1-2l.09-5.43c.23-1.08.94-1-2-1.4h-2.5a25.7 25.7 0 0 0-9.17 1.33l-.08 3.69-.1 1.57c.64.66.16.33.3 1.37.1.74-.26 2.36 2 1.85 2.76-.62 2.28-.87 5.77-.87Zm8.18 43a9.26 9.26 0 0 1 2.84-.29c0-3.4-1.21-4.2-1.69-5.47-.61-1.59.15-1.1-1-2.55l-3.92-.18c-1.24.11-2.48.36-3.66.58a18.12 18.12 0 0 0-2.95.88l-.19 1.1c.45 2.48 2 4.63 3 7 2.28.48 1.45 0 3.87-.47 1.41-.27 2.34-.39 3.7-.63ZM288.63 320c2.82-1.83 2.78 1.13 5.94-1.37 1.15-.91.88-1.15 1.86-2l1.92-1.63c-1.81 0-3 .37-3.63-.28a25.06 25.06 0 0 0-3.22 2.36c-1.07.98-2.22 1.62-2.87 2.92Zm14 146.35a14 14 0 0 1 2.23-.66c2.13-.35 4.17-1 5.7-1.14-1.64-1.94.89 0-1.36-2.09l-.49-.7c-.85-1.58-1.17-1.71-1.43-2.9-.29-1.37-.29-.11-.66-2l-7.6 1.16c-2.37.64-1.79.43-1.84 1.35.79 1.55 1.55 3.08 2.27 4.46a6.4 6.4 0 0 0 1.52 2.08c.81.8.55.63 1.63.45Zm-2.69-20.31 2.9-.37c.16-1.7.58-1.59-.13-3.47-.52-1.38-1-1.29-.47-3l-5 .36c-1.82.11-5.19.64-6.54 1.59.21 1.66 1.06 3.17 1 4.78.55.49.58.92 1.36 1.3 1.41.69 1.09.2 2.23-.27a17.31 17.31 0 0 1 4.62-.91Zm-19.8-117.29a6.54 6.54 0 0 1 3.17 0 4.69 4.69 0 0 1 1.48.47c.71.36.66.26 1 .83-.09-1.76-.54-1.51.6-2.94.5-.63 1.24-1.15 1.46-1.94-2.21-.58-1.47-.23-3.11-.31-.74 0-.43.2-.75-.24a16.54 16.54 0 0 0-3.88 4.14Zm16.4 91.25a8.68 8.68 0 0 0 2.49-.3l1.05-5.24c-1.42-.82-3.17-.68-4.84-.5l-1.16.12h-.49a28.3 28.3 0 0 0-7.37 1.36c.89 4.53-.2 6.35 3.25 5.28a8 8 0 0 1 2.27-.44Zm2.46-40.06 3.75.73c.43-1.73.9-2.76 1.31-4.33l.47-2.66c.46-1 .46.64.14-.24-1.62.08-.85.59-2.47-.12l-3.49-.64a44 44 0 0 0-9.15 1.11c.52 2.16-1.65 4.36-.51 7l4.94-1Zm-15-55.88c4-.65 3.58.64 5.14-.21a9.18 9.18 0 0 0 2.82-3.29c-2.67-.35-3.1.13-3.63-.62a30.46 30.46 0 0 0-4.26 4.12Zm17.47 47.75 3.51.84 1-3.7s1.63-.3-.12-2c-.74-.71-2.84-1-3.75-1.05-1.69 0-3.66-.46-5.21.13l-5.32.51-.85 3.28c-.5 3.7.37 2.47 3 1.89 2-.43 3.71-.12 5.7-.35ZM280 425.2c-.09-.92-.21-1.05.24-1.74 1.19 2.43 3.66 9.33 5.69 9.76a46.93 46.93 0 0 1-1.13-6.74c-.48-4.2-2.16-2.79-3.2-5.38 1.15.59 1.49 1.17 2.75 1.87-.74-6.39.23-4.29-2.51-7.36a13.2 13.2 0 0 1-3.07-7.11l.29.42c.78 1.45 2.17 6.42 4.58 7.13a51.6 51.6 0 0 0-.28-7c-.35-1.46-2.09-2.72-2.56-4.85 1.44.94 1.26 2.35 2.62 2.93.06-2 0-4.06.13-6.07.22-4.11.09-2.44-1.34-5.09a18.92 18.92 0 0 1-1.37-4.76c-.61-2.94-.95-4.65-.31-5.56.82 3 .54 8.36 3.06 10.42.58-1.26.77-6.07 1-7.92.3-2.2.58-2.28-.37-3.68a5.09 5.09 0 0 1-1.13-2.38c-.06-.86-.14-.32.16-.8l1.95 3c.23-1.65 1.68-7.76 1.3-8.75 0 0-2.7-3-2.66-6.38 0 0-.21-.53.38-1.39.5 3.14.88 4.67 2.36 6.66.72-.56.19.41.78-1.07a11.88 11.88 0 0 0 .28-1.3c.19-1 .43-1.69.68-2.61.71-2.69-.94-1.56-1.57-4.15 1 .43.88 1 2.17 1.64.6-1.32.71-2.43 1.17-3.72.89-2.53.73-1.4-.12-3.6-.76-2-.49-7.43.27-9.21 1.06 1.55-.81 6.21.88 8.89.06-.05.13-.2.15-.16l3.53-8.17c-.65-1.16-1.2-.94-1.58-2.75 1.34.59.77 1 2 1.63 4.11-7 1.12-4.2 2-10.18a25 25 0 0 0 .66-4.07l-.07-.36c-2.89 3.08-5.84 10.55-7.52 13.86l-2.47 5a88.53 88.53 0 0 0-3.71 10.81 140.16 140.16 0 0 0-5.32 23.9 185 185 0 0 0-.55 27.21l1.61 12.78a40.93 40.93 0 0 0 1.4 7.24l1.61 6.45c1.36 5.53 2.89 7.87 4.31 11.67a18.36 18.36 0 0 0 1.45 3.48l.46.84c.1.17.39.68.48.86l1.44 3.47a15 15 0 0 1-.55 5.23c-1-.38-1.24-1.66-1.16-2.69.19-2.37-.93-2.74-2.08-5.16l-3.85-9.2-.78-2.23c-1.78.42-.38.85-1.7.66-.4-2.09.6-3.16.15-5-1.12-4.65-2.39-8.13-3.56-14l-1.36 1.35c.05-4.14 1.41.32.43-8.16a93.38 93.38 0 0 1-.81-9.38l-.6.28a2.14 2.14 0 0 1-.27.09c-1.08.18-.16.42-.91-.12a10.12 10.12 0 0 1 1.31-2c.29-.92.53-16.24.64-18.88-1.43.87-.14 1-1.82 1.63-.07-2.23 1.34-2.88 2-4.69a44.62 44.62 0 0 0 .94-6c.53-3.65 1.9-8.31 2.2-11.75-.73.31-1.59 1.15-1.77.49s.81-1.27 1.2-1.6c1.69-1.48 1.35-1.71 2.1-4.35l3.14-9.86c-.84.37-.68.1-1.15 1l-1 .17c.9-2.68 1.9-.86 5.06-8.15 1.5-3.46 2.89-5.93 4.53-9.27a11.52 11.52 0 0 1-2.19 1.3c.1-1.7.22-1 2.67-3.1a6.57 6.57 0 0 0 2.55-3.51c-.08-1 .36-.07-.29-.7-.18 1.26.06.39-.27.69l-.48.08c-.43.18-.65.58-.94 1.09l-1.66 2.43c-.43-1.26 1.12.9 0-.71-.74-1.06-.15-.06-.55-.19.53-1.09.13-1.09.18-1.34.31-1.73 1 0 2-2.68.68-1.89 1.05-2.93 2.25-3.74-.4-.6.65-.52-.83-.44l-2.22 3.16c-.71 1.14-1.42 2.07-2.35 3.46-.8 1.19-1.39 2.32-2.17 3.61-1.48 2.44-.05 2.25-.29 4.24-.74.1-.29 0-.67-.16-.76-.41.35-.1-1.05-.73a27.41 27.41 0 0 1-1.81 4.07l-3.58 8.35c-1.57 4.21.15 2 .1 4.91l-1.26-.3c.36-.8.2-.19-.32-.33a55.55 55.55 0 0 0-2.53 8.18c-2.27 8.61.35 5.35-.31 9.46-1.29-.54-.43-.71-1.63-1.75-.56 4.05-1.49 8.12-1.94 12.29a59 59 0 0 0-.61 6.74c.08 2.1 2.06 4 1.36 5.45l-1.47-1.91-.18 10.9c0 6 1.47 3.71 2.14 6.89-1.2-.86-.61-.76-1.81-1.31l1.83 13.86c1 5.67 2.27 2.54 2.74 5.48a3.64 3.64 0 0 1-1.77-1.29c-.21 1.86 3.87 15.53 6 17.92a3.12 3.12 0 0 0 1.42 1.61l-1.33.32a31.29 31.29 0 0 0 2.1 4.74c1.15 2.49 5.4 10.95 7.88 11.7.66-.47.08-.42 1.11-.12v.25c0 1.05-.39-.1.13.65l1.43 1c0-.06.21-.32.25-.4.47-.87 0 .44.41-.92 0 0 0-.51-1.11-.11 1.18-2.45-2.49-1.82-.88-5.43.35-.77 0-.18.43-.61l5.55 8.26a1.27 1.27 0 0 1 .13.19l2.52 2.88.88.83c1.29-2.09 0-.41.37-1.7 1.74.14 1.84 1.23 3.43 1.64-.49-1.32-4-5.8-4.29-6a18.14 18.14 0 0 1-3.06-2.07c-2.16-2.19-2-1.36-2.56-2.92 1.23.5.2 0 1 .63 1.68 1.39 1.19 1.73 4.13 3.13l-.16-.23c0-.06-.11-.17-.16-.23l-1.59-2.41a9 9 0 0 1-.8-1.45c-3.14-6.62-3-2.69-4.52-5.95 1.55.8.38.78 2.08 1.18-.53-1.24-2.63-6.94-3.63-7.68a18.62 18.62 0 0 1-4.42-5c-.95-1.39-3.09-4.41-3.33-5.91 1.58.63 4.75 8.63 7.42 9.33-.55-1.83-2.15-8-3.37-9.06-.81-.67-1.56-.94-2.08-2 1.35.63 1.36 1 2.43 1.42-.59-3.16-.82-5.32-2.34-6.82-3.22-3.22-3.68-7.54-5.44-9.13Z" style="fill:#656565;fill-rule:evenodd"/><path class="cls-39" d="M312.77 482.18c.15 1 0 .52.5 1.24l.67.6a7 7 0 0 0 1.71 1.13c1.25.45 3.39-.09 4.74-.36 1.9-.37.57.33 4.13-1.05 1.51-.58 2.28-1.28 3.66-1.67a13.16 13.16 0 0 0-2.18-3.68c-2.82 2-10.67 2.92-13.23 3.79M334.55 486.15c-1.5 0-2.21.82-3.56 1.42-6.82 3-12 1.26-8.09 3.76l1.57 1c2.8 1.89 9.76-.76 12.51-2.54l.7-.5c-1.22-1-2.65-1.32-3.13-3.16M320 479.53l-1.19-.27c.06 0 .19-.18.21-.12s.17-.1.19-.13c.8-.84-.11.61.26-.26.24-.56.53 0-.32-.73s-1.1-.56-2-1.32c-1.23-1.07-.76-.93-.82-1.18A2 2 0 0 0 315 474c-1.28.63-5.48 1.07-7.45 1.65 0 1.19-.07.61.81 1.73s2 2.81 3.08 3.41l.66.29a26.77 26.77 0 0 0 7.93-1.57"/><path class="cls-39" d="m300 475.59 1.1 2.15c.12.14.29.43.32.36s.12.11.17.17a8.09 8.09 0 0 0-.58 1.6c1.09-1-.14-.48 1.24-1a26.87 26.87 0 0 0 5.1 5.12c2.8 2.17 1.51 1.57 2.49 2.64l6.5 4.64c.38.17.15 0 .67.29l3.21 1.92c1.38 1 .41.36 1.5.68 2.06.61.67.74 3.13 1.7l2 .8c1 .38 1.35.54 2.33.87 2 .66 3.74 1.5 4.73.77-1.24-.52-2.54-1-3.75-1.44l-6-2.9-.2-.08-.19-.07a3.38 3.38 0 0 1-.34-.11c-.36-.17-.14 0-.39-.32l-4.67-3.52c-1.92-1.66-3-2-4.55-3.77-1.05-1.18-2.93-3.19-4.46-3.24.8-.89.6-.45-.45-1.75l-3.17-3.28c-1.57-1.5.28-.92-1.07-1.47-1.59-.41-1.69-1.5-3.43-1.64-.38 1.29.92-.39-.37 1.7Z"/><path class="cls-40" d="M362.57 453a24.6 24.6 0 0 0 11.28-12.26l-4.16-6.63c-2 3.69-4.13 9.33-6.48 17.23-.21.55-.43 1.1-.64 1.66Zm-25.1.28c1.78 1.91 1.74 0 2.37-1.63a177.15 177.15 0 0 0 5.8-17.28c3-11.52 3.41-17.2-3.85-15.07l-.27.13-20 8.86c.57 2.32 1.24 4.59 2 6.78 4.57 7.54 12.55 18.93 13.95 18.21ZM325 372.07c2.39 2.88 12.91 11.64 13 19.15.11 7.12-6.66 9.87-12.91 12.14a21.3 21.3 0 0 1-6.26 1.53c0-1.11.05-2.23.1-3.35a96 96 0 0 1 6.07-29.47Zm26.72-34.61c.38 2.36 1 10.39.78 22.06a51.71 51.71 0 0 1-1 9.63c-4.81-5.6-10.06-11.2-15.92-16.8a63.61 63.61 0 0 1 15.06-14.85 1.63 1.63 0 0 0 1.11-.04Zm24.09-10.14c30.46 0 53.58 33.23 51.63 74.22s-28.21 74.22-58.67 74.22-53.58-33.23-51.64-74.22 28.24-74.22 58.71-74.22Z"/><path class="cls-41" d="M362.57 453a24.6 24.6 0 0 0 11.28-12.26l-4.16-6.63c-2 3.69-4.13 9.33-6.48 17.23-.21.55-.43 1.1-.64 1.66m-25.1.28c1.78 1.91 1.74 0 2.37-1.63a178.08 178.08 0 0 0 5.8-17.28c3-11.52 3.41-17.2-3.85-15.08l-.27.14-20 8.86c.57 2.32 1.24 4.58 2 6.78 4.57 7.54 12.55 18.93 13.95 18.21ZM325 372.07c2.39 2.88 12.91 11.64 13 19.15.11 7.11-6.66 9.86-12.91 12.14a21.3 21.3 0 0 1-6.26 1.53c0-1.11.05-2.23.1-3.35a96 96 0 0 1 6.07-29.47Zm26.72-34.61c.38 2.36 1 10.38.78 22.06a51.8 51.8 0 0 1-1 9.63c-4.81-5.6-10.06-11.21-15.92-16.81a63.75 63.75 0 0 1 15.06-14.84 1.63 1.63 0 0 0 1.11-.04Zm24.09-10.14c30.46 0 53.58 33.23 51.63 74.22s-28.21 74.22-58.67 74.22-53.58-33.23-51.64-74.22 28.24-74.22 58.71-74.22Z"/><path class="cls-40" d="M391.85 414.62c-9.46 8.37 7.29 28.2 11.43 41.57.19.61 1.32.19 2.56-.4 8.24-9.28 14.61-21.57 18-35.51-6.19-4.59-25.12-11.74-31.99-5.66Zm-.85 42.31c-10.37-29.94-16.77-42.64-27.75-5.59l-7.86 20.07a39.88 39.88 0 0 0 14 2.53 44.35 44.35 0 0 0 23.79-7.22 34.65 34.65 0 0 0-2.18-9.79Zm-43 10.89c1.62-4.54 5.61-14.95 8.59-26.2 5.22-19.75 3.43-31.75-15.05-22.19l-20 8.86c4.35 17.71 13.92 31.9 26.46 39.53Zm-17.06-108c.81 2.77 24.47 19 24.7 32.67.2 11.71-12.19 16.23-23.62 20-5 1.62-9.53 2.76-12.73 2.48a96.08 96.08 0 0 1-.29-13.41 93.26 93.26 0 0 1 11.79-41.68Zm38.23-30.07a145.66 145.66 0 0 1 2.76 30.75c-.35 11.77-5.2 22.41-14.83 15.3a235 235 0 0 0-21.43-23.46c8.87-12.08 20.61-20.34 33.48-22.58Zm17.71 47c-12.19-.61-9.2-29.75-6.72-47.45 13.89 1.36 26 9.88 34.34 22.84-3.8 8.1-18.5 25.09-27.64 24.64ZM395.5 398c-9.2-8.4 10.85-23.88 24.56-35.27a88.69 88.69 0 0 1 6.53 38.8q-.16 3.45-.56 6.81c-5.9 1.53-23.65-4.05-30.53-10.34Zm-19.45-74c32.31 0 56.84 34.73 54.78 77.58s-29.93 77.58-62.25 77.58-56.83-34.73-54.77-77.58S343.74 324 376.05 324Z"/><path class="cls-21" d="M391.85 414.62c-9.46 8.37 7.29 28.2 11.43 41.57.19.61 1.32.19 2.56-.4 8.24-9.28 14.61-21.57 18-35.51-6.23-4.59-25.16-11.74-32-5.66m-.89 42.3c-10.37-29.93-16.77-42.63-27.75-5.58l-7.86 20.07a39.88 39.88 0 0 0 14 2.53 44.35 44.35 0 0 0 23.79-7.22 34.71 34.71 0 0 0-2.13-9.8Zm-43 10.9c1.62-4.54 5.61-14.95 8.59-26.2 5.22-19.75 3.43-31.75-15.05-22.19l-20 8.86c4.4 17.71 13.97 31.9 26.51 39.53Zm-17.06-108c.81 2.77 24.47 19 24.7 32.67.2 11.71-12.19 16.23-23.62 20-5 1.62-9.53 2.76-12.73 2.48a96.08 96.08 0 0 1-.29-13.41 93.34 93.34 0 0 1 11.79-41.69Zm38.23-30.07a145.66 145.66 0 0 1 2.76 30.75c-.35 11.77-5.2 22.4-14.83 15.3a236.17 236.17 0 0 0-21.43-23.47c8.92-12.07 20.66-20.33 33.53-22.57Zm17.71 47c-12.19-.6-9.2-29.74-6.72-47.44 13.89 1.36 26 9.87 34.34 22.83-3.75 8.1-18.45 25.09-27.59 24.63ZM395.5 398c-9.2-8.4 10.85-23.88 24.56-35.26a88.69 88.69 0 0 1 6.53 38.8q-.16 3.45-.56 6.81c-5.9 1.52-23.65-4.06-30.53-10.35Zm-19.45-74c32.31 0 56.84 34.73 54.78 77.58s-29.93 77.58-62.25 77.58-56.83-34.73-54.77-77.58S343.74 324 376.05 324Z"/><path d="M375.13 391c4.4 0 7.74 4.73 7.46 10.55s-4.08 10.56-8.47 10.56-7.73-4.73-7.45-10.56 4.07-10.55 8.46-10.55Z" style="stroke-width:2.76px;stroke:#1a1a18;fill:none;stroke-linecap:round;stroke-linejoin:round"/><path class="cls-21" d="M375.12 391c4.4 0 7.73 4.72 7.45 10.55s-4.07 10.55-8.46 10.55-7.73-4.72-7.45-10.55 4.07-10.55 8.46-10.55"/><path d="M375 394.25c3 0 5.33 3.26 5.13 7.27s-2.8 7.28-5.83 7.28-5.33-3.26-5.13-7.28 2.77-7.27 5.83-7.27Z" style="stroke-width:2.76px;stroke:#1a1a18;fill:none;stroke-linecap:round;stroke-linejoin:round"/><path class="cls-41" d="M375 394.27c3 0 5.32 3.25 5.13 7.27s-2.81 7.27-5.83 7.27-5.33-3.25-5.14-7.27 2.81-7.27 5.84-7.27"/><path class="cls-44" d="M375.19 377.89c2 0 3.54 2.16 3.42 4.83s-1.87 4.84-3.88 4.84-3.55-2.17-3.42-4.84 1.87-4.83 3.88-4.83Z"/><path class="cls-21" d="M375.21 377.88c2 0 3.54 2.17 3.41 4.84s-1.86 4.83-3.88 4.83-3.54-2.16-3.41-4.83 1.86-4.84 3.88-4.84"/><path class="cls-45" d="M375.1 379.38c1.39 0 2.44 1.5 2.36 3.34s-1.29 3.33-2.68 3.33-2.44-1.49-2.35-3.33 1.29-3.34 2.67-3.34Z"/><path class="cls-41" d="M375.14 379.39c1.38 0 2.44 1.49 2.35 3.33s-1.29 3.33-2.67 3.33-2.45-1.49-2.36-3.33 1.29-3.33 2.68-3.33"/><path class="cls-44" d="M361.51 389.86c2 0 3.54 2.17 3.42 4.84s-1.87 4.84-3.88 4.84-3.55-2.17-3.42-4.84 1.87-4.84 3.88-4.84Z"/><path class="cls-21" d="M361.53 389.86c2 0 3.54 2.16 3.41 4.84s-1.86 4.83-3.88 4.83-3.54-2.16-3.41-4.83 1.86-4.84 3.88-4.84"/><path class="cls-45" d="M361.42 391.36c1.39 0 2.45 1.49 2.36 3.33s-1.29 3.31-2.68 3.31-2.44-1.5-2.35-3.34 1.25-3.3 2.67-3.3Z"/><path class="cls-41" d="M361.46 391.36c1.38 0 2.44 1.49 2.35 3.34s-1.29 3.33-2.67 3.33-2.45-1.49-2.36-3.33 1.29-3.34 2.68-3.34"/><path class="cls-44" d="M366.19 412.11c2 0 3.54 2.16 3.42 4.83s-1.87 4.84-3.88 4.84-3.55-2.17-3.42-4.84 1.87-4.83 3.88-4.83Z"/><path class="cls-21" d="M366.21 412.1c2 0 3.54 2.17 3.41 4.84s-1.86 4.83-3.88 4.83-3.54-2.16-3.41-4.83 1.86-4.84 3.88-4.84"/><path class="cls-45" d="M366.1 413.6c1.39 0 2.45 1.5 2.36 3.34s-1.29 3.33-2.68 3.33-2.44-1.49-2.35-3.33 1.29-3.34 2.67-3.34Z"/><path class="cls-41" d="M366.14 413.61c1.38 0 2.44 1.49 2.35 3.33s-1.29 3.33-2.67 3.33-2.45-1.49-2.36-3.33 1.29-3.33 2.68-3.33"/><path class="cls-44" d="M384.55 409.71c2 0 3.54 2.17 3.42 4.84s-1.87 4.83-3.88 4.83-3.55-2.16-3.42-4.83 1.87-4.84 3.88-4.84Z"/><path class="cls-21" d="M384.57 409.71c2 0 3.54 2.16 3.41 4.83s-1.86 4.84-3.88 4.84-3.54-2.17-3.41-4.84 1.86-4.83 3.88-4.83"/><path class="cls-45" d="M384.46 411.21c1.39 0 2.44 1.49 2.36 3.33s-1.29 3.33-2.68 3.33-2.44-1.49-2.35-3.33 1.28-3.33 2.67-3.33Z"/><path class="cls-41" d="M384.5 411.21c1.38 0 2.44 1.49 2.35 3.33s-1.29 3.34-2.67 3.34-2.45-1.5-2.36-3.34 1.29-3.33 2.68-3.33"/><path class="cls-44" d="M388.15 390.55c2 0 3.54 2.16 3.42 4.83s-1.87 4.84-3.88 4.84-3.55-2.17-3.42-4.84 1.87-4.83 3.88-4.83Z"/><path class="cls-21" d="M388.17 390.54c2 0 3.54 2.17 3.41 4.84s-1.86 4.84-3.88 4.84-3.54-2.17-3.41-4.84 1.86-4.84 3.88-4.84"/><path class="cls-45" d="M388.06 392.05c1.39 0 2.44 1.49 2.36 3.33s-1.29 3.33-2.68 3.33-2.44-1.49-2.35-3.33 1.28-3.33 2.67-3.33Z"/><path class="cls-41" d="M388.1 392.05c1.38 0 2.44 1.49 2.35 3.33s-1.29 3.33-2.67 3.33-2.45-1.49-2.36-3.33 1.29-3.33 2.68-3.33"/><path d="M447.21 163.74c-4.32 2.87-7.57 1-9.64-.47l-1.94-4.27 24.49-11.1c-6.81 5.1-6.88 11.85-12.91 15.86m-1.52 10.7a7 7 0 0 0 5.21-2.05c4.23-3.87 6.48-13.93 7.76-17.35s4.06-8.19 7.92-10.09l2.72-1.24c1.24-.56 2.39-.18 3.23 1.68l.36.8 3.82-1.73-6.88-15.18L466 131l.2.44c1.09 2.42.36 3.42-1 4l-31 14.07c-1.37.61-2.61.5-3.7-1.92l-.2-.43-3.82 1.73 13.6 30 3.82-1.73-.42-.93c-.69-1.44.94-1.96 2.21-1.79ZM440.2 106c4.71-3.47 9.59-4.53 12.1-.89 1.92 2.73-3 7.23-8.79 8.6-4.52 1-9.81-1.06-13.11-.48Zm-33.33 8.52-3.38 2.48 9.9 13.41 3.37-2.48-.53-.72c-1.33-1.8-.77-3 .39-3.83l9.9-7.3a3 3 0 0 1 3-.76c4.92 1.62 11.43 8.39 20.57 5.88 8.47-2.36 8.89-12.13 4.32-17.64-6.06-7.19-15.75-7.82-24.13-1.65l-19.37 14.29c-1.15.84-2.29.66-3.54-1ZM383.24 83.3c-2.31 4.41-6.06 4.41-8.56 4.13L371.47 85l15.08-20c-2.85 6.72-.17 12.32-3.31 18.3Zm41.06-7.6 2.52-3.34-13.31-10-2.51 3.32.38.28c2.12 1.6 1.95 2.84 1.05 4L392 97.14c-1 1.25-2 1.79-3.5.69l-.22-.17-2.54 3.34 12.44 9.37 2.53-3.35-.38-.28c-2.13-1.6-2-2.83-1.06-4L420 75.25c.74-1 2-1.3 4 .17Zm-26.25-19.76 2.52-3.35-13.31-10-2.52 3.35.38.29c2.12 1.59 2 2.83 1.06 4l-20.49 27.2c-.9 1.19-2 1.69-4.17.1l-.38-.29-2.52 3.35 25.43 19.15 2.52-3.35-.26-.2c-1.26-1-.18-2.26 1-2.72a6.43 6.43 0 0 0 3.5-4.19c1.87-5.42-1.15-15.53-1.66-19.16a19.17 19.17 0 0 1 1.77-10.94l2.78-3.7c.78-1 2-1.3 4 .17Zm-54.73-26.85c.67-1.49 1.77-2.12 3.62-1.3l1.69.75-15 33.76c-.61 1.37-1.6 1.75-3.59.86l-.74-.33-1.72 3.85 15.23 6.78 1.71-3.85-.43-.19c-2.24-1-2.57-2.27-2.07-3.39l15-33.75 1.8.8c1.74.78 1.86 2 1.22 3.45l.14-.31c-2.14 4.64-7 14.9-7 14.9l3.57 1.61c2.62-5 8.7-13.5 13.18-14.7l1.7-3.83L337.38 19l-1.71 3.83c2.11 4.13-.18 14.29-2.11 19.62l3.61 1.55s4.17-10.37 6.17-15.21Zm-43.11-6.17c2 4.56 2.2 14.92 1.35 24.32l-4.16-1-3.49 6.14-2.17-.54c-.68-12.32 5.57-23.75 8.47-28.92Zm10.47 29.66c1.82-24.11-2.19-41.34-4.58-41.93l-11.22-2.77-1 4.14c4.28.84 4.5 2.8 5 5.86 0 1.55-1.18 4.76-5 10.76-2.65 4.2-11.15 17-11.84 21.83a9.94 9.94 0 0 0-.17 3.23l13.49 3.3 3.79-6.81 2.1.52c-.32 2.72-.73 5.27-1.13 7.47h.06l12.42 3.07 1-4.07-.8-.2c-2.63-.61-2.17-2.73-2.12-4.4Zm-66.56-5.83-.28 4.18L260.47 52l.28-4.18-.89-.06c-2.1-.14-2.78-1.21-2.7-2.43l2.29-34.59a2.18 2.18 0 0 1 2.6-2.14l2.72.17c2 .14 2.37 1.19 2.35 2.69-.76 5.13-2.51 16.21-2.51 16.21l4.48.29c.71-5.61 5.13-16.72 8.77-18.32l.28-4.18L247 3.43l-.27 4.18h.47c2.44.16 3.2 1.1 3.11 2.46L248 44.75c-.09 1.36-1 2.19-3.41 2Zm-33.07-24.89a55.15 55.15 0 0 1 3.49-9.9c7.47 5.54 14.9 19.5 14 23.64a83.89 83.89 0 0 1-3.54 9.85c-7.44-5.62-14.67-19.61-13.95-23.59Zm-3.25-2.18c-3.09 9.24-3.83 12.47.52 20.27A49.28 49.28 0 0 0 219.08 53c2.41 2 5.48 1.93 6.89-.76a72.52 72.52 0 0 0 5.49-13.61c2.94-9.3 4.35-13.22 0-21.08a49 49 0 0 0-10.8-12.92c-2.15-2.09-5.66-1.71-6.89.76a70.58 70.58 0 0 0-5.97 14.29Zm-23.33 23.8c2.65 5.69-.18 9.28-2.29 11.53L177 56.55 168 26c5 8.39 12.78 9.78 16.47 17.48Zm-21.64 17.23 1.35 4.57 36.61-10.77-1.35-4.57-.85.25c-2 .59-2.6-1.37-2.26-2.89a8.08 8.08 0 0 0-1.51-6.58c-4-5.71-15-10.33-18.87-12.46-3.37-1.77-7.95-5.32-10.08-9.45l-1.54-5.21a2.88 2.88 0 0 1 2.13-3.6L171 8.65a3.39 3.39 0 0 1 4.19 2.17l4 14.2 4-1.18c-1.48-6.72-1.66-14.54 1.51-19.23h.12L183.54 0l-35.49 10.44 1.34 4.56.53-.15c2.87-.85 4 0 4.63 1.55l11.86 40.33c.33 1.61-.18 3-3 3.81Zm-80.66 9.93a82.39 82.39 0 0 1-2.74-13.36c10.92 1.14 26.91 10.15 28.33 14.88A96 96 0 0 1 110.62 86c-10.96-1.18-26.71-10.79-28.45-15.36Zm-4.93-.89c2.5 11.24 3.81 15.11 13 20.44a53.5 53.5 0 0 0 18.89 6.64c3.48.79 6.78-1.61 6.51-4.9-.21-3.69-.39-7.2-2.63-17.18-2.44-11.28-3.59-16.21-12.81-21.54a53.58 53.58 0 0 0-18.89-6.64c-3.25-.71-6.78 1.61-6.51 4.91a93.47 93.47 0 0 0 2.44 18.27Zm-7.51 56.13c1.21 1 1.71 2.1-.17 4.41l-.65.79 3.69 3 12.19-14.91-3.69-3-.64.79c-1.72 2.1-3.07 2-4.39 1L40.34 88.7c.79-.76 1.63-1.47 2.43-2.22h-.05c.49-.38 2.83-2.06 6.29 1C54 92.18 62.33 100 62.33 100L65 96.77C60 92.05 52.27 82 52.23 76.3l-3.68-3-3.27 4c-3.49 4.27-8.51 7.7-12.11 12.11s-6 10-9.47 14.27l-3.28 4 3.68 3c5.55-1.08 17 4.48 22.59 8.46l2.67-3.26S40 109.29 34.49 105.3c-3.81-2.86-2.53-5.49-2.29-5.9.58-.92 1.15-1.94 1.73-2.86ZM7 133.31a2 2 0 0 1-.23 2.81c-1 1-3.9 1.82-5.4 5.47-2.37 5.79-2.5 11.64 6.63 18.33 6.64 4.79 16.65 4.63 27.82 3.19 10.12-1.23 20-3.26 22.63 1.15 1-.52 2-1 2.75-1.45-1.17-2.7-3.78-6.64-7.3-8.46-4.94-2.61-10.07-3.14-21.29-2.11-10 .9-20.95 1.41-25.65-1.4-3.64-2.17-4-5-3.13-7.24 2-4.92 9.71-4.79 18.63-2.9a41.07 41.07 0 0 1 7.18 2.13c.42-.94 1.26-2.8 1.74-3.84a174.7 174.7 0 0 1-21.7-11.57Z" style="fill:#e3000f"/></g></g></svg>