<svg width="77" height="77" viewBox="0 0 77 77" fill="none" xmlns="http://www.w3.org/2000/svg">
<g clip-path="url(#clip0_36_127)">
<path d="M76.982 71.5388L70.9326 38.2105C70.8723 37.8778 70.666 37.5897 70.3703 37.4253L55.1444 28.9568C54.9468 28.8467 54.7253 28.8029 54.5077 28.8198L57.2777 64.5539L57.1849 64.5954L75.4069 72.7702C75.5552 72.8365 75.7128 72.8693 75.8697 72.8693C76.118 72.8693 76.364 72.7876 76.5663 72.6293C76.8968 72.3712 77.0567 71.9513 76.982 71.5388Z" fill="#44C868"/>
<path d="M38.5 37.0526L22.9278 28.9419C22.7412 28.8446 22.5342 28.8049 22.3305 28.8185C22.3845 28.8152 22.4387 28.8155 22.4926 28.8197L19.7225 64.5538L38.0373 72.7703C38.1851 72.8365 38.3429 72.8694 38.5 72.8694V37.0526Z" fill="#44C868"/>
<path d="M22.4924 28.8199C22.2748 28.8031 22.0533 28.8468 21.8557 28.9568L6.62966 37.4253C6.334 37.5896 6.12766 37.8776 6.06735 38.2105L0.0181789 71.5387C-0.0567158 71.9511 0.1033 72.371 0.433709 72.6294C0.636285 72.7878 0.882175 72.8694 1.13032 72.8694C1.28718 72.8694 1.44494 72.8368 1.59307 72.7703L19.7158 64.64L22.4924 28.8199Z" fill="#4CE166"/>
<path d="M54.5075 28.8192C54.3577 28.8308 54.2095 28.8706 54.0722 28.9422L38.5 37.0528V72.8696C38.5 72.8696 38.5 72.8696 38.5002 72.8696C38.6573 72.8696 38.8152 72.8368 38.9629 72.7705L57.2777 64.554L54.5075 28.8192Z" fill="#4CE166"/>
<path d="M4.23409 48.3105L3.00525 55.081L21.2016 45.4701L21.6241 40.0201L21.6942 39.1162L4.23409 48.3105Z" fill="#FFDB56"/>
<path d="M21.3654 43.3568L21.2016 45.4701L3.00524 55.081L0.0181789 71.5387C-0.0567158 71.9511 0.1033 72.371 0.433709 72.6294C0.636286 72.7877 0.882175 72.8694 1.13032 72.8694C1.28718 72.8694 1.44494 72.8367 1.59307 72.7703L19.7158 64.64L21.3654 43.3568Z" fill="#A8EEFC"/>
<path d="M38.5046 41.5199L21.6942 39.1162L21.2017 45.4701L38.5001 71.7402V62.1877L28.1777 45.9337L38.5046 47.1689V41.5199Z" fill="#FFBB24"/>
<path d="M69.1717 36.7587L61.8574 32.6904L54.9331 34.3083L55.0197 35.4266L55.3617 39.8382L69.1717 36.7587Z" fill="#FFBB24"/>
<path d="M55.9757 47.7605L55.32 39.3012L54.9331 34.3083L38.5045 41.5199V47.1689L49.2358 42.5022L55.9757 47.7605Z" fill="#FFDB56"/>
<path d="M76.9819 71.5387L75.4625 63.167L55.3617 39.8383L55.9759 47.7605L76.59 72.6083C76.9034 72.3486 77.0548 71.9407 76.9819 71.5387Z" fill="#FFBB24"/>
<path d="M38.5724 4.13049C29.8553 4.13049 22.7633 11.2166 22.7633 19.9267C22.7633 25.3146 25.3213 31.0992 30.3665 37.1196C34.072 41.5416 37.7271 44.3856 37.8809 44.5046C38.0845 44.6621 38.3285 44.7407 38.5725 44.7407C38.8165 44.7407 39.0606 44.6621 39.2642 44.5046C39.4179 44.3856 43.0731 41.5416 46.7786 37.1196C51.8238 31.0992 54.3818 25.3147 54.3818 19.9267C54.3815 11.2166 47.2895 4.13049 38.5724 4.13049ZM44.4271 19.9265C44.4271 23.1572 41.8058 25.7764 38.5724 25.7764C35.339 25.7764 32.7177 23.1574 32.7177 19.9265C32.7177 16.6957 35.339 14.0766 38.5724 14.0766C41.8058 14.0766 44.4271 16.6958 44.4271 19.9265Z" fill="#FF4A4A"/>
<path d="M38.5725 4.13049C37.8816 4.13049 37.2011 4.17531 36.5333 4.26163C44.2909 5.26429 50.3034 11.9069 50.3034 19.9267C50.3034 25.3146 47.7454 31.0992 42.7003 37.1196C40.3173 39.9632 37.9569 42.1528 36.5335 43.3863C37.3236 44.0709 37.8262 44.4622 37.881 44.5046C38.0846 44.6621 38.3285 44.7407 38.5726 44.7407C38.8166 44.7407 39.0606 44.6621 39.2643 44.5046C39.418 44.3856 43.0732 41.5416 46.7787 37.1196C51.8239 31.0992 54.3819 25.3147 54.3819 19.9267C54.3816 11.2166 47.2896 4.13049 38.5725 4.13049Z" fill="#E7343F"/>
<path d="M38.963 72.7703L45.7735 69.715L38.5001 62.1877V72.8694C38.5001 72.8694 38.5001 72.8694 38.5003 72.8694C38.6574 72.8694 38.8152 72.8368 38.963 72.7703Z" fill="#FFDB56"/>
<path d="M70.9324 38.2104C70.8721 37.8778 70.6658 37.5896 70.3701 37.4252L69.1715 36.7585L55.3616 39.8381L75.4622 63.1669L70.9324 38.2104Z" fill="#1EA4E9"/>
<path d="M38.4999 72.8694C38.5001 72.8694 38.5001 72.8694 38.4999 72.8694V71.7402L21.2017 45.4701L19.7223 64.554L38.037 72.7704C38.1849 72.8367 38.3426 72.8694 38.4999 72.8694Z" fill="#1EA4E9"/>
</g>
<defs>
<clipPath id="clip0_36_127">
<rect width="77" height="77" fill="white"/>
</clipPath>
</defs>
</svg>
