<svg width="19" height="25" viewBox="0 0 19 25" fill="none" xmlns="http://www.w3.org/2000/svg">
<path d="M9.5 0V5.36461C11.7454 5.36461 13.5724 7.2083 13.5724 9.47541C13.5724 11.742 11.7454 13.5862 9.5 13.5862V24.9886L16.9541 15.5286C18.2924 13.82 19 11.7667 19 9.58949C19 4.30196 14.7382 0 9.5 0Z" fill="#CD2A00"/>
<path d="M13.5724 9.4754C13.5724 7.20831 11.7454 5.36462 9.5 5.36462V13.5862C11.7454 13.5862 13.5724 11.742 13.5724 9.4754Z" fill="#D8D7DA"/>
<path d="M5.42755 9.47541C5.42755 7.2083 7.25455 5.36461 9.5 5.36461V0C4.26182 0 0 4.30196 0 9.58949C0 11.7667 0.707588 13.82 2.04793 15.5306L9.5 24.9886V13.5862C7.25455 13.5862 5.42755 11.742 5.42755 9.47541Z" fill="#FF3501"/>
<path d="M5.42761 9.4754C5.42761 11.742 7.25464 13.5862 9.50012 13.5862V5.36462C7.25464 5.36462 5.42761 7.20831 5.42761 9.4754Z" fill="white"/>
</svg>
