<svg width="135" height="85" viewBox="0 0 135 85" fill="none" xmlns="http://www.w3.org/2000/svg">
<g clip-path="url(#clip0_0_1)">
<path d="M72.1 0H9.90002C8.79538 0 7.89996 0.895417 7.89996 2.00005V80.0001C7.89996 81.1048 8.79538 82.0002 9.90002 82.0002H72.1C73.2047 82.0002 74.1001 81.1048 74.1001 80.0001V2.00005C74.1001 0.895417 73.2045 0 72.1 0V0Z" fill="#F6B863"/>
<path d="M70.164 71.4191V10.5811C66.329 10.5811 63.2201 7.47215 63.2201 3.63715H18.7801C18.7801 7.47215 15.6712 10.5811 11.8361 10.5811V71.4191C15.6712 71.4191 18.7801 74.528 18.7801 78.363H63.2201C63.2201 74.528 66.329 71.4191 70.164 71.4191Z" fill="#EAA14E"/>
<path d="M61.446 76.3621C62.2189 73.0238 64.8255 70.4169 68.1639 69.6442V12.356C64.8255 11.5831 62.2187 8.97639 61.446 5.63788H20.5539C19.781 8.97622 17.1743 11.5831 13.8358 12.356V69.644C17.1741 70.4169 19.781 73.0236 20.5539 76.3619H61.446V76.3621Z" fill="#EEEFEE"/>
<path d="M58.148 13.0911H23.851V15.0601H58.148V13.0911Z" fill="#DBD8DD"/>
<path d="M53.6699 20.757H28.33V22.726H53.6699V20.757Z" fill="#DBD8DD"/>
<path d="M62.2029 28.424H19.7969V30.393H62.2029V28.424Z" fill="#DBD8DD"/>
<path d="M62.2029 36.0911H19.7969V38.0601H62.2029V36.0911Z" fill="#DBD8DD"/>
<path d="M62.2029 51.424H39.0799V53.393H62.2029V51.424Z" fill="#DBD8DD"/>
<path d="M62.2029 57.4241H49.181V59.3931H62.2029V57.4241Z" fill="#DBD8DD"/>
<path d="M62.2029 63.4241H43.2049V65.3931H62.2029V63.4241Z" fill="#DBD8DD"/>
<path d="M27.092 59.9462L30.6509 60.6001C30.9051 63.1253 31.8185 65.5394 33.3 67.6001C32.4585 67.4126 31.6359 67.149 30.842 66.8131C30.742 67.168 30.701 67.3481 30.6219 67.7131C30.4921 68.2959 30.3972 68.8859 30.3378 69.4801C28.081 65.9341 27.1649 63.4001 27.092 59.9462Z" fill="#EF5261"/>
<path d="M29.495 60.3871C29.6956 62.7792 30.4505 65.0916 31.7001 67.1412C31.3541 67.0223 31.181 66.9573 30.8371 66.8181C30.7371 67.1731 30.6961 67.3532 30.617 67.7181C29.2159 65.432 28.4018 62.835 28.247 60.1581L29.495 60.3871Z" fill="#DA364C"/>
<path d="M26.0001 59.9462L22.4411 60.6001C22.1893 63.1245 21.2786 65.5386 19.8002 67.6001C20.6416 67.4126 21.4643 67.149 22.2582 66.8131C22.3582 67.168 22.3992 67.3481 22.4783 67.7131C22.6081 68.2959 22.703 68.8859 22.7623 69.4801C25.0151 65.9341 25.93 63.4001 26.0001 59.9462Z" fill="#EF5261"/>
<path d="M23.6001 60.3871C23.3983 62.7795 22.6419 65.092 21.3911 67.1412C21.7371 67.0223 21.9102 66.9573 22.2541 66.8181C22.3541 67.1731 22.3951 67.3532 22.4742 67.7181C23.8751 65.432 24.6894 62.835 24.8442 60.1581L23.6001 60.3871Z" fill="#DA364C"/>
<path d="M18.485 55.3941C18.485 54.894 19.717 54.5241 19.81 54.0531C19.903 53.582 18.91 52.7531 19.097 52.308C19.284 51.863 20.5649 51.9831 20.8361 51.5791C21.1071 51.1751 20.5011 50.039 20.8461 49.6941C21.1911 49.3491 22.324 49.9561 22.7311 49.683C23.1382 49.41 23.0062 48.132 23.4601 47.944C23.9141 47.7559 24.7201 48.753 25.2061 48.657C25.6921 48.5609 26.0481 47.3319 26.5471 47.3319C27.0461 47.3319 27.4171 48.564 27.8881 48.657C28.3592 48.75 29.1881 47.757 29.6331 47.944C30.0782 48.1309 29.9581 49.4119 30.3621 49.683C30.7661 49.9542 31.9021 49.3481 32.2471 49.693C32.5921 50.038 31.9851 51.171 32.2581 51.5781C32.5311 51.9851 33.8092 51.8531 33.9972 52.307C34.1852 52.7611 33.1882 53.5671 33.2842 54.0531C33.3802 54.539 34.6093 54.896 34.6093 55.3941C34.6093 55.8921 33.3772 56.264 33.2842 56.7351C33.1912 57.2061 34.1842 58.035 33.9972 58.4801C33.8102 58.9252 32.5293 58.805 32.2581 59.209C31.987 59.6131 32.5931 60.7491 32.2481 61.094C31.9032 61.439 30.7702 60.8321 30.3631 61.1051C29.956 61.3781 30.0881 62.6561 29.6342 62.8442C29.1801 63.0322 28.3741 62.0351 27.8881 62.1312C27.4021 62.2272 27.0461 63.4562 26.5471 63.4562C26.0481 63.4562 25.6771 62.2241 25.2061 62.1312C24.7351 62.0382 23.9062 63.0311 23.4611 62.8442C23.016 62.6572 23.1361 61.3762 22.7321 61.1051C22.3281 60.8341 21.1921 61.44 20.8471 61.0951C20.5022 60.7501 21.1091 59.6171 20.8361 59.2101C20.5631 58.803 19.285 58.935 19.097 58.4811C18.909 58.027 19.9061 57.221 19.81 56.7351C19.714 56.2491 18.485 55.8921 18.485 55.3941Z" fill="#F6C863"/>
<path d="M26.548 60.651C23.6446 60.651 21.291 58.2974 21.291 55.394C21.291 52.4907 23.6446 50.1371 26.548 50.1371C29.4513 50.1371 31.8049 52.4907 31.8049 55.394C31.8049 58.2974 29.4513 60.651 26.548 60.651Z" fill="#EAB54E"/>
</g>
<path d="M75.2343 54.7327V32.9236C78.3305 31.3483 80.7625 28.7193 82.0924 25.5101C83.4223 22.3008 83.5626 18.7222 82.488 15.4187L73.9062 23.9313C73.2991 24.5314 72.4786 24.8658 71.625 24.861C70.7776 24.8562 69.9663 24.5174 69.3672 23.9182L64.5975 19.1486C63.9983 18.5494 63.6595 17.7381 63.6547 16.8908C63.6498 16.0371 63.9842 15.2165 64.5843 14.6094L73.0969 6.02753C71.063 5.36543 68.9082 5.15956 66.7858 5.42456C59.9083 6.27738 54.441 12.0773 54.013 18.9943C53.8325 21.8377 54.4881 24.6717 55.899 27.1469C57.31 29.6221 59.4145 31.6302 61.9531 32.9236V54.7327C58.8569 56.3079 56.4249 58.9369 55.095 62.1462C53.7651 65.3554 53.6248 68.934 54.6993 72.2375L63.2812 63.7249C63.8883 63.1248 64.7088 62.7904 65.5624 62.7952C66.4098 62.8001 67.2211 63.1388 67.8202 63.738L72.5899 68.5077C73.1891 69.1068 73.5278 69.9181 73.5327 70.7655C73.5375 71.6191 73.2031 72.4396 72.603 73.0467L64.0905 81.6287C66.1244 82.2908 68.2792 82.4967 70.4016 82.2317C77.2791 81.3789 82.7464 75.5789 83.1743 68.6619C83.3549 65.8186 82.6993 62.9845 81.2883 60.5094C79.8774 58.0342 77.7729 56.0261 75.2343 54.7327Z" fill="#D6D6D4"/>
<path d="M75.2344 54.7326V38.0728L61.9531 51.3541V54.7326C58.8569 56.3079 56.4249 58.9369 55.095 62.1461C53.7652 65.3554 53.6249 68.934 54.6994 72.2375L63.2812 63.7249C63.8861 63.1267 64.7031 62.7923 65.5537 62.7947C66.4043 62.7971 67.2194 63.136 67.8209 63.7375L72.5906 68.507C73.1921 69.1085 73.531 69.9236 73.5334 70.7743C73.5358 71.625 73.2013 72.442 72.6032 73.0468L64.0906 81.6287C66.1244 82.2908 68.2792 82.4966 70.4016 82.2316C77.2792 81.3788 82.7464 75.5789 83.1744 68.6619C83.3549 65.8185 82.6993 62.9845 81.2884 60.5093C79.8775 58.0341 77.7729 56.026 75.2344 54.7326Z" fill="#C7C7C5"/>
<path d="M67.2656 31.875H69.9219V55.7812H67.2656V31.875Z" fill="#B0B0AE"/>
<path d="M131.016 66.4062V54.7237C131.016 52.8055 130.324 50.9517 129.067 49.5026C127.81 48.0535 126.073 47.1064 124.174 46.8352L112.422 45.1562V37.1875H99.1406V45.1562L86.846 47.7907C85.0631 48.1728 83.4652 49.1547 82.3188 50.5726C81.1724 51.9905 80.547 53.7587 80.5469 55.582V66.4062" fill="#FEC9A3"/>
<path d="M99.1406 37.1875V41.812C101.106 43.1262 103.417 43.8276 105.781 43.8276C108.145 43.8276 110.457 43.1262 112.422 41.812V37.1875H99.1406Z" fill="#FEB784"/>
<path d="M124.174 46.835L112.422 45.1562L109.576 53.125H101.987L99.1406 45.1562L86.8458 47.7908C85.063 48.1728 83.4651 49.1547 82.3187 50.5726C81.1724 51.9906 80.547 53.7587 80.5469 55.582V66.4062H131.016V54.7237C131.016 52.8055 130.324 50.9517 129.067 49.5025C127.81 48.0534 126.073 47.1063 124.174 46.835Z" fill="#E0E0DE"/>
<path d="M131.016 54.7237V69.0625H121.719V82.3438H89.8438V70.3906H80.5469V55.582C80.547 53.7588 81.1724 51.9907 82.3187 50.5728C83.4649 49.155 85.0627 48.173 86.8455 47.7909L99.1406 45.1562L105.781 63.75L112.422 45.1562L124.174 46.8347C126.073 47.1066 127.81 48.054 129.066 49.503C130.323 50.9521 131.015 52.8057 131.016 54.7237Z" fill="#425B82"/>
<path d="M131.016 54.7237V69.0625H121.719V82.3437H89.8438V76.075C105.049 70.0303 117.844 63.6105 128.552 48.963C129.331 49.7063 129.952 50.6002 130.375 51.5905C130.799 52.5807 131.017 53.6467 131.016 54.7237Z" fill="#3C5174"/>
<path d="M104.453 63.75H107.109V82.3438H104.453V63.75Z" fill="#334562"/>
<path d="M109.766 62.4219H121.719V65.0781H109.766V62.4219Z" fill="#334562"/>
<path d="M99.1406 61.0938H101.797V63.75H99.1406V61.0938Z" fill="#334562"/>
<path d="M120.391 58.4375H123.047V79.6875H120.391V58.4375Z" fill="#334562"/>
<path d="M88.5156 58.4375H91.1719V79.6875H88.5156V58.4375Z" fill="#334562"/>
<path d="M94.1388 46.228L95.1563 58.4375L102.405 54.2956L99.1407 43.8281L94.1388 46.228Z" fill="#49648E"/>
<path d="M109.158 54.2956L116.406 58.4375L117.453 45.8749L112.422 43.8281L109.158 54.2956Z" fill="#49648E"/>
<path d="M85.8594 81.0156H89.8438L115.078 75.7031H121.719L124.375 73.0469H131.016V63.75H124.375L115.078 67.7344L80.5469 70.3906V75.7031C80.5469 77.1121 81.1066 78.4633 82.1029 79.4596C83.0992 80.4559 84.4504 81.0156 85.8594 81.0156Z" fill="#FEB784"/>
<path d="M125.703 81.0156H121.719L96.4844 75.7031H89.8438L87.1875 73.0469H80.5469V63.75H87.1875L96.4844 67.7344L131.016 70.3906V75.7031C131.016 77.1121 130.456 78.4633 129.46 79.4596C128.463 80.4559 127.112 81.0156 125.703 81.0156Z" fill="#FEC9A3"/>
<path d="M119.062 21.25H117.734V29.2188H119.062C120.119 29.2188 121.133 28.799 121.88 28.0518C122.627 27.3045 123.047 26.2911 123.047 25.2344C123.047 24.1777 122.627 23.1642 121.88 22.417C121.133 21.6698 120.119 21.25 119.062 21.25Z" fill="#FEB784"/>
<path d="M92.5664 21.25H92.5C91.4433 21.25 90.4298 21.6698 89.6826 22.417C88.9354 23.1642 88.5156 24.1777 88.5156 25.2344C88.5156 26.2911 88.9354 27.3045 89.6826 28.0518C90.4298 28.799 91.4433 29.2188 92.5 29.2188H93.8281V21.25H92.5664Z" fill="#FEB784"/>
<path d="M117.734 19.9219V29.2188C117.734 32.3888 116.475 35.429 114.233 37.6706C111.992 39.9122 108.951 41.1716 105.781 41.1719C105.367 41.1719 104.952 41.1508 104.539 41.1088C101.6 40.8009 98.8794 39.4155 96.9015 37.2198C94.9235 35.0242 93.8287 32.1739 93.8281 29.2188V19.9219C93.8284 16.7518 95.0878 13.7116 97.3294 11.47C99.571 9.22844 102.611 7.96901 105.781 7.96875C106.113 7.96875 106.442 7.98203 106.767 8.00859C106.768 8.00859 106.768 8.00877 106.769 8.00908C106.769 8.00939 106.769 8.00981 106.769 8.01025C109.758 8.25809 112.544 9.62041 114.575 11.8269C116.607 14.0334 117.734 16.9228 117.734 19.9219Z" fill="#FEC9A3"/>
<path d="M117.734 19.9219V29.2188C117.734 32.3888 116.475 35.429 114.233 37.6706C111.991 39.9122 108.951 41.1716 105.781 41.1719C105.366 41.1719 104.952 41.1508 104.539 41.1088C107.046 39.9273 109.165 38.0572 110.649 35.7167C112.133 33.3762 112.921 30.6619 112.92 27.8906V19.9219C112.919 17.5898 112.36 15.2919 111.29 13.2198C110.22 11.1478 108.67 9.36156 106.769 8.01025C109.758 8.25809 112.544 9.62041 114.575 11.8269C116.607 14.0334 117.734 16.9228 117.734 19.9219Z" fill="#FEC093"/>
<path d="M100.104 14.8015C103.852 15.5512 107.711 15.5512 111.459 14.8015L112.422 14.6094L117.734 20.8072V19.9219C117.734 16.7517 116.475 13.7114 114.233 11.4697C111.992 9.22809 108.951 7.96875 105.781 7.96875C102.611 7.96875 99.5708 9.22809 97.3291 11.4697C95.0875 13.7114 93.8281 16.7517 93.8281 19.9219V20.8069L99.1406 14.6094L100.104 14.8015Z" fill="#7A432A"/>
<path d="M104.609 33.2031H101.797V30.5469H104.609C106.225 30.5493 107.833 30.3135 109.38 29.8471L110.151 32.3893C108.354 32.9315 106.486 33.2057 104.609 33.2031Z" fill="#F7A468"/>
<path d="M111.758 26.5622C112.858 26.5622 113.75 25.6703 113.75 24.57C113.75 23.4698 112.858 22.5778 111.758 22.5778C110.658 22.5778 109.766 23.4698 109.766 24.57C109.766 25.6703 110.658 26.5622 111.758 26.5622Z" fill="#7A432A"/>
<path d="M99.8047 26.5619C100.905 26.5619 101.797 25.67 101.797 24.5697C101.797 23.4694 100.905 22.5775 99.8047 22.5775C98.7044 22.5775 97.8125 23.4694 97.8125 24.5697C97.8125 25.67 98.7044 26.5619 99.8047 26.5619Z" fill="#7A432A"/>
<path d="M119.356 18.7697C119.354 19.3538 119.225 19.9303 118.978 20.4595C118.73 20.9887 118.371 21.4578 117.925 21.8346C117.479 22.2113 116.956 22.4865 116.393 22.6413C115.829 22.796 115.239 22.8266 114.663 22.7309L111.021 22.1232C107.552 21.5461 104.011 21.5461 100.542 22.1232L96.8995 22.7309C96.1951 22.8483 95.4721 22.7762 94.8048 22.522C94.1375 22.2678 93.5498 21.8407 93.102 21.2844C92.6542 20.7281 92.3625 20.0628 92.2567 19.3565C92.1509 18.6503 92.2349 17.9287 92.5 17.2656H119.063C119.255 17.7437 119.355 18.2542 119.356 18.7697Z" fill="#49648E"/>
<path d="M119.062 11.9531V17.2656H92.5V11.9531C92.5 9.83968 93.3396 7.8128 94.834 6.31837C96.3284 4.82394 98.3553 3.98438 100.469 3.98438H111.094C111.95 3.98413 112.801 4.12204 113.614 4.39277C113.762 4.44258 113.908 4.4957 114.05 4.55381C115.53 5.14451 116.799 6.16531 117.692 7.48434C118.585 8.80336 119.063 10.36 119.062 11.9531Z" fill="#425B82"/>
<path d="M119.062 11.9531V17.2656H96.4844C104.453 14.6094 110.03 9.95598 114.05 4.55383C115.53 5.14453 116.799 6.16534 117.692 7.48436C118.585 8.80338 119.063 10.36 119.062 11.9531Z" fill="#3C5174"/>
<path d="M100.469 11.9531H111.094V17.2656H100.469V11.9531Z" fill="#E0E0DE"/>
<path d="M100.469 14.6094H111.094V17.2656H100.469V14.6094Z" fill="#D6D6D4"/>
<path d="M119.356 18.7697C119.354 19.3538 119.225 19.9303 118.977 20.4595C118.73 20.9887 118.371 21.4578 117.925 21.8345C117.478 22.2112 116.956 22.4865 116.392 22.6413C115.829 22.796 115.239 22.8266 114.663 22.7309L111.021 22.1232C109.893 21.9353 108.756 21.8084 107.614 21.7431C110.41 20.566 112.704 19.1034 114.389 17.2656H119.062C119.255 17.7437 119.355 18.2542 119.356 18.7697Z" fill="#425B82"/>
<defs>
<clipPath id="clip0_0_1">
<rect width="82" height="82" fill="white" transform="matrix(-1 0 0 1 82 0)"/>
</clipPath>
</defs>
</svg>
