<svg width="127" height="91" viewBox="0 0 127 91" fill="none" xmlns="http://www.w3.org/2000/svg">
<g clip-path="url(#clip0_0_1)">
<path d="M105.717 31.765V35.9525C105.717 37.4198 104.682 38.683 103.243 38.9707L95.5679 40.5058C95.0335 42.4155 94.2762 44.2311 93.3231 45.923L97.6651 52.4363C98.4792 53.6571 98.3182 55.2827 97.2804 56.3201L94.3194 59.2811C93.282 60.3185 91.6564 60.4795 90.4356 59.6658L83.9224 55.3238C82.2304 56.2769 80.4151 57.034 78.5053 57.5682L76.9702 65.2433C76.6825 66.682 75.4191 67.7177 73.952 67.7177H69.7645C68.2972 67.7177 67.034 66.682 66.7463 65.2433L65.2112 57.5682C63.3016 57.0339 61.4859 56.2765 59.794 55.3238L53.2809 59.6658C52.0601 60.4798 50.4344 60.3189 49.397 59.2811L46.4359 56.3201C45.3985 55.2827 45.2375 53.6571 46.0512 52.4363L50.3932 45.923C49.4402 44.2309 48.683 42.4156 48.1484 40.5058L40.4734 38.9707C39.0357 38.6828 38 37.4196 38 35.9524V31.7648C38 30.2975 39.0357 29.0343 40.4744 28.7467L48.1495 27.2116C48.6838 25.3019 49.4412 23.4863 50.3943 21.7944L46.0521 15.2812C45.238 14.0604 45.399 12.4348 46.4367 11.3974L49.3977 8.4364C50.4351 7.39899 52.0608 7.23803 53.2816 8.05172L59.7947 12.3938C61.4868 11.4407 63.3021 10.6835 65.2119 10.1493L66.747 2.47427C67.0345 1.03567 68.2977 0 69.765 0H73.9525C75.4198 0 76.683 1.03567 76.9707 2.47444L78.5058 10.1495C80.4155 10.6838 82.2311 11.4412 83.923 12.3939L90.4363 8.05189C91.6571 7.23786 93.2827 7.39882 94.3201 8.43657L97.2811 11.3976C98.3185 12.435 98.4795 14.0606 97.6658 15.2814L93.3238 21.7946C94.2769 23.4866 95.034 25.3021 95.5686 27.2118L103.244 28.7468C104.682 29.0345 105.717 30.2977 105.717 31.765Z" fill="#BFBFBF"/>
<path d="M86.719 33.8588C86.719 42.0659 80.0659 48.719 71.8588 48.719C63.6516 48.719 56.9985 42.0659 56.9985 33.8588C56.9985 25.6516 63.6516 18.9985 71.8588 18.9985C80.0659 18.9985 86.719 25.6515 86.719 33.8588Z" fill="#E2E2E2"/>
<path d="M79.2483 33.8588C79.2483 37.9401 75.9398 41.2486 71.8585 41.2486C67.7772 41.2486 64.4688 37.9401 64.4688 33.8588C64.4688 29.7775 67.7772 26.469 71.8585 26.469C75.9398 26.469 79.2483 29.7775 79.2483 33.8588Z" fill="#6D6D6D"/>
<path d="M74.7608 33.8587C74.7608 37.1575 72.5989 39.9505 69.6148 40.9005C66.6308 39.9505 64.4688 37.1575 64.4688 33.8587C64.4688 30.56 66.6306 27.7669 69.6148 26.817C72.5989 27.7668 74.7608 30.5598 74.7608 33.8587Z" fill="#999999"/>
<path d="M127 65.3742V68.1259C127 69.0899 126.319 69.9201 125.374 70.1093L120.33 71.118C119.979 72.3729 119.482 73.566 118.855 74.6778L121.709 78.958C122.243 79.7604 122.138 80.8285 121.456 81.5103L119.51 83.4561C118.828 84.1379 117.76 84.2438 116.958 83.7089L112.678 80.8555C111.566 81.4818 110.373 81.9795 109.118 82.3306L108.109 87.3742C107.92 88.3197 107.09 89.0002 106.126 89.0002H103.374C102.41 89.0002 101.58 88.3195 101.39 87.3742L100.382 82.3306C99.1267 81.9795 97.9336 81.4818 96.8218 80.8555L92.5416 83.7089C91.7392 84.2436 90.6711 84.1381 89.9893 83.4561L88.0435 81.5103C87.3617 80.8285 87.2558 79.7602 87.7907 78.958L90.6441 74.6778C90.0178 73.5658 89.5201 72.3729 89.169 71.118L84.1254 70.1093C83.1799 69.9203 82.4994 69.0899 82.4994 68.1259V65.3742C82.4994 64.4101 83.1801 63.5799 84.1254 63.3906L89.169 62.3819C89.5201 61.127 90.0178 59.9339 90.6441 58.8221L87.7907 54.5419C87.256 53.7397 87.3615 52.6714 88.0435 51.9896L89.9893 50.0438C90.6711 49.362 91.7392 49.2562 92.5416 49.791L96.8218 52.6444C97.9338 52.0181 99.1267 51.5204 100.382 51.1693L101.39 46.1257C101.579 45.1802 102.409 44.4997 103.374 44.4997H106.126C107.09 44.4997 107.92 45.1804 108.109 46.1257L109.118 51.1693C110.373 51.5204 111.566 52.0181 112.678 52.6444L116.958 49.791C117.76 49.2563 118.828 49.3618 119.51 50.0438L121.456 51.9896C122.138 52.6714 122.244 53.7395 121.709 54.5419L118.855 58.8221C119.482 59.9341 119.979 61.127 120.33 62.3819L125.374 63.3906C126.319 63.5799 127 64.41 127 65.3742Z" fill="#5D7EAC"/>
<path d="M115.875 66.75C115.875 72.8941 110.894 77.875 104.75 77.875C98.6059 77.875 93.625 72.8941 93.625 66.75C93.625 60.6059 98.6059 55.625 104.75 55.625C110.894 55.625 115.875 60.6059 115.875 66.75Z" fill="#ABC5FF"/>
<path d="M111.425 66.75C111.425 70.4366 108.437 73.425 104.75 73.425C101.064 73.425 98.0751 70.4366 98.0751 66.75C98.0751 63.0635 101.064 60.075 104.75 60.075C108.437 60.075 111.425 63.0635 111.425 66.75Z" fill="#5D7EAC"/>
<path d="M106.975 66.75C106.975 69.656 105.117 72.1272 102.525 73.0436C99.9328 72.1272 98.0751 69.656 98.0751 66.75C98.0751 63.8439 99.9328 61.3728 102.525 60.4564C105.117 61.3728 106.975 63.8439 106.975 66.75Z" fill="#809DED"/>
</g>
<path d="M54.6323 87.934V17.8948C54.6323 16.2014 53.2596 14.8289 51.5662 14.8289H8.74664C7.05324 14.8289 5.68066 16.2016 5.68066 17.8948V87.934C5.68066 89.6274 7.05341 91 8.74664 91H51.5664C53.2596 91 54.6323 89.6273 54.6323 87.934Z" fill="#FFC250"/>
<path d="M61.619 14.8287H51.3577C53.0511 14.8287 54.4238 16.2014 54.4238 17.8946V87.9338C54.4238 89.6272 53.0511 90.9998 51.3577 90.9998H61.619C63.3124 90.9998 64.6852 89.6271 64.6852 87.9338V17.8948C64.6852 16.2014 63.3124 14.8287 61.619 14.8287Z" fill="#EAB14D"/>
<path d="M10.692 84.8927V20.936C10.692 20.3307 11.1827 19.8401 11.7879 19.8401H58.5778C59.1831 19.8401 59.6737 20.3309 59.6737 20.936V84.8927C59.6737 85.498 59.183 85.9886 58.5778 85.9886H11.7879C11.1826 85.9886 10.692 85.498 10.692 84.8927Z" fill="#F5F5F5"/>
<path d="M58.5778 19.8401H48.3164C48.9217 19.8401 49.4123 20.3309 49.4123 20.936V84.8927C49.4123 85.498 48.9216 85.9886 48.3164 85.9886H58.5778C59.1831 85.9886 59.6736 85.4978 59.6736 84.8927V20.936C59.6736 20.3309 59.1831 19.8401 58.5778 19.8401Z" fill="#EAEAEA"/>
<path d="M41.6961 11.8157V10.2016C41.6961 8.98579 40.7105 8 39.4945 8H30.8708C29.6548 8 28.6692 8.98579 28.6692 10.2016V11.8157C28.6692 12.3129 28.266 12.7161 27.7688 12.7161H24.1797C22.9858 12.7161 22.0178 13.684 22.0178 14.878V19.8401H48.3474V14.878C48.3474 13.684 47.3795 12.7161 46.1856 12.7161H42.5965C42.0993 12.7161 41.6961 12.3129 41.6961 11.8157Z" fill="#C2D0DA"/>
<path d="M17.0667 37.6323V27.9806C17.0667 26.9113 17.9336 26.0444 19.0029 26.0444H28.6546C29.7238 26.0444 30.5908 26.9113 30.5908 27.9806V37.6323C30.5908 38.7015 29.7238 39.5685 28.6546 39.5685H19.0029C17.9334 39.5685 17.0667 38.7015 17.0667 37.6323Z" fill="#66B49D"/>
<path d="M17.0667 57.7404V48.0887C17.0667 47.0194 17.9336 46.1525 19.0029 46.1525H28.6546C29.7238 46.1525 30.5908 47.0194 30.5908 48.0887V57.7404C30.5908 58.8096 29.7238 59.6766 28.6546 59.6766H19.0029C17.9334 59.6766 17.0667 58.8096 17.0667 57.7404Z" fill="#66B49D"/>
<path d="M17.0667 77.8482V68.1965C17.0667 67.1272 17.9336 66.2603 19.0029 66.2603H28.6546C29.7238 66.2603 30.5908 67.1272 30.5908 68.1965V77.8482C30.5908 78.9174 29.7238 79.7844 28.6546 79.7844H19.0029C17.9334 79.7844 17.0667 78.9176 17.0667 77.8482Z" fill="#66B49D"/>
<path d="M23.0117 36.2628C23.0102 36.2628 23.0089 36.2628 23.0074 36.2628C22.4545 36.2615 21.9301 35.9937 21.6044 35.5467L20.1418 33.5382C19.7346 32.9789 19.8578 32.1954 20.4171 31.7882C20.9764 31.3812 21.7599 31.5044 22.1669 32.0635L23.0149 33.2282L25.4944 29.8596C25.9045 29.3024 26.6885 29.1835 27.2455 29.5934C27.8026 30.0034 27.9218 30.7875 27.5117 31.3447L24.4134 35.5539C24.0868 35.9979 23.5628 36.2628 23.0117 36.2628Z" fill="#F6F9F9"/>
<path d="M23.0115 56.8084C23.0099 56.8084 23.0084 56.8084 23.007 56.8084C22.454 56.8069 21.9296 56.5393 21.6041 56.092L20.1418 54.0838C19.7346 53.5245 19.8578 52.7411 20.4171 52.3338C20.9764 51.9268 21.7599 52.05 22.1669 52.6091L23.0149 53.7739L25.4944 50.4052C25.9045 49.8482 26.6885 49.7291 27.2455 50.139C27.8026 50.549 27.9218 51.3331 27.5117 51.8903L24.4134 56.0995C24.0868 56.5438 23.5628 56.8084 23.0115 56.8084Z" fill="#F6F9F9"/>
<path d="M23.0114 76.479C23.01 76.479 23.0085 76.479 23.0072 76.4788C22.4544 76.4775 21.9298 76.2099 21.6043 75.7631L20.1418 73.7542C19.7346 73.195 19.8579 72.4117 20.4172 72.0044C20.9768 71.5972 21.76 71.7207 22.167 72.2799L23.0148 73.4445L25.4945 70.0758C25.9046 69.5188 26.6886 69.3997 27.2456 69.8096C27.8027 70.2196 27.9219 71.0037 27.5118 71.5609L24.4135 75.7701C24.0866 76.2141 23.5628 76.479 23.0114 76.479Z" fill="#F6F9F9"/>
<path d="M52.3115 31.4418H36.8277C36.1359 31.4418 35.5752 30.8811 35.5752 30.1893C35.5752 29.4976 36.1359 28.9369 36.8277 28.9369H52.3115C53.0033 28.9369 53.564 29.4976 53.564 30.1893C53.564 30.8811 53.0033 31.4418 52.3115 31.4418Z" fill="#DDEAFB"/>
<path d="M44.5696 36.6759H36.8278C36.1361 36.6759 35.5753 36.1151 35.5753 35.4234C35.5753 34.7317 36.1361 34.171 36.8278 34.171H44.5696C45.2614 34.171 45.8221 34.7317 45.8221 35.4234C45.8221 36.1151 45.2614 36.6759 44.5696 36.6759Z" fill="#DDEAFB"/>
<path d="M47.2166 51.5499H36.8277C36.1359 51.5499 35.5752 50.9892 35.5752 50.2974C35.5752 49.6057 36.1359 49.045 36.8277 49.045H47.2166C47.9083 49.045 48.4691 49.6057 48.4691 50.2974C48.4691 50.9892 47.9083 51.5499 47.2166 51.5499Z" fill="#DDEAFB"/>
<path d="M44.5695 56.784H36.8277C36.1359 56.784 35.5752 56.2232 35.5752 55.5315C35.5752 54.8398 36.1359 54.2791 36.8277 54.2791H44.5695C45.2612 54.2791 45.822 54.8398 45.822 55.5315C45.822 56.2232 45.2612 56.784 44.5695 56.784Z" fill="#DDEAFB"/>
<path d="M72.4484 40.7004L71.2186 39.0803L66.6172 36.1664L64.8484 35.8877L41.2866 73.1198C40.7181 74.0176 40.301 75.0027 40.052 76.0357C42.9187 76.0712 45.5208 77.7189 46.7786 80.2953C47.606 79.6285 48.3181 78.8303 48.8866 77.9325L72.4484 40.7004Z" fill="#FC8086"/>
<path d="M75.7748 29.235L73.7866 27.9759C72.2366 26.9944 70.1843 27.4556 69.2032 29.0058L67.38 31.887L67.9617 33.0595L73.4944 36.5632L74.9802 36.6997L76.8046 33.8167C77.785 32.2673 77.3241 30.2161 75.7748 29.235Z" fill="#8C9BA6"/>
<path d="M64.851 35.877L67.3839 31.8764L74.9853 36.6892L72.4524 40.6898L64.851 35.877Z" fill="#C9E2E7"/>
<path d="M46.7786 80.2954L40.0697 85.7018C39.1233 86.4645 37.7483 85.5938 38.0331 84.4122L40.052 76.0358C42.9188 76.0712 45.5209 77.719 46.7786 80.2954Z" fill="#7C8B96"/>
<path d="M45.0189 77.9743L69.7177 38.9711L67.6014 37.631L42.9026 76.6342C43.6775 76.9607 44.3924 77.4134 45.0189 77.9743Z" fill="#FB636F"/>
<defs>
<clipPath id="clip0_0_1">
<rect width="89" height="89" fill="white" transform="translate(38)"/>
</clipPath>
</defs>
</svg>
