<svg width="131" height="131" viewBox="0 0 131 131" fill="none" xmlns="http://www.w3.org/2000/svg">
    <path d="M128.274 94.1561H117.356C115.848 94.1561 114.625 92.9331 114.625 91.4299C114.625 89.9188 115.848 88.6952 117.356 88.6952H128.274C129.781 88.6952 131 89.9185 131 91.4299C131 92.9331 129.781 94.1561 128.274 94.1561Z"
          fill="#434A54"/>
    <path d="M125.463 85.305C125.403 85.077 124.036 79.6361 121.957 74.0951C118.667 65.3203 115.564 61.4063 111.898 61.4063H90.0625C85.5488 61.4063 81.8749 65.0785 81.8749 69.5937V85.9687C81.8749 90.4863 85.5488 94.1561 90.0625 94.1561H117.356C121.869 94.1561 125.543 90.4863 125.543 85.9687C125.543 85.7448 125.515 85.521 125.463 85.305Z"
          fill="#656D78"/>
    <path d="M111.806 51.4757C109.076 41.0654 103.083 28.6562 90.0625 28.6562H8.18764C3.67395 28.6562 0 31.9523 0 36.0041V86.8082C0 90.8621 3.67395 94.1561 8.18764 94.1561H84.6055C91.2219 94.1561 96.9069 93.1009 101.508 91.03C105.334 89.3029 108.421 86.8722 110.683 83.8097C114.581 78.5328 114.625 73.1755 114.625 72.9516C114.625 72.5121 114.593 62.0859 111.806 51.4757Z"
          fill="#E6E9ED"/>
    <path d="M0.000244141 66.8654H114.333C114.006 62.7936 113.302 57.1605 111.807 51.476C111.255 49.3692 110.567 47.1823 109.716 45.0313H0.000244141V66.8654Z"
          fill="#4FC2E9"/>
    <path d="M73.6878 39.5724H51.8557C50.3484 39.5724 49.1251 40.7957 49.1251 42.303V91.4299C49.1251 92.9331 50.3484 94.1561 51.8557 94.1561H73.6878C75.1987 94.1561 76.4181 92.9331 76.4181 91.4299V42.303C76.4181 40.7957 75.1987 39.5724 73.6878 39.5724Z"
          fill="#A0D468"/>
    <path d="M56.5169 64.9344C57.5803 65.9998 57.5803 67.729 56.5169 68.7944C55.4495 69.8575 53.7227 69.8575 52.6552 68.7944C51.5918 67.729 51.5918 65.9998 52.6552 64.9344C53.7227 63.869 55.4495 63.869 56.5169 64.9344Z"
          fill="#434A54"/>
    <path d="M30.0074 45.031H24.5465V66.8639H30.0074V45.031Z" fill="#3BAFDA"/>
    <path d="M43.668 80.5076C40.4098 80.5076 37.4835 81.9468 35.4806 84.2176C33.4777 81.9468 30.5511 80.5076 27.293 80.5076C21.2722 80.5076 16.375 85.4089 16.375 91.4299C16.375 97.4465 21.2725 102.344 27.293 102.344C30.5511 102.344 33.4775 100.905 35.4806 98.6337C37.4835 100.905 40.4098 102.344 43.668 102.344C49.6887 102.344 54.586 97.4463 54.586 91.4299C54.5862 85.4092 49.6887 80.5076 43.668 80.5076Z"
          fill="#434A54"/>
    <path d="M29.224 89.4948C30.2873 90.5622 30.2873 92.2934 29.224 93.3565C28.1568 94.4199 26.4297 94.4199 25.3622 93.3565C24.2989 92.2934 24.2989 90.5622 25.3622 89.4948C26.4297 88.4314 28.1568 88.4314 29.224 89.4948Z"
          fill="#F5F7FA"/>
    <path d="M45.599 89.4948C46.6623 90.5622 46.6623 92.2934 45.599 93.3565C44.5315 94.4199 42.8044 94.4199 41.7372 93.3565C40.6739 92.2934 40.6739 90.5622 41.7372 89.4948C42.8044 88.4314 44.5315 88.4314 45.599 89.4948Z"
          fill="#F5F7FA"/>
</svg>
