<svg width="192" height="63" viewBox="0 0 192 63" fill="none" xmlns="http://www.w3.org/2000/svg">
<path d="M61.2091 15H71.8491C73.5291 15.56 74.9557 16.6 76.1291 18.12C77.3291 19.6133 77.9291 21.4533 77.9291 23.64C77.9291 27.2133 76.5157 29.84 73.6891 31.52L77.7291 43H72.1291L68.7291 32.8H66.6091V43H61.2091V15ZM66.6091 19.8V28.32H70.0491C70.5024 28.2133 70.9957 27.76 71.5291 26.96C72.0891 26.1333 72.3691 25.1733 72.3691 24.08C72.3691 22.9867 72.1291 22.0267 71.6491 21.2C71.1957 20.3733 70.7424 19.9067 70.2891 19.8H66.6091ZM92.7384 43L91.8984 38.56H85.5784L84.7384 43H79.2984L84.6984 15H92.9784L98.0984 43H92.7384ZM88.6584 20.2L87.0984 29.52L86.2184 34.28H91.2184L90.2984 29.52L88.7384 20.2H88.6584ZM110.628 30.2H110.468H110.628L112.748 21.44L114.468 15H119.468L121.268 43H116.028L115.268 27.72H115.068L112.188 39H108.908L106.028 27.72H105.828L105.068 43H99.8278L101.628 15H106.628L108.348 21.44L110.468 30.2H110.628ZM136.41 43L135.57 38.56H129.25L128.41 43H122.97L128.37 15H136.65L141.77 43H136.41ZM132.33 20.2L130.77 29.52L129.89 34.28H134.89L133.97 29.52L132.41 20.2H132.33ZM142.398 33.76V29.2H150.638V33.76H142.398ZM166.033 43L158.553 27.52L158.353 27.6L158.593 32.32V43H153.553V15H157.593L164.953 31.08L165.153 31L164.713 26.08V15H169.753V43H166.033ZM186.072 43L178.592 27.52L178.392 27.6L178.632 32.32V43H173.592V15H177.632L184.992 31.08L185.192 31L184.752 26.08V15H189.792V43H186.072Z" fill="#FF3D00"/>
<path d="M6.67183 22.8803L6.23065 22.6019C6.21886 22.6436 6.20769 22.6853 6.19205 22.7266L6.12502 22.9056C6.00274 23.2321 5.77971 23.4927 5.50427 23.6695L6.20993 24.1147L6.67183 22.8803Z" fill="#F45E0A"/>
<path d="M4.08953 23.8293L2.52343 23.2628C1.84073 23.0159 1.41661 22.344 1.49501 21.6334L1.54051 21.22C1.59718 20.7059 2.06782 20.3347 2.59087 20.3916L4.87867 20.6403C5.90222 20.7516 6.54795 21.7771 6.19207 22.7266L6.12504 22.9056C5.82259 23.7129 4.91117 24.1264 4.08953 23.8293Z" fill="#F90000"/>
<path d="M41.0837 22.9058L41.0166 22.7268C41.0012 22.6853 40.9898 22.6436 40.9781 22.6021L40.5369 22.8804L40.9986 24.1148L41.7042 23.6696C41.429 23.4928 41.2062 23.2322 41.0837 22.9058Z" fill="#F45E0A"/>
<path d="M43.1194 23.8293L44.6855 23.2628C45.3682 23.0159 45.7923 22.344 45.7139 21.6334L45.6684 21.22C45.6118 20.7059 45.1411 20.3347 44.6181 20.3916L42.3303 20.6403C41.3067 20.7516 40.661 21.7771 41.0169 22.7266L41.0839 22.9056C41.3864 23.7129 42.2978 24.1264 43.1194 23.8293Z" fill="#F90000"/>
<path d="M23.6044 26.6332C23.6044 25.5311 24.5138 24.6377 25.6356 24.6377H41.1942H6.01455L3.96218 27.7058C3.40602 28.5371 3.10986 29.5101 3.10986 30.5051V37.4509C3.10986 39.5623 4.85207 41.2738 7.00133 41.2738L23.6046 41.2736V26.6332H23.6044Z" fill="#F90000"/>
<path d="M7.00113 41.2739C5.87277 41.2739 4.85978 40.7994 4.14905 40.0457V43.3989C4.14905 44.1754 4.7897 44.8047 5.58006 44.8047H9.87331C10.6637 44.8047 11.3043 44.1754 11.3043 43.3989V41.2739H7.00113Z" fill="#414042"/>
<path d="M23.6044 39.9993L5.70399 39.9995C4.96218 39.9995 4.27135 39.792 3.68127 39.438C4.36479 40.5375 5.5937 41.2739 7.00115 41.2739L23.6044 41.2737V39.9993Z" fill="#F45E0A"/>
<path d="M23.6043 30.8535H17.289C16.4383 30.8535 15.8177 31.6445 16.0347 32.4527L16.6477 34.7368C16.7978 35.2963 17.3129 35.6862 17.902 35.6862H23.6043V30.8535Z" fill="#414042"/>
<path d="M23.6044 26.6332C23.6044 25.5311 24.5137 24.6377 25.6356 24.6377H39.5939C39.5937 24.6377 39.5935 24.6377 39.5933 24.6377H7.61537C7.42768 24.6377 7.25482 24.7373 7.16301 24.8979L6.45614 26.1351C6.06289 26.8234 6.39439 27.6936 7.15103 27.959L12.5448 29.8516C12.8249 29.9497 13.1201 30 13.4174 30H23.6046V26.6332H23.6044Z" fill="#F45E0A"/>
<path d="M13.0496 31.9192C12.0271 30.9275 9.69296 29.3432 5.17018 29.2652C4.95162 29.2614 4.75296 29.3963 4.67618 29.5975C4.39262 30.3416 3.93335 32.1032 5.69708 32.5845C7.3688 33.0407 10.969 32.8881 12.7185 32.7787C13.1603 32.751 13.3644 32.2246 13.0496 31.9192Z" fill="white"/>
<path d="M13.0495 31.9193C12.7973 31.6746 12.4643 31.3937 12.0392 31.1085C12.0534 31.3661 11.8668 31.6232 11.5619 31.6421C9.81235 31.7515 6.21216 31.9043 4.54044 31.448C4.5118 31.4402 4.48885 31.4294 4.46143 31.4208C4.58533 31.9247 4.93125 32.3755 5.69744 32.5844C7.36916 33.0406 10.9693 32.8879 12.7189 32.7786C13.1602 32.751 13.3644 32.2246 13.0495 31.9193Z" fill="#F1F2F2"/>
<path d="M33.2956 12.9949H13.913C11.7839 12.9949 9.88081 14.2997 9.14651 16.2631L6.01453 24.6375H41.1941L38.0622 16.2629C37.3279 14.2997 35.4248 12.9949 33.2956 12.9949Z" fill="#F90000"/>
<path d="M7.95152 22.5914L10.3419 16.3084C10.6387 15.5285 11.3971 15.0115 12.2446 15.0115H34.9643C35.8117 15.0115 36.5702 15.5285 36.867 16.3084L39.2573 22.5912C39.3567 22.852 39.1603 23.13 38.8769 23.13H8.33198C8.04862 23.1304 7.8522 22.8524 7.95152 22.5914Z" fill="#F1F2F2"/>
<path d="M23.6044 37.074H12.3082C11.9213 37.074 11.5546 37.2436 11.3082 37.5367L10.5831 38.3992C10.3036 38.7316 10.5443 39.2335 10.983 39.2335H23.6044V37.074Z" fill="#414042"/>
<path d="M7.6741 39.6312C8.5047 39.6312 9.17804 38.9697 9.17804 38.1537C9.17804 37.3378 8.5047 36.6763 7.6741 36.6763C6.8435 36.6763 6.17017 37.3378 6.17017 38.1537C6.17017 38.9697 6.8435 39.6312 7.6741 39.6312Z" fill="#D1D3D4"/>
<path d="M7.67415 39.0531C8.17976 39.0531 8.58964 38.6505 8.58964 38.1538C8.58964 37.6571 8.17976 37.2544 7.67415 37.2544C7.16854 37.2544 6.75867 37.6571 6.75867 38.1538C6.75867 38.6505 7.16854 39.0531 7.67415 39.0531Z" fill="white"/>
<path d="M42.8726 24.6383H25.6356C24.5138 24.6383 23.6044 25.5317 23.6044 26.6338V58.2016C23.6044 59.3037 24.5138 60.1971 25.6356 60.1971H48.4831C49.605 60.1971 50.5144 59.3037 50.5144 58.2016V32.143L42.8726 24.6383Z" fill="#FCC4AE"/>
<path d="M24.8234 40.2021C24.5991 40.2021 24.4171 40.0233 24.4171 39.803V29.2268C24.4171 29.0065 24.5991 28.8277 24.8234 28.8277C25.0476 28.8277 25.2296 29.0065 25.2296 29.2268V39.803C25.2296 40.0235 25.0476 40.2021 24.8234 40.2021ZM24.8234 28.0295C24.5991 28.0295 24.4171 27.8507 24.4171 27.6304V27.6003C24.4171 27.38 24.5991 27.2012 24.8234 27.2012C25.0476 27.2012 25.2296 27.38 25.2296 27.6003V27.6304C25.2296 27.8509 25.0476 28.0295 24.8234 28.0295Z" fill="#FFD2C0"/>
<path d="M50.5144 32.1426L48.4831 32.143V56.2056C48.4831 57.3078 47.5737 58.2011 46.4519 58.2011H23.6044C23.6044 59.3033 24.5138 60.1966 25.6356 60.1966H48.4831C49.605 60.1966 50.5144 59.3033 50.5144 58.2011V32.1426Z" fill="#F2AD97"/>
<path d="M50.5144 32.1426L49.4988 32.1428V57.2034C49.4988 58.3055 48.5894 59.1989 47.4675 59.1989H24.62C24.3222 59.1989 24.0401 59.1344 23.7852 59.0213C24.1039 59.7139 24.8115 60.1966 25.6356 60.1966H48.4831C49.605 60.1966 50.5144 59.3033 50.5144 58.2011V32.1426Z" fill="#E59076"/>
<path d="M42.8727 30.148V24.6376L50.5144 32.1423L44.9043 32.1433C43.7825 32.1437 42.8727 31.2501 42.8727 30.148Z" fill="#E59076"/>
<path d="M45.4363 55.6068H28.6827C28.4585 55.6068 28.2765 55.428 28.2765 55.2077C28.2765 54.9874 28.4585 54.8086 28.6827 54.8086H45.4363C45.6605 54.8086 45.8425 54.9874 45.8425 55.2077C45.8425 55.428 45.6607 55.6068 45.4363 55.6068Z" fill="#58595B"/>
<path d="M45.4363 51.6158H28.6827C28.4585 51.6158 28.2765 51.437 28.2765 51.2167C28.2765 50.9964 28.4585 50.8176 28.6827 50.8176H45.4363C45.6605 50.8176 45.8425 50.9964 45.8425 51.2167C45.8425 51.437 45.6607 51.6158 45.4363 51.6158Z" fill="#58595B"/>
<path d="M45.4363 47.6247H28.6827C28.4585 47.6247 28.2765 47.4459 28.2765 47.2256C28.2765 47.0053 28.4585 46.8265 28.6827 46.8265H45.4363C45.6605 46.8265 45.8425 47.0053 45.8425 47.2256C45.8425 47.4459 45.6607 47.6247 45.4363 47.6247Z" fill="#58595B"/>
<path d="M45.4363 43.6338H28.6827C28.4585 43.6338 28.2765 43.455 28.2765 43.2347C28.2765 43.0144 28.4585 42.8356 28.6827 42.8356H45.4363C45.6605 42.8356 45.8425 43.0144 45.8425 43.2347C45.8425 43.455 45.6607 43.6338 45.4363 43.6338Z" fill="#58595B"/>
<path d="M42.2248 34.8087V33.4479C42.2248 33.2386 42.0521 33.069 41.839 33.069H40.9069C40.7671 32.3929 40.4958 31.7639 40.121 31.208L40.781 30.5596C40.9317 30.4116 40.9317 30.1717 40.781 30.0236L39.8015 29.0614C39.6508 28.9133 39.4066 28.9133 39.2559 29.0614L38.5959 29.7099C38.03 29.3418 37.3898 29.0752 36.7016 28.9379V28.0221C36.7016 27.8128 36.5289 27.6432 36.3159 27.6432H34.9308C34.7177 27.6432 34.545 27.8128 34.545 28.0221V28.9379C33.8566 29.0752 33.2166 29.3418 32.6507 29.7099L31.9907 29.0614C31.84 28.9133 31.5959 28.9133 31.4451 29.0614L30.4657 30.0236C30.3149 30.1717 30.3149 30.4116 30.4657 30.5596L31.1256 31.208C30.7508 31.7639 30.4795 32.3929 30.3397 33.069H29.4076C29.1945 33.069 29.0219 33.2386 29.0219 33.4479V34.8087C29.0219 35.018 29.1945 35.1876 29.4076 35.1876H30.3397C30.4795 35.8637 30.7508 36.4927 31.1256 37.0486L30.4657 37.697C30.3149 37.845 30.3149 38.0849 30.4657 38.233L31.4451 39.1952C31.5959 39.3433 31.84 39.3433 31.9907 39.1952L32.6507 38.5469C33.2166 38.915 33.8568 39.1816 34.545 39.3189V40.2347C34.545 40.444 34.7177 40.6136 34.9308 40.6136H36.3159C36.5289 40.6136 36.7016 40.444 36.7016 40.2347V39.3189C37.39 39.1816 38.03 38.915 38.5959 38.5469L39.2559 39.1952C39.4066 39.3433 39.6508 39.3433 39.8015 39.1952L40.781 38.233C40.9317 38.0849 40.9317 37.845 40.781 37.697L40.121 37.0486C40.4958 36.4927 40.7671 35.8637 40.9069 35.1876H41.839C42.0521 35.1878 42.2248 35.018 42.2248 34.8087ZM35.6232 36.9221C34.0526 36.9221 32.7795 35.6713 32.7795 34.1284C32.7795 32.5855 34.0526 31.3347 35.6232 31.3347C37.1938 31.3347 38.467 32.5855 38.467 34.1284C38.467 35.6713 37.1938 36.9221 35.6232 36.9221Z" fill="#58595B"/>
<path d="M41.8392 33.069H41.8187V34.4096C41.8187 34.6189 41.6461 34.7885 41.433 34.7885H40.5009C40.3611 35.4646 40.0897 36.0936 39.715 36.6495L40.1212 37.0486C40.496 36.4927 40.7674 35.8637 40.9071 35.1876H41.8392C42.0523 35.1876 42.225 35.018 42.225 34.8087V33.4479C42.225 33.2386 42.0523 33.069 41.8392 33.069Z" fill="#414042"/>
<path d="M40.3747 37.298C40.5255 37.446 40.5255 37.6859 40.3747 37.834L39.3953 38.7962C39.2445 38.9443 39.0004 38.9443 38.8497 38.7962L38.1897 38.1479C37.6238 38.516 36.9836 38.7826 36.2954 38.9199V39.8357C36.2954 40.045 36.1227 40.2146 35.9096 40.2146H34.545V40.2348C34.545 40.4441 34.7177 40.6137 34.9308 40.6137H36.3159C36.529 40.6137 36.7016 40.4441 36.7016 40.2348V39.319C37.39 39.1817 38.0301 38.9151 38.596 38.547L39.2559 39.1953C39.4066 39.3434 39.6508 39.3434 39.8015 39.1953L40.781 38.2331C40.9317 38.085 40.9317 37.8451 40.781 37.6971L40.3747 37.298Z" fill="#414042"/>
</svg>
